<svg width="48" height="48" viewBox="0 0 48 48" fill="none" xmlns="http://www.w3.org/2000/svg">
<rect x="0.5" y="0.5" width="47" height="47" rx="23.5" stroke="white"/>
<path d="M32.0002 22.999H34.0002C34.0002 17.869 30.1272 14 24.9902 14V16C29.0522 16 32.0002 18.943 32.0002 22.999Z" fill="white"/>
<path d="M24.9998 20C27.1028 20 27.9998 20.897 27.9998 23H29.9998C29.9998 19.775 28.2248 18 24.9998 18V20ZM28.4218 25.443C28.2296 25.2683 27.9771 25.1752 27.7176 25.1832C27.4581 25.1912 27.2118 25.2998 27.0308 25.486L24.6378 27.947C24.0618 27.837 22.9038 27.476 21.7118 26.287C20.5198 25.094 20.1588 23.933 20.0518 23.361L22.5108 20.967C22.6972 20.7861 22.8059 20.5398 22.814 20.2802C22.822 20.0206 22.7287 19.768 22.5538 19.576L18.8588 15.513C18.6838 15.3204 18.4407 15.2035 18.1809 15.1873C17.9212 15.171 17.6654 15.2567 17.4678 15.426L15.2978 17.287C15.1249 17.4605 15.0217 17.6914 15.0078 17.936C14.9928 18.186 14.7068 24.108 19.2988 28.702C23.3048 32.707 28.3228 33 29.7048 33C29.9068 33 30.0308 32.994 30.0638 32.992C30.3083 32.9783 30.5391 32.8747 30.7118 32.701L32.5718 30.53C32.7413 30.3325 32.8271 30.0768 32.811 29.817C32.795 29.5573 32.6783 29.3141 32.4858 29.139L28.4218 25.443Z" fill="white"/>
</svg>
