<svg width="258" height="55" viewBox="0 0 258 55" fill="none" xmlns="http://www.w3.org/2000/svg">
<g clip-path="url(#clip0_78_763)">
<mask id="mask0_78_763" style="mask-type:luminance" maskUnits="userSpaceOnUse" x="2" y="2" width="34" height="21">
<path d="M16.2056 21.2529L3.59555 13.9669C3.01647 13.6298 2.66211 13.0162 2.66211 12.342C2.66211 11.6679 3.01647 11.0542 3.59555 10.7172L16.2056 3.44847C17.9428 2.44589 20.0863 2.44589 21.8148 3.44847L34.4249 10.7345C35.0039 11.0715 35.3583 11.6852 35.3583 12.3593C35.3583 13.0335 35.0039 13.6471 34.4249 13.9842L21.8148 21.2702C20.0776 22.2728 17.9342 22.2728 16.2056 21.2702V21.2529Z" fill="white"/>
</mask>
<g mask="url(#mask0_78_763)">
<mask id="mask1_78_763" style="mask-type:luminance" maskUnits="userSpaceOnUse" x="2" y="2" width="34" height="21">
<path d="M35.436 2.64429H2.62744V22.0477H35.436V2.64429Z" fill="white"/>
</mask>
<g mask="url(#mask1_78_763)">
<path d="M37.2338 1.82349H0.8125V22.869H37.2338V1.82349Z" fill="#77CEFB"/>
</g>
</g>
<mask id="mask2_78_763" style="mask-type:luminance" maskUnits="userSpaceOnUse" x="0" y="12" width="75" height="43">
<path d="M35.5483 54.4074L0.553147 34.8052C0.20743 34.6151 0 34.2521 0 33.8545C0 33.4569 0.216073 33.0939 0.553147 32.9038L35.5483 13.3016C36.6028 12.7139 37.8906 12.7139 38.945 13.3016L73.9402 32.9038C74.2859 33.0939 74.4934 33.4569 74.4934 33.8545C74.4934 34.2521 74.2773 34.6151 73.9402 34.8052L38.945 54.4074C37.8906 54.9951 36.6028 54.9951 35.5483 54.4074Z" fill="white"/>
</mask>
<g mask="url(#mask2_78_763)">
<mask id="mask3_78_763" style="mask-type:luminance" maskUnits="userSpaceOnUse" x="-1" y="12" width="76" height="43">
<path d="M74.6228 12.8608H-0.129883V54.8568H74.6228V12.8608Z" fill="white"/>
</mask>
<g mask="url(#mask3_78_763)">
<path d="M75.6345 12.3591H-1.14062V55.3663H75.6345V12.3591Z" fill="#0C2C56"/>
</g>
</g>
<mask id="mask4_78_763" style="mask-type:luminance" maskUnits="userSpaceOnUse" x="21" y="-1" width="48" height="28">
<path d="M43.1626 26.2051L21.8837 14.2779C21.538 14.0877 21.3306 13.7247 21.3306 13.3271C21.3306 12.9296 21.5466 12.5666 21.8837 12.3764L43.1626 0.440545C44.217 -0.147174 45.5048 -0.147174 46.5593 0.440545L67.8382 12.3678C68.1839 12.5579 68.3913 12.9209 68.3913 13.3185C68.3913 13.7161 68.1752 14.0791 67.8382 14.2692L46.5593 26.1965C45.5048 26.7842 44.217 26.7842 43.1626 26.1965V26.2051Z" fill="white"/>
</mask>
<g mask="url(#mask4_78_763)">
<mask id="mask5_78_763" style="mask-type:luminance" maskUnits="userSpaceOnUse" x="21" y="-1" width="48" height="28">
<path d="M68.4429 -0.0783691H21.2266V26.7233H68.4429V-0.0783691Z" fill="white"/>
</mask>
<g mask="url(#mask5_78_763)">
<path d="M69.5235 -0.509033H20.1465V27.157H69.5235V-0.509033Z" fill="#355A75"/>
</g>
</g>
<path d="M97.3974 2.34248L97.2764 3.08577L97.1122 3.24999C96.6714 3.24999 96.2566 3.26728 95.8503 3.31049C95.4528 3.3537 95.133 3.46606 94.8823 3.66485C94.6663 3.85499 94.4588 4.10564 94.26 4.40814C94.0699 4.71064 93.9402 5.24651 93.8884 6.01573C93.8625 6.40466 93.8365 6.75902 93.8279 7.08745C93.8106 7.41588 93.802 7.80481 93.7847 8.2456C93.7674 8.68639 93.7674 9.22225 93.7674 9.85318V22.3854C93.7674 23.0596 93.7674 23.63 93.7501 24.0967C93.7328 24.5634 93.7328 24.9697 93.7328 25.3154V26.2834C93.7328 27.3897 93.6118 28.47 93.3612 29.5504C93.1105 30.6221 92.7648 31.5988 92.3067 32.4631C91.8573 33.3274 91.2869 34.0534 90.6127 34.6325C89.9386 35.2115 89.178 35.5832 88.3223 35.7474C88.1063 35.7992 87.8556 35.8252 87.5791 35.8252H86.8358L86.5073 35.7042L86.4209 34.814L86.5851 34.5892H87.5358C87.8124 34.5892 88.089 34.5374 88.3569 34.425C88.6853 34.2349 89.0051 33.9842 89.3076 33.6817C90.0769 32.9125 90.5263 31.4778 90.6473 29.3862C90.7683 27.2946 90.8288 24.3992 90.8288 20.7087V9.88776C90.8288 9.23089 90.8288 8.66046 90.8115 8.19374C90.7942 7.72702 90.7856 7.32945 90.7683 6.99238C90.751 6.66395 90.7337 6.33551 90.7078 5.99844C90.6559 5.25515 90.5263 4.72793 90.3361 4.40814C90.146 4.08835 89.9386 3.83771 89.7139 3.64756C89.4632 3.45742 89.1521 3.33642 88.7631 3.2932C88.3742 3.24999 87.968 3.2327 87.5272 3.2327L87.3198 3.06849L87.1988 2.3252L87.2852 2.28198H97.311L97.3974 2.3252V2.34248Z" fill="#EAE9E4"/>
<path d="M131.71 2.3421L131.589 3.08539L131.425 3.2496C130.984 3.2496 130.56 3.26689 130.163 3.3101C129.765 3.35332 129.446 3.46568 129.195 3.66446C128.979 3.85461 128.771 4.10525 128.573 4.40776C128.382 4.71026 128.253 5.24612 128.201 6.01534C128.175 6.34377 128.149 6.6722 128.14 7.00928C128.123 7.33771 128.115 7.73528 128.097 8.202C128.08 8.66872 128.08 9.23051 128.08 9.89601V20.2502C128.08 21.5985 127.881 22.8518 127.484 24.0272C127.086 25.194 126.472 26.2139 125.651 27.0781C124.83 27.9424 123.784 28.6252 122.54 29.1179C121.287 29.6105 119.826 29.8612 118.149 29.8612C116.222 29.8612 114.597 29.6105 113.257 29.1179C111.926 28.6252 110.846 27.9424 110.016 27.0781C109.195 26.2139 108.59 25.194 108.218 24.0272C107.847 22.8604 107.665 21.5985 107.665 20.2502V8.21064C107.665 7.74392 107.665 7.34635 107.648 7.01792C107.631 6.68949 107.613 6.36106 107.588 6.02398C107.536 5.28069 107.406 4.75347 107.199 4.43368C106.991 4.1139 106.775 3.86325 106.559 3.67311C106.308 3.48296 105.997 3.36196 105.608 3.31875C105.219 3.27553 104.813 3.25825 104.372 3.25825L104.165 3.09403L104.044 2.35074L104.13 2.30752H114.156L114.243 2.35074L114.122 3.09403L113.957 3.25825C113.517 3.25825 113.102 3.27553 112.696 3.31875C112.298 3.36196 111.97 3.47432 111.728 3.67311C111.511 3.86325 111.304 4.1139 111.105 4.4164C110.915 4.7189 110.785 5.25476 110.734 6.02398C110.708 6.41291 110.682 6.76727 110.673 7.09571C110.656 7.42414 110.647 7.81307 110.63 8.25386C110.613 8.69465 110.613 9.23051 110.613 9.86144V19.1007C110.613 22.0739 111.278 24.2001 112.609 25.4965C113.94 26.7929 115.79 27.4325 118.158 27.4325C120.526 27.4325 122.376 26.7843 123.724 25.4965C125.072 24.2001 125.746 22.0739 125.746 19.1007V9.86144C125.746 9.23051 125.746 8.69465 125.729 8.25386C125.712 7.81307 125.703 7.42414 125.686 7.09571C125.669 6.76727 125.651 6.41291 125.625 6.02398C125.573 5.25476 125.444 4.7189 125.236 4.4164C125.029 4.1139 124.813 3.86325 124.597 3.67311C124.381 3.48296 124.07 3.36196 123.672 3.31875C123.274 3.27553 122.851 3.25825 122.41 3.25825L122.203 3.09403L122.082 2.35074L122.168 2.18652C122.358 2.18652 122.652 2.20381 123.032 2.24702C123.413 2.29024 123.819 2.30752 124.251 2.30752H131.658L131.745 2.35074L131.71 2.3421Z" fill="#EAE9E4"/>
<path d="M143.386 29.5242H138.771L138.685 29.481L138.806 28.7377L139.013 28.5735C139.341 28.5735 139.73 28.5562 140.171 28.513C140.612 28.4698 140.958 28.366 141.2 28.2018C141.416 28.0376 141.623 27.7783 141.822 27.4153C142.012 27.061 142.15 26.5251 142.237 25.8077C142.263 25.3929 142.28 24.7792 142.297 23.9495C142.315 23.1284 142.315 21.9011 142.315 20.2763V8.0811C142.315 7.38102 142.289 6.68094 142.228 5.99815C142.176 5.25486 142.047 4.719 141.839 4.39057C141.632 4.06214 141.416 3.81149 141.2 3.64728C140.949 3.50899 140.698 3.40527 140.439 3.33613C140.18 3.26699 139.704 3.23242 139.013 3.23242L138.806 3.0682L138.685 2.32491L138.771 2.17798C138.961 2.17798 139.22 2.18662 139.532 2.21255C139.851 2.23848 140.18 2.25576 140.526 2.28169C140.871 2.30762 141.217 2.32491 141.58 2.35084C141.934 2.37677 142.263 2.38541 142.574 2.38541H148.14C151.113 2.38541 153.239 2.95584 154.536 4.09671C155.832 5.23757 156.472 6.74144 156.472 8.61696C156.472 9.44668 156.368 10.1727 156.161 10.8036C155.953 11.4346 155.668 11.9963 155.314 12.4717C154.959 12.9557 154.553 13.3619 154.121 13.7076C153.68 14.0534 153.213 14.3472 152.721 14.5979C154.726 14.9609 156.273 15.7214 157.362 16.8882C158.451 18.055 158.987 19.6626 158.987 21.711C158.987 23.0939 158.736 24.2866 158.244 25.2632C157.751 26.2485 157.051 27.0523 156.161 27.6746C155.27 28.2969 154.199 28.7636 152.963 29.0661C151.727 29.3686 150.361 29.5242 148.883 29.5242H143.395H143.386ZM147.181 14.183C148.062 14.183 148.901 14.1311 149.696 14.0188C150.491 13.9064 151.208 13.6212 151.839 13.1545C152.444 12.7656 152.937 12.2124 153.326 11.4864C153.715 10.7604 153.905 9.89611 153.905 8.91082C153.905 7.45016 153.49 6.34387 152.669 5.56601C151.839 4.79679 150.672 4.40785 149.16 4.40785H145.452C145.4 5.203 145.366 5.87715 145.348 6.4303C145.331 6.98345 145.314 7.45881 145.288 7.87367C145.262 8.28853 145.245 8.66017 145.245 8.9886V12.4976C145.245 13.1286 145.27 13.5694 145.331 13.82C145.383 14.0706 145.59 14.1916 145.953 14.1916H147.189L147.181 14.183ZM145.245 15.7128V18.4353C145.245 19.4811 145.245 20.501 145.262 21.5122C145.279 22.5148 145.288 23.4136 145.305 24.2088C145.322 25.0039 145.34 25.5398 145.366 25.8164C145.417 26.5597 145.573 27.0091 145.815 27.182C146.066 27.3462 146.394 27.4326 146.809 27.4326H149.324C149.981 27.4326 150.707 27.3462 151.493 27.182C152.28 27.0177 153.015 26.7239 153.697 26.3177C154.38 25.9028 154.959 25.3237 155.426 24.5891C155.893 23.8458 156.126 22.8951 156.126 21.7456C156.126 20.7603 155.944 19.8873 155.59 19.1268C155.236 18.3748 154.734 17.7439 154.104 17.2512C153.473 16.7586 152.738 16.3783 151.9 16.119C151.061 15.8597 150.145 15.7301 149.16 15.7301H145.245V15.7128Z" fill="#EAE9E4"/>
<path d="M177.206 2.34253L177.085 3.08582L176.921 3.25004C176.48 3.25004 176.056 3.26732 175.659 3.31054C175.261 3.35375 174.941 3.46611 174.691 3.6649C174.475 3.85504 174.267 4.10569 174.068 4.40819C173.878 4.71069 173.749 5.24655 173.697 6.01577C173.671 6.40471 173.645 6.75907 173.636 7.0875C173.619 7.41593 173.61 7.80486 173.593 8.24565C173.576 8.68644 173.576 9.2223 173.576 9.85323V22.2904C173.576 22.9127 173.576 23.4226 173.593 23.8375C173.61 24.2523 173.619 24.5981 173.636 24.8919C173.654 25.1771 173.671 25.4883 173.697 25.8167C173.749 26.5859 173.878 27.1218 174.068 27.4243C174.259 27.7268 174.466 27.9774 174.691 28.1676C174.941 28.3577 175.261 28.4787 175.659 28.522C176.056 28.5652 176.48 28.5825 176.921 28.5825L177.085 28.7467L177.206 29.49L177.119 29.5332H167.094L167.007 29.49L167.128 28.7467L167.336 28.5825C167.776 28.5825 168.191 28.5652 168.572 28.522C168.952 28.4787 169.272 28.3664 169.522 28.1676C169.738 27.9774 169.954 27.7268 170.162 27.4243C170.369 27.1218 170.499 26.5859 170.551 25.8167C170.551 25.6266 170.551 25.4019 170.568 25.1339C170.585 24.8746 170.594 24.5462 170.611 24.1659C170.629 23.777 170.629 23.3103 170.629 22.7658V9.89645C170.629 9.23959 170.629 8.66915 170.611 8.20243C170.594 7.73572 170.585 7.33814 170.568 7.00971C170.551 6.68128 170.533 6.35285 170.508 6.01577C170.456 5.29841 170.326 4.77984 170.136 4.4514C169.946 4.12297 169.738 3.86369 169.514 3.6649C169.263 3.47475 168.952 3.35375 168.563 3.31054C168.174 3.26732 167.768 3.25004 167.327 3.25004L167.12 3.08582L166.999 2.34253L167.085 2.29932H177.111L177.197 2.34253H177.206Z" fill="#EAE9E4"/>
<path d="M188.382 6.01577C188.33 5.24655 188.2 4.71069 188.01 4.40819C187.82 4.10569 187.612 3.85504 187.388 3.6649C187.137 3.47475 186.826 3.35375 186.437 3.31054C186.048 3.26732 185.642 3.25004 185.201 3.25004L184.994 3.08582L184.873 2.34253L184.959 2.29932H194.985L195.071 2.34253L194.95 3.08582L194.786 3.25004C194.345 3.25004 193.922 3.26732 193.524 3.31054C193.127 3.35375 192.807 3.46611 192.556 3.6649C192.34 3.85504 192.124 4.11433 191.917 4.42548C191.709 4.74526 191.579 5.27248 191.528 6.01577C191.502 6.40471 191.476 6.75907 191.467 7.0875C191.45 7.41593 191.45 7.80486 191.45 8.24565V22.2731C191.45 22.9041 191.45 23.4572 191.467 23.9239C191.484 24.3906 191.502 24.8314 191.528 25.2463C191.554 25.6611 191.579 26.1279 191.614 26.6464C191.64 27.165 191.934 27.4329 192.478 27.4329H195.987C197.638 27.4329 198.883 27.3984 199.721 27.3292C200.559 27.2601 201.164 27.1132 201.536 26.8971C201.908 26.681 202.132 26.3439 202.219 25.8859C202.305 25.4278 202.435 24.8314 202.634 24.0881L202.755 23.9239H203.827L203.083 29.127L202.755 29.5332H184.976L184.89 29.49L185.011 28.7467L185.218 28.5825C185.659 28.5825 186.074 28.5652 186.454 28.522C186.835 28.4787 187.154 28.3664 187.405 28.1676C187.621 27.9774 187.828 27.7009 188.027 27.3379C188.217 26.9835 188.356 26.4736 188.442 25.8081C188.468 25.6179 188.485 25.3932 188.503 25.1253C188.52 24.866 188.52 24.5376 188.52 24.1573V9.8878C188.52 9.23094 188.52 8.66051 188.503 8.19379C188.485 7.72707 188.477 7.3295 188.459 7.00107C188.442 6.67264 188.425 6.34421 188.399 6.00713L188.382 6.01577Z" fill="#EAE9E4"/>
<path d="M222.158 2.29932H229.089L229.297 2.67096L229.133 7.15664H228.104L227.94 6.99243C227.888 6.35285 227.81 5.85156 227.715 5.48856C227.62 5.12555 227.344 4.86627 226.894 4.69341C226.436 4.52919 225.762 4.44276 224.854 4.44276H217.058L216.972 6.03306C216.946 6.46521 216.92 6.83685 216.912 7.13071C216.894 7.43322 216.886 7.79622 216.868 8.22836C216.851 8.66051 216.851 9.18773 216.851 9.79273V14.2093H221.57C222.244 14.2093 222.815 14.1574 223.281 14.0623C223.748 13.9673 224.068 13.8203 224.232 13.6216C224.448 13.3968 224.647 13.1808 224.811 12.956C224.975 12.7313 225.062 12.4115 225.062 11.9967L225.269 11.7979L225.969 11.7201L226.134 11.7979C226.082 12.4288 226.03 12.9733 225.987 13.4401C225.943 13.9068 225.926 14.4426 225.926 15.0476C225.926 15.7045 225.943 16.3181 225.987 16.8799C226.03 17.4417 226.073 18.0554 226.134 18.7122L225.969 18.7987L225.226 18.7122L225.062 18.5912C225.062 18.1418 224.975 17.7356 224.811 17.3553C224.647 16.975 224.457 16.6639 224.232 16.4132C224.068 16.249 223.748 16.1194 223.281 16.0329C222.815 15.9465 222.253 15.9033 221.587 15.9033H216.842V22.2904C216.842 22.9041 216.842 23.4572 216.86 23.9326C216.877 24.4079 216.894 24.8487 216.92 25.2463C216.946 25.6439 216.989 26.1019 217.041 26.6205C217.041 27.1391 217.318 27.407 217.862 27.407H221.371C223.022 27.407 224.319 27.3724 225.269 27.3033C226.22 27.2342 226.937 27.0872 227.43 26.8712C227.923 26.6551 228.277 26.318 228.484 25.8599C228.692 25.4019 228.891 24.8055 229.081 24.0622L229.245 23.898H230.317L229.573 29.101L229.245 29.5073H210.352L210.265 29.464L210.386 28.7207L210.594 28.5565C211.034 28.5565 211.449 28.5392 211.83 28.496C212.21 28.4528 212.53 28.3405 212.78 28.1417C212.996 27.9515 213.212 27.7009 213.42 27.3984C213.627 27.0959 213.757 26.56 213.809 25.7908C213.809 25.6006 213.809 25.3759 213.826 25.108C213.843 24.8487 213.852 24.5203 213.869 24.14C213.887 23.7511 213.887 23.2843 213.887 22.7398V8.20244C213.887 7.73572 213.887 7.33814 213.869 7.00971C213.852 6.68128 213.835 6.35285 213.809 6.01578C213.757 5.27248 213.627 4.74526 213.42 4.42548C213.212 4.10569 212.996 3.85504 212.78 3.6649C212.53 3.47475 212.218 3.35375 211.83 3.31054C211.441 3.26732 211.034 3.25004 210.594 3.25004L210.386 3.08582L210.265 2.34253L210.352 2.29932H222.149H222.158Z" fill="#EAE9E4"/>
<path d="M249.841 2.29932H256.773L256.98 2.67096L256.816 7.15664H255.788L255.624 6.99243C255.572 6.35285 255.494 5.85156 255.399 5.48856C255.304 5.12555 255.027 4.86627 254.578 4.69341C254.12 4.52919 253.446 4.44276 252.538 4.44276H244.742L244.656 6.03306C244.63 6.46521 244.604 6.83685 244.595 7.13071C244.578 7.43322 244.569 7.79622 244.552 8.22836C244.535 8.66051 244.535 9.18773 244.535 9.79273V14.2093H249.254C249.928 14.2093 250.498 14.1574 250.965 14.0623C251.432 13.9673 251.751 13.8203 251.916 13.6216C252.132 13.3968 252.331 13.1808 252.495 12.956C252.659 12.7313 252.745 12.4115 252.745 11.9967L252.953 11.7979L253.653 11.7201L253.817 11.7979C253.765 12.4288 253.713 12.9733 253.67 13.4401C253.627 13.9068 253.61 14.4426 253.61 15.0476C253.61 15.7045 253.627 16.3181 253.67 16.8799C253.713 17.4417 253.757 18.0554 253.817 18.7122L253.653 18.7987L252.91 18.7122L252.745 18.5912C252.745 18.1418 252.659 17.7356 252.495 17.3553C252.331 16.975 252.14 16.6639 251.916 16.4132C251.751 16.249 251.432 16.1194 250.965 16.0329C250.498 15.9465 249.936 15.9033 249.271 15.9033H244.526V22.2904C244.526 22.9041 244.526 23.4572 244.543 23.9326C244.561 24.4079 244.578 24.8487 244.604 25.2463C244.63 25.6439 244.673 26.1019 244.725 26.6205C244.725 27.1391 245.001 27.407 245.546 27.407H249.055C250.706 27.407 252.002 27.3724 252.953 27.3033C253.904 27.2342 254.621 27.0872 255.114 26.8712C255.606 26.6551 255.961 26.318 256.168 25.8599C256.375 25.4019 256.574 24.8055 256.764 24.0622L256.929 23.898H258L257.257 29.101L256.929 29.5073H238.035L237.949 29.464L238.07 28.7207L238.277 28.5565C238.718 28.5565 239.133 28.5392 239.513 28.496C239.893 28.4528 240.213 28.3405 240.464 28.1417C240.68 27.9515 240.896 27.7009 241.103 27.3984C241.311 27.0959 241.44 26.56 241.492 25.7908C241.492 25.6006 241.492 25.3759 241.51 25.108C241.527 24.8487 241.536 24.5203 241.553 24.14C241.57 23.7511 241.57 23.2843 241.57 22.7398V8.20244C241.57 7.73572 241.57 7.33814 241.553 7.00971C241.536 6.68128 241.518 6.35285 241.492 6.01578C241.44 5.27248 241.311 4.74526 241.103 4.42548C240.896 4.10569 240.68 3.85504 240.464 3.6649C240.213 3.47475 239.902 3.35375 239.513 3.31054C239.124 3.26732 238.718 3.25004 238.277 3.25004L238.07 3.08582L237.949 2.34253L238.035 2.29932H249.833H249.841Z" fill="#EAE9E4"/>
<path d="M99.463 43.5691L101.313 48.4437C101.373 48.6252 101.434 48.7721 101.485 48.8931C101.537 49.0141 101.581 49.1179 101.606 49.2043C101.641 49.2907 101.667 49.3599 101.693 49.4117C101.719 49.4636 101.745 49.5154 101.762 49.5586C101.848 49.7401 101.935 49.8784 102.021 49.9735C102.108 50.0686 102.203 50.1377 102.289 50.1896C102.376 50.2414 102.471 50.2587 102.566 50.2674C102.661 50.2674 102.756 50.276 102.842 50.276L102.894 50.3192L102.929 50.7254L102.912 50.7687C102.86 50.7687 102.782 50.7687 102.687 50.7514C102.583 50.7427 102.479 50.7341 102.376 50.7341H99.8347L99.8692 50.3192L99.9124 50.276C100.103 50.276 100.241 50.2501 100.336 50.2069C100.431 50.1636 100.483 50.034 100.483 49.8266C100.483 49.7142 100.466 49.55 100.422 49.3339C100.379 49.1265 100.293 48.8586 100.146 48.5474L99.9211 48.0288H98.0456L97.8295 48.5474C97.6999 48.8586 97.6048 49.1265 97.5356 49.3512C97.4751 49.5759 97.4406 49.7315 97.4406 49.8266C97.4406 49.9994 97.4751 50.1204 97.5443 50.1809C97.6134 50.2414 97.7431 50.276 97.9332 50.276L97.9851 50.3192L98.0196 50.7254H98.0024C97.9505 50.7341 97.8727 50.7341 97.769 50.7341H95.6861C95.5823 50.7341 95.4786 50.7341 95.3836 50.7514C95.2885 50.76 95.2107 50.7687 95.1675 50.7687V50.7254L95.1761 50.3192L95.228 50.276C95.3231 50.276 95.4095 50.276 95.5046 50.2587C95.5996 50.2414 95.6947 50.2155 95.7811 50.1636C95.8762 50.1118 95.9626 50.0426 96.0577 49.9562C96.1528 49.8698 96.2392 49.7488 96.3343 49.6105C96.3516 49.5673 96.3861 49.4981 96.4293 49.4117C96.4726 49.3253 96.5417 49.1611 96.6368 48.9363C96.7318 48.7116 96.8615 48.3832 97.0257 47.9597C97.1899 47.5362 97.406 46.9744 97.6826 46.2743L98.6074 43.8975L99.3679 43.5777H99.4889L99.463 43.5691ZM98.2184 47.251H99.6272L98.9444 45.3495L98.2271 47.251H98.2184Z" fill="#EAE9E4"/>
<path d="M109.748 45.2629C109.73 45.1073 109.661 44.9691 109.54 44.8567C109.428 44.7443 109.281 44.6579 109.117 44.5974C108.953 44.5369 108.762 44.485 108.555 44.4591C108.348 44.4332 108.149 44.4159 107.95 44.4159C107.31 44.4159 106.818 44.5801 106.472 44.8999C106.204 45.1419 106.005 45.4703 105.884 45.8679C105.763 46.2741 105.703 46.7063 105.703 47.1816C105.703 47.657 105.763 48.0286 105.893 48.3744C106.014 48.7201 106.187 49.0053 106.412 49.2387C106.628 49.472 106.887 49.6449 107.189 49.7659C107.492 49.8869 107.82 49.9474 108.175 49.9474C108.486 49.9474 108.84 49.9128 109.246 49.8437C109.653 49.7745 110.033 49.6449 110.387 49.4547L110.517 49.6881L110.258 50.1634C109.886 50.3968 109.514 50.561 109.134 50.6647C108.762 50.7685 108.374 50.829 107.985 50.829C107.449 50.829 106.965 50.7425 106.524 50.5697C106.083 50.3968 105.711 50.1548 105.4 49.835C105.089 49.5152 104.847 49.1349 104.674 48.7028C104.501 48.2706 104.415 47.778 104.415 47.2421C104.415 46.7408 104.493 46.2655 104.648 45.8247C104.804 45.3753 105.029 44.995 105.331 44.6579C105.634 44.3295 106.014 44.0702 106.455 43.8714C106.904 43.6813 107.423 43.5862 108.019 43.5862H108.52C108.711 43.5862 108.918 43.6035 109.134 43.638C109.35 43.6726 109.566 43.7158 109.782 43.7763C109.998 43.8368 110.206 43.9146 110.413 44.0097L110.448 44.1048L110.31 45.3148H109.782L109.748 45.2716V45.2629Z" fill="#EAE9E4"/>
<path d="M117.812 45.2629C117.795 45.1073 117.726 44.9691 117.605 44.8567C117.492 44.7443 117.345 44.6579 117.181 44.5974C117.017 44.5369 116.827 44.485 116.619 44.4591C116.412 44.4332 116.213 44.4159 116.014 44.4159C115.375 44.4159 114.882 44.5801 114.537 44.8999C114.269 45.1419 114.07 45.4703 113.949 45.8679C113.828 46.2741 113.767 46.7063 113.767 47.1816C113.767 47.657 113.828 48.0286 113.957 48.3744C114.078 48.7201 114.251 49.0053 114.476 49.2387C114.692 49.472 114.951 49.6449 115.254 49.7659C115.556 49.8869 115.885 49.9474 116.239 49.9474C116.55 49.9474 116.905 49.9128 117.311 49.8437C117.717 49.7745 118.097 49.6449 118.452 49.4547L118.581 49.6881L118.322 50.1634C117.95 50.3968 117.579 50.561 117.199 50.6647C116.827 50.7685 116.438 50.829 116.049 50.829C115.513 50.829 115.029 50.7425 114.588 50.5697C114.148 50.3968 113.776 50.1548 113.465 49.835C113.154 49.5152 112.912 49.1349 112.739 48.7028C112.566 48.2706 112.479 47.778 112.479 47.2421C112.479 46.7408 112.557 46.2655 112.713 45.8247C112.868 45.3753 113.093 44.995 113.396 44.6579C113.698 44.3295 114.078 44.0702 114.519 43.8714C114.969 43.6813 115.487 43.5862 116.084 43.5862H116.585C116.775 43.5862 116.982 43.6035 117.199 43.638C117.415 43.6726 117.631 43.7158 117.847 43.7763C118.063 43.8368 118.27 43.9146 118.478 44.0097L118.512 44.1048L118.374 45.3148H117.847L117.812 45.2716V45.2629Z" fill="#EAE9E4"/>
<path d="M124.009 43.5691C124.562 43.5691 125.046 43.6642 125.478 43.863C125.91 44.0531 126.265 44.321 126.559 44.6495C126.852 44.9779 127.077 45.3668 127.233 45.799C127.388 46.2311 127.466 46.6978 127.466 47.1732C127.466 47.6486 127.388 48.098 127.241 48.5388C127.094 48.9796 126.87 49.3685 126.567 49.7056C126.273 50.0426 125.902 50.3106 125.461 50.518C125.02 50.7254 124.51 50.8205 123.931 50.8205C123.352 50.8205 122.885 50.7254 122.462 50.5353C122.038 50.3451 121.684 50.0859 121.407 49.7574C121.122 49.429 120.915 49.0487 120.768 48.6166C120.621 48.1844 120.552 47.7263 120.552 47.251C120.552 46.741 120.63 46.2657 120.785 45.8163C120.941 45.3668 121.165 44.9779 121.459 44.6495C121.753 44.3124 122.116 44.0531 122.54 43.863C122.972 43.6728 123.456 43.5691 124 43.5691H124.009ZM124 49.9389C124.355 49.9389 124.666 49.8698 124.942 49.7229C125.219 49.5759 125.452 49.3771 125.634 49.1351C125.824 48.8845 125.962 48.5993 126.066 48.2622C126.17 47.9338 126.213 47.5708 126.213 47.1905C126.213 46.8102 126.161 46.4472 126.057 46.1101C125.954 45.7817 125.807 45.4878 125.608 45.2458C125.409 45.0038 125.176 44.8137 124.891 44.6754C124.614 44.5371 124.294 44.468 123.948 44.468C123.603 44.468 123.3 44.5371 123.032 44.6754C122.764 44.8137 122.548 45.0038 122.367 45.2458C122.185 45.4878 122.056 45.773 121.961 46.1101C121.865 46.4385 121.822 46.8015 121.822 47.1905C121.822 47.6226 121.874 48.0029 121.986 48.34C122.09 48.6771 122.246 48.9709 122.436 49.2043C122.626 49.4376 122.859 49.6191 123.119 49.7488C123.387 49.8784 123.681 49.9389 124 49.9389Z" fill="#EAE9E4"/>
<path d="M136.697 43.6641L136.662 44.0703L136.619 44.1135C136.516 44.1135 136.412 44.1135 136.299 44.1308C136.187 44.1481 136.101 44.174 136.04 44.2259C135.98 44.2778 135.928 44.3383 135.876 44.416C135.824 44.4938 135.79 44.6321 135.772 44.8309C135.772 44.9173 135.772 45.0038 135.772 45.0902C135.772 45.1766 135.772 45.2803 135.764 45.4013C135.764 45.5223 135.764 45.6693 135.764 45.8421V48.3226C135.764 48.677 135.703 48.9968 135.582 49.3079C135.461 49.6104 135.288 49.8784 135.064 50.1031C134.839 50.3278 134.554 50.5093 134.208 50.639C133.871 50.7686 133.482 50.8291 133.041 50.8291C132.505 50.8291 132.056 50.7686 131.693 50.639C131.33 50.5093 131.045 50.3365 130.828 50.1031C130.612 49.8784 130.457 49.6104 130.37 49.3079C130.275 49.0054 130.232 48.677 130.232 48.3226V45.4013C130.232 45.2803 130.232 45.1766 130.232 45.0902C130.232 45.0038 130.223 44.9173 130.215 44.8309C130.198 44.6408 130.163 44.5025 130.111 44.416C130.059 44.3296 129.999 44.2691 129.947 44.2259C129.886 44.1654 129.8 44.1395 129.696 44.1308C129.593 44.1308 129.489 44.1222 129.376 44.1222L129.325 44.079L129.29 43.6728H129.316C129.368 43.6641 129.446 43.6641 129.567 43.6641H132.376L132.341 44.079L132.298 44.1222C132.194 44.1222 132.09 44.1222 131.978 44.1395C131.866 44.1481 131.779 44.1827 131.719 44.2345C131.658 44.2864 131.606 44.3469 131.554 44.4247C131.503 44.5025 131.468 44.6408 131.459 44.8395C131.459 44.9433 131.451 45.0297 131.442 45.1161C131.433 45.2026 131.442 45.2976 131.433 45.4186C131.433 45.531 131.433 45.6693 131.433 45.8335V48.0201C131.433 48.6857 131.563 49.161 131.822 49.4462C132.082 49.7314 132.488 49.8697 133.032 49.8697C133.274 49.8697 133.499 49.8352 133.707 49.766C133.914 49.6969 134.096 49.5845 134.242 49.4376C134.389 49.2907 134.51 49.0919 134.597 48.8672C134.683 48.6338 134.726 48.3572 134.726 48.0201V45.8335C134.726 45.6693 134.726 45.531 134.726 45.4186C134.726 45.3063 134.726 45.2026 134.718 45.1161C134.718 45.0297 134.718 44.9346 134.701 44.8395C134.683 44.6321 134.649 44.4852 134.597 44.4074C134.545 44.3296 134.484 44.2691 134.433 44.2259C134.372 44.1654 134.294 44.1395 134.191 44.1395H133.862L133.81 44.0963L133.776 43.6814L133.793 43.6382C133.845 43.6382 133.914 43.6382 134.018 43.6555C134.121 43.6728 134.225 43.6728 134.338 43.6728H136.714L136.697 43.6641Z" fill="#EAE9E4"/>
<path d="M146.074 43.6556L146.048 44.0705L145.996 44.1137C145.893 44.1137 145.78 44.1137 145.676 44.131C145.573 44.1396 145.486 44.1742 145.426 44.226C145.365 44.2779 145.313 44.3384 145.244 44.4162C145.175 44.494 145.141 44.6323 145.123 44.8311C145.123 44.9348 145.115 45.0212 145.106 45.1076C145.106 45.1941 145.106 45.2978 145.097 45.4101C145.097 45.5225 145.097 45.6608 145.097 45.825V48.1327C145.097 48.5302 145.097 48.8587 145.097 49.1179C145.097 49.3772 145.097 49.5933 145.106 49.7748C145.106 49.9563 145.115 50.1205 145.132 50.2675C145.141 50.4144 145.158 50.57 145.167 50.7428L145.08 50.7774H143.758L143.654 50.6391L140.335 45.6176C140.352 45.7472 140.361 45.9546 140.361 46.2312C140.361 46.5078 140.361 46.8449 140.361 47.2165V48.3487C140.361 48.487 140.361 48.6339 140.361 48.7809C140.361 48.9278 140.361 49.0747 140.37 49.213C140.37 49.3513 140.378 49.4637 140.387 49.5501C140.404 49.7316 140.439 49.8699 140.508 49.9563C140.577 50.0514 140.638 50.1205 140.715 50.1637C140.776 50.2242 140.845 50.2502 140.94 50.2588C141.035 50.2588 141.148 50.2675 141.294 50.2675L141.346 50.3107L141.381 50.7169H141.355C141.295 50.7255 141.217 50.7255 141.113 50.7255H138.382L138.416 50.3107L138.468 50.2675C138.598 50.2675 138.71 50.2675 138.797 50.2502C138.883 50.2415 138.97 50.207 139.039 50.1637C139.091 50.1292 139.151 50.0687 139.22 49.9822C139.289 49.8958 139.341 49.7575 139.358 49.5501C139.358 49.4982 139.367 49.4377 139.376 49.3772C139.376 49.3081 139.376 49.2217 139.376 49.1266V45.4015C139.376 45.2805 139.376 45.1768 139.376 45.0903C139.376 45.0039 139.367 44.9175 139.358 44.8311C139.341 44.6841 139.307 44.5545 139.237 44.4421C139.168 44.3384 139.099 44.2606 139.039 44.2174C138.978 44.1569 138.892 44.131 138.797 44.1223C138.702 44.1223 138.589 44.1137 138.468 44.1137L138.416 44.0705L138.382 43.6643L138.408 43.621C138.46 43.621 138.529 43.621 138.624 43.6297C138.719 43.6297 138.823 43.647 138.918 43.647C139.013 43.647 139.116 43.6556 139.212 43.6643C139.307 43.6643 139.384 43.6729 139.428 43.6729H140.344C140.404 43.6729 140.473 43.6729 140.56 43.6643C140.646 43.6643 140.724 43.647 140.785 43.6383L140.836 43.6729C140.854 43.7766 140.914 43.9149 141.001 44.0878C141.087 44.2606 141.191 44.4594 141.32 44.6755C141.441 44.8916 141.58 45.1249 141.727 45.3669C141.874 45.6089 142.012 45.8423 142.159 46.0843C142.418 46.5164 142.643 46.8881 142.842 47.2079C143.04 47.5276 143.222 47.8042 143.377 48.0376C143.533 48.2709 143.671 48.4697 143.784 48.6339C143.896 48.7982 143.991 48.9278 144.078 49.0402C144.078 48.85 144.078 48.6685 144.078 48.487C144.078 48.3055 144.078 48.124 144.078 47.9339V45.8336C144.078 45.6608 144.078 45.5138 144.078 45.3928C144.078 45.2718 144.078 45.1681 144.069 45.0817C144.069 44.9953 144.06 44.9088 144.052 44.8224C144.034 44.7014 144.008 44.5891 143.957 44.4853C143.905 44.3816 143.836 44.2866 143.74 44.2088C143.671 44.1483 143.594 44.1223 143.49 44.1223H143.161L143.118 44.0791L143.084 43.6556L143.101 43.6124C143.153 43.6124 143.222 43.6124 143.317 43.621C143.412 43.621 143.507 43.6383 143.602 43.6383C143.697 43.6383 143.792 43.647 143.887 43.6556C143.982 43.6556 144.052 43.6643 144.103 43.6643H145.253C145.348 43.6643 145.443 43.6643 145.538 43.6556C145.642 43.6556 145.737 43.6383 145.832 43.6297C145.927 43.6297 145.996 43.6124 146.048 43.6038V43.647L146.074 43.6556Z" fill="#EAE9E4"/>
<path d="M152.288 50.7256H148.918L148.952 50.2934L149.004 50.2502H149.384C149.531 50.2502 149.635 50.2243 149.704 50.1638C149.765 50.1119 149.816 50.0514 149.877 49.9736C149.937 49.8959 149.972 49.7576 149.998 49.5501C149.998 49.4983 150.007 49.4378 150.015 49.3773C150.015 49.3081 150.015 49.2217 150.024 49.1266C150.032 49.0316 150.024 48.9019 150.024 48.7636V46.2572C150.024 45.8596 150.024 45.5139 150.015 45.2028C150.015 44.8916 149.998 44.6669 149.989 44.5113H149.194C149.013 44.5113 148.874 44.5113 148.762 44.5286C148.658 44.5372 148.572 44.5545 148.52 44.5632C148.468 44.5805 148.425 44.5977 148.408 44.615C148.33 44.6496 148.261 44.7101 148.217 44.7879C148.174 44.8657 148.131 44.9608 148.122 45.0645L148.079 45.1077H147.621L147.699 43.6643L147.742 43.5692L147.803 43.5347C147.863 43.5606 147.984 43.5865 148.174 43.6038C148.364 43.6297 148.58 43.6384 148.805 43.6384H152.392C152.625 43.6384 152.833 43.6297 153.023 43.6038C153.213 43.5865 153.343 43.5606 153.395 43.5347L153.455 43.5692L153.498 43.6643L153.585 45.1077H153.109L153.066 45.0645C153.049 44.9521 153.023 44.857 152.971 44.7793C152.919 44.7015 152.859 44.641 152.781 44.6064C152.755 44.5805 152.72 44.5545 152.669 44.5372C152.617 44.52 152.53 44.5113 152.427 44.5113H151.217C151.217 44.6842 151.208 44.9089 151.199 45.1941C151.191 45.4793 151.199 45.825 151.199 46.2313V48.6167C151.199 48.7809 151.199 48.9106 151.199 49.0229C151.199 49.1353 151.199 49.2217 151.208 49.2995C151.208 49.3773 151.208 49.4551 151.225 49.5415C151.242 49.7489 151.277 49.8959 151.346 49.9736C151.407 50.0514 151.467 50.1119 151.528 50.1551C151.554 50.1811 151.597 50.207 151.649 50.2243C151.701 50.2416 151.761 50.2502 151.83 50.2589C151.891 50.2589 151.96 50.2675 152.029 50.2675H152.219L152.271 50.3107L152.306 50.7169H152.28L152.288 50.7256Z" fill="#EAE9E4"/>
<path d="M158.996 43.5691L160.845 48.4437C160.906 48.6252 160.966 48.7721 161.018 48.8931C161.07 49.0141 161.113 49.1179 161.139 49.2043C161.174 49.2907 161.2 49.3599 161.226 49.4117C161.252 49.4636 161.278 49.5154 161.295 49.5586C161.381 49.7401 161.468 49.8784 161.554 49.9735C161.641 50.0686 161.736 50.1377 161.822 50.1896C161.909 50.2414 162.004 50.2587 162.099 50.2674C162.194 50.2674 162.28 50.276 162.375 50.276L162.427 50.3192L162.462 50.7254L162.444 50.7687C162.393 50.7687 162.315 50.7687 162.22 50.7514C162.116 50.7427 162.012 50.7341 161.909 50.7341H159.368L159.402 50.3192L159.445 50.276C159.627 50.276 159.774 50.2501 159.869 50.2069C159.964 50.1636 160.016 50.034 160.016 49.8266C160.016 49.7142 159.998 49.55 159.955 49.3339C159.912 49.1265 159.826 48.8586 159.679 48.5474L159.454 48.0288H157.578L157.362 48.5474C157.233 48.8586 157.138 49.1265 157.077 49.3512C157.017 49.5759 156.982 49.7315 156.982 49.8266C156.982 49.9994 157.017 50.1204 157.086 50.1809C157.155 50.2414 157.285 50.276 157.475 50.276L157.527 50.3192L157.561 50.7254H157.544C157.492 50.7341 157.414 50.7341 157.311 50.7341H155.228C155.124 50.7341 155.02 50.7341 154.925 50.7514C154.83 50.76 154.752 50.7687 154.709 50.7687V50.7254L154.718 50.3192L154.769 50.276C154.865 50.276 154.951 50.276 155.046 50.2587C155.141 50.2414 155.236 50.2155 155.323 50.1636C155.418 50.1118 155.504 50.0426 155.599 49.9562C155.694 49.8698 155.781 49.7488 155.876 49.6105C155.893 49.5673 155.928 49.4981 155.971 49.4117C156.014 49.3253 156.083 49.1611 156.178 48.9363C156.273 48.7116 156.403 48.3832 156.567 47.9597C156.731 47.5362 156.948 46.9744 157.224 46.2743L158.149 43.8975L158.909 43.5777H159.03L158.996 43.5691ZM157.751 47.251H159.16L158.477 45.3495L157.76 47.251H157.751Z" fill="#EAE9E4"/>
<path d="M171.528 43.6556L171.502 44.0705L171.45 44.1137C171.346 44.1137 171.234 44.1137 171.13 44.131C171.026 44.1396 170.94 44.1742 170.879 44.226C170.819 44.2779 170.767 44.3384 170.698 44.4162C170.629 44.494 170.594 44.6323 170.577 44.8311C170.577 44.9348 170.568 45.0212 170.56 45.1076C170.56 45.1941 170.56 45.2978 170.551 45.4101C170.551 45.5225 170.551 45.6608 170.551 45.825V48.1327C170.551 48.5302 170.551 48.8587 170.551 49.1179C170.551 49.3772 170.551 49.5933 170.56 49.7748C170.56 49.9563 170.568 50.1205 170.586 50.2675C170.594 50.4144 170.612 50.57 170.62 50.7428L170.534 50.7774H169.211L169.108 50.6391L165.789 45.6176C165.806 45.7472 165.815 45.9546 165.815 46.2312C165.815 46.5078 165.815 46.8449 165.815 47.2165V48.3487C165.815 48.487 165.815 48.6339 165.815 48.7809C165.815 48.9278 165.815 49.0747 165.823 49.213C165.823 49.3513 165.832 49.4637 165.841 49.5501C165.858 49.7316 165.892 49.8699 165.962 49.9563C166.031 50.0514 166.091 50.1205 166.169 50.1637C166.23 50.2242 166.299 50.2502 166.394 50.2588C166.489 50.2588 166.601 50.2675 166.748 50.2675L166.8 50.3107L166.835 50.7169H166.809C166.748 50.7255 166.67 50.7255 166.567 50.7255H163.835L163.87 50.3107L163.922 50.2675C164.052 50.2675 164.164 50.2675 164.25 50.2502C164.337 50.2415 164.423 50.207 164.492 50.1637C164.544 50.1292 164.605 50.0687 164.674 49.9822C164.743 49.8958 164.795 49.7575 164.812 49.5501C164.812 49.4982 164.821 49.4377 164.829 49.3772C164.829 49.3081 164.829 49.2217 164.829 49.1266V45.4015C164.829 45.2805 164.829 45.1768 164.829 45.0903C164.829 45.0039 164.821 44.9175 164.812 44.8311C164.795 44.6841 164.76 44.5545 164.691 44.4421C164.622 44.3384 164.553 44.2606 164.492 44.2174C164.432 44.1569 164.345 44.131 164.25 44.1223C164.155 44.1223 164.043 44.1137 163.922 44.1137L163.87 44.0705L163.835 43.6643L163.861 43.621C163.913 43.621 163.982 43.621 164.077 43.6297C164.173 43.6297 164.276 43.647 164.371 43.647C164.466 43.647 164.57 43.6556 164.665 43.6643C164.76 43.6643 164.838 43.6729 164.881 43.6729H165.797C165.858 43.6729 165.927 43.6729 166.013 43.6643C166.1 43.6643 166.178 43.647 166.238 43.6383L166.29 43.6729C166.307 43.7766 166.368 43.9149 166.454 44.0878C166.541 44.2606 166.644 44.4594 166.774 44.6755C166.895 44.8916 167.033 45.1249 167.18 45.3669C167.327 45.6089 167.465 45.8423 167.612 46.0843C167.872 46.5164 168.096 46.8881 168.295 47.2079C168.494 47.5276 168.675 47.8042 168.831 48.0376C168.987 48.2709 169.125 48.4697 169.237 48.6339C169.35 48.7982 169.445 48.9278 169.531 49.0402C169.531 48.85 169.531 48.6685 169.531 48.487C169.531 48.3055 169.531 48.124 169.531 47.9339V45.8336C169.531 45.6608 169.531 45.5138 169.531 45.3928C169.531 45.2718 169.531 45.1681 169.522 45.0817C169.522 44.9953 169.514 44.9088 169.505 44.8224C169.488 44.7014 169.462 44.5891 169.41 44.4853C169.358 44.3816 169.289 44.2866 169.194 44.2088C169.125 44.1483 169.047 44.1223 168.943 44.1223H168.615L168.572 44.0791L168.537 43.6556L168.554 43.6124C168.606 43.6124 168.675 43.6124 168.771 43.621C168.866 43.621 168.961 43.6383 169.056 43.6383C169.151 43.6383 169.246 43.647 169.341 43.6556C169.436 43.6556 169.505 43.6643 169.557 43.6643H170.707C170.802 43.6643 170.897 43.6643 170.992 43.6556C171.096 43.6556 171.191 43.6383 171.286 43.6297C171.381 43.6297 171.45 43.6124 171.502 43.6038V43.647L171.528 43.6556Z" fill="#EAE9E4"/>
<path d="M178.745 45.2629C178.719 45.1073 178.658 44.9691 178.537 44.8567C178.425 44.7443 178.278 44.6579 178.114 44.5974C177.949 44.5369 177.759 44.485 177.552 44.4591C177.344 44.4332 177.146 44.4159 176.947 44.4159C176.307 44.4159 175.815 44.5801 175.469 44.8999C175.201 45.1419 175.002 45.4703 174.881 45.8679C174.76 46.2655 174.7 46.7063 174.7 47.1816C174.7 47.657 174.76 48.0286 174.89 48.3744C175.011 48.7201 175.184 49.0053 175.408 49.2387C175.625 49.472 175.884 49.6449 176.186 49.7659C176.489 49.8869 176.817 49.9474 177.172 49.9474C177.483 49.9474 177.837 49.9128 178.243 49.8437C178.65 49.7745 179.03 49.6449 179.384 49.4547L179.514 49.6881L179.255 50.1634C178.883 50.3968 178.511 50.561 178.131 50.6647C177.751 50.7685 177.37 50.829 176.973 50.829C176.437 50.829 175.953 50.7425 175.512 50.5697C175.071 50.3968 174.7 50.1548 174.389 49.835C174.077 49.5152 173.835 49.1349 173.663 48.7028C173.49 48.262 173.403 47.778 173.403 47.2421C173.403 46.7408 173.481 46.2655 173.637 45.8247C173.792 45.3753 174.017 44.995 174.319 44.6579C174.622 44.3295 175.002 44.0702 175.443 43.8714C175.892 43.6813 176.411 43.5862 177.007 43.5862H177.509C177.699 43.5862 177.906 43.6035 178.122 43.638C178.338 43.6726 178.554 43.7158 178.771 43.7763C178.987 43.8368 179.203 43.9146 179.402 44.0097L179.436 44.1048L179.298 45.3148H178.771L178.736 45.2716L178.745 45.2629Z" fill="#EAE9E4"/>
<path d="M186.022 50.7428H182.962L182.988 50.3279L183.04 50.2847C183.144 50.2847 183.256 50.2847 183.36 50.2674C183.463 50.2501 183.55 50.2242 183.61 50.1723C183.68 50.1205 183.731 50.06 183.783 49.9822C183.835 49.9044 183.861 49.7661 183.878 49.5673C183.878 49.5155 183.887 49.455 183.896 49.3858C183.896 49.3167 183.896 49.2303 183.904 49.1352C183.904 49.0315 183.904 48.9105 183.904 48.7722V48.0289C183.904 47.8301 183.878 47.6659 183.818 47.5449C183.757 47.4239 183.705 47.3029 183.645 47.2078C183.412 46.8189 183.152 46.4213 182.867 46.0064C182.582 45.5916 182.297 45.1681 181.994 44.7359C181.942 44.6581 181.89 44.5804 181.821 44.5026C181.752 44.4248 181.7 44.3643 181.648 44.3211C181.571 44.2519 181.476 44.2087 181.363 44.1828C181.251 44.1569 181.13 44.1309 180.983 44.1223L180.896 44.0791V43.6729L180.948 43.6296C181.13 43.6556 181.285 43.6729 181.432 43.6901C181.579 43.7074 181.735 43.7161 181.908 43.7161H182.789C182.954 43.7161 183.144 43.7074 183.36 43.6901C183.576 43.6729 183.792 43.6556 183.991 43.6296L184.034 43.6729V44.0791L183.991 44.1309C183.844 44.1309 183.723 44.1396 183.619 44.1569C183.515 44.1741 183.429 44.2087 183.36 44.2519C183.291 44.3038 183.256 44.3643 183.256 44.4421C183.256 44.4853 183.256 44.5285 183.282 44.5717C183.308 44.6149 183.317 44.6581 183.342 44.6927L184.622 46.7238L185.823 44.8656C185.892 44.7446 185.927 44.6149 185.927 44.4939C185.927 44.4075 185.901 44.347 185.849 44.3038C185.797 44.2606 185.737 44.226 185.659 44.2087C185.581 44.1914 185.503 44.1741 185.408 44.1655C185.322 44.1655 185.235 44.1482 185.157 44.1223L185.114 44.0791V43.6729L185.157 43.6296C185.365 43.6642 185.538 43.6815 185.676 43.6815H187.569C187.716 43.6815 187.88 43.6642 188.087 43.6296L188.131 43.6729V44.0791L188.087 44.1223C187.923 44.1482 187.785 44.1741 187.673 44.2087C187.56 44.2433 187.456 44.2951 187.361 44.3556C187.266 44.4161 187.18 44.5026 187.085 44.6063C186.998 44.71 186.895 44.831 186.791 44.9779C186.575 45.2891 186.393 45.5657 186.238 45.7904C186.082 46.0151 185.953 46.2139 185.84 46.3954C185.728 46.5682 185.624 46.7324 185.538 46.888C185.443 47.035 185.348 47.1992 185.244 47.3634C185.218 47.4066 185.183 47.4757 185.149 47.5795C185.114 47.6832 185.097 47.7869 185.097 47.8992V48.6858C185.097 48.8413 185.097 48.971 185.097 49.0833C185.097 49.187 185.097 49.2821 185.106 49.3513C185.106 49.4204 185.114 49.4982 185.123 49.5846C185.14 49.7834 185.175 49.9217 185.227 49.9995C185.278 50.0773 185.339 50.1464 185.391 50.1896C185.451 50.2415 185.529 50.2674 185.633 50.2847C185.737 50.2933 185.849 50.302 185.961 50.302L186.013 50.3452L186.048 50.7514H186.03L186.022 50.7428Z" fill="#EAE9E4"/>
<path d="M194.492 45.3061C194.492 45.4876 194.544 45.6518 194.639 45.7815C194.742 45.9111 194.872 46.0235 195.045 46.1186C195.218 46.2136 195.417 46.3087 195.65 46.3951C195.875 46.4816 196.125 46.568 196.376 46.6631C196.635 46.7668 196.877 46.8705 197.119 46.9829C197.353 47.0952 197.569 47.2335 197.75 47.3891C197.932 47.5446 198.079 47.7434 198.191 47.9595C198.303 48.1756 198.355 48.4435 198.355 48.746C198.355 49.0485 198.295 49.3424 198.174 49.6017C198.053 49.8523 197.88 50.077 197.655 50.2585C197.43 50.44 197.154 50.587 196.825 50.682C196.497 50.7857 196.134 50.829 195.736 50.829C195.304 50.829 194.881 50.7771 194.449 50.6647C194.016 50.561 193.636 50.4141 193.299 50.2239L193.256 50.0857L193.506 48.6509H193.991L194.042 48.7114C194.086 49.2041 194.25 49.5584 194.544 49.7659C194.829 49.9733 195.226 50.077 195.728 50.077C196.229 50.077 196.583 49.9906 196.799 49.8177C197.024 49.6449 197.128 49.3856 197.128 49.0399C197.128 48.8152 197.085 48.6337 196.99 48.4954C196.895 48.3484 196.765 48.2274 196.601 48.1324C196.436 48.0286 196.229 47.9422 195.996 47.8644C195.762 47.7866 195.494 47.6916 195.209 47.5879C194.95 47.4928 194.708 47.3891 194.492 47.2854C194.276 47.1816 194.077 47.0434 193.921 46.8878C193.757 46.7322 193.636 46.5507 193.541 46.3346C193.446 46.1186 193.403 45.8593 193.403 45.5654C193.403 44.9345 193.61 44.4505 194.016 44.1048C194.431 43.759 195.054 43.5862 195.901 43.5862C196.29 43.5862 196.653 43.6294 196.981 43.7245C197.318 43.8109 197.603 43.9233 197.828 44.0443L197.871 44.1653L197.698 45.3926H197.18L197.128 45.3407C197.085 45.0382 196.955 44.8048 196.739 44.6406C196.523 44.4764 196.22 44.39 195.84 44.39C195.408 44.39 195.08 44.4764 194.838 44.6493C194.604 44.8221 194.483 45.0468 194.483 45.3321L194.492 45.3061Z" fill="#EAE9E4"/>
<path d="M203.377 43.6555H205.287L205.356 43.7505L205.304 45.1334H204.82L204.777 45.0902C204.76 44.9519 204.743 44.8395 204.717 44.7618C204.691 44.684 204.622 44.6235 204.518 44.5889C204.414 44.5543 204.241 44.537 204.017 44.537H202.47V44.6321C202.452 44.7358 202.444 44.8223 202.444 44.9087C202.444 44.9951 202.444 45.0902 202.435 45.2026C202.435 45.3149 202.435 45.4532 202.435 45.6174V46.6027H203.368C203.507 46.6027 203.619 46.5941 203.714 46.5768C203.809 46.5595 203.878 46.5249 203.922 46.4817C203.991 46.4126 204.025 46.3088 204.025 46.1706L204.077 46.1101H204.518C204.501 46.2829 204.492 46.4298 204.483 46.5508C204.475 46.6718 204.466 46.8101 204.466 46.9657C204.466 47.1386 204.466 47.2941 204.483 47.4411C204.492 47.588 204.509 47.7436 204.518 47.9164H204.475L204.069 47.9251L204.025 47.8819C204.025 47.7004 203.991 47.5621 203.93 47.4756C203.87 47.3979 203.714 47.3546 203.438 47.3546H202.426V48.2189C202.426 48.4264 202.426 48.5906 202.426 48.7289C202.426 48.8672 202.426 48.9795 202.435 49.0746C202.435 49.1697 202.435 49.2561 202.452 49.3425C202.452 49.4289 202.47 49.524 202.47 49.6364C202.47 49.766 202.547 49.8352 202.686 49.8352H204.129C204.362 49.8352 204.535 49.8092 204.665 49.7487C204.786 49.6969 204.872 49.6104 204.924 49.5067C204.976 49.403 205.028 49.2647 205.071 49.0832L205.114 49.04H205.616L205.408 50.6044L205.322 50.7081H200.274L200.309 50.2932L200.361 50.25C200.473 50.25 200.585 50.25 200.68 50.2327C200.776 50.2154 200.862 50.1895 200.931 50.1377C200.992 50.0858 201.043 50.0253 201.095 49.9475C201.147 49.8697 201.182 49.7314 201.199 49.5327C201.199 49.4808 201.199 49.4203 201.199 49.3512C201.199 49.282 201.199 49.1956 201.208 49.1005C201.208 48.9968 201.208 48.8758 201.208 48.7375V45.3754C201.208 45.2544 201.208 45.1507 201.208 45.0643C201.208 44.9778 201.199 44.8914 201.19 44.805C201.173 44.6148 201.139 44.4765 201.087 44.3901C201.035 44.3037 200.974 44.2432 200.922 44.2C200.853 44.1395 200.776 44.1135 200.672 44.1049C200.568 44.1049 200.464 44.0963 200.352 44.0963L200.3 44.053L200.266 43.6468H200.283C200.335 43.6382 200.413 43.6382 200.534 43.6382H203.36L203.377 43.6555Z" fill="#EAE9E4"/>
<path d="M210.602 50.7687C210.542 50.7427 210.464 50.7341 210.36 50.7341H207.793C207.69 50.7341 207.612 50.7427 207.56 50.7687L207.543 50.7254L207.577 50.3106L207.629 50.2674C207.906 50.2674 208.087 50.2328 208.191 50.1723C208.338 50.0686 208.433 49.8611 208.468 49.55C208.468 49.429 208.476 49.2389 208.485 48.9882C208.485 48.7376 208.485 48.4783 208.485 48.219V45.8595C208.485 45.6088 208.485 45.41 208.476 45.2631C208.476 45.1162 208.459 44.9692 208.442 44.831C208.416 44.6408 208.381 44.5025 208.347 44.4161C208.312 44.3297 208.269 44.2605 208.2 44.2087C208.139 44.1741 208.07 44.1482 207.992 44.1309C207.914 44.1136 207.785 44.105 207.621 44.105L207.569 44.0617L207.534 43.6555L207.551 43.6123C207.742 43.6469 207.923 43.6642 208.105 43.6642H210.473C211.328 43.6642 211.968 43.8197 212.409 44.1395C212.841 44.4593 213.066 44.926 213.066 45.557C213.066 46.0064 212.936 46.4126 212.677 46.7843C212.417 47.1473 212.029 47.4671 211.51 47.7436C211.752 48.1066 211.959 48.4091 212.124 48.6338C212.288 48.8586 212.435 49.0487 212.556 49.1784C212.72 49.3685 212.876 49.5327 213.014 49.6624C213.161 49.792 213.299 49.8957 213.437 49.9821C213.576 50.0686 213.723 50.1291 213.869 50.1723C214.016 50.2155 214.189 50.2414 214.371 50.2587L214.431 50.3019L214.457 50.7081L214.431 50.7773H213.282C212.901 50.7773 212.564 50.6736 212.271 50.4661C211.977 50.2587 211.657 49.8957 211.32 49.3944C211.242 49.2821 211.156 49.1524 211.069 49.0141C210.983 48.8758 210.888 48.7289 210.801 48.5906C210.715 48.4523 210.628 48.3227 210.551 48.1931C210.473 48.0634 210.404 47.9511 210.36 47.8646H209.66V48.4956C209.66 48.6684 209.66 48.824 209.66 48.9536C209.66 49.0833 209.669 49.1956 209.678 49.2821C209.678 49.3771 209.695 49.4636 209.695 49.5414C209.721 49.8698 209.799 50.0772 209.928 50.1636C209.98 50.1982 210.041 50.2241 210.118 50.2414C210.196 50.2587 210.326 50.2674 210.516 50.2674L210.559 50.3106L210.594 50.7254L210.568 50.7687H210.602ZM210.231 47.0781C210.749 47.0781 211.164 46.9571 211.458 46.7065C211.752 46.4558 211.907 46.1101 211.907 45.6693C211.907 45.2717 211.778 44.9779 211.51 44.7964C211.242 44.6149 210.827 44.5198 210.239 44.5198H209.738C209.721 44.805 209.704 45.0297 209.695 45.1853C209.695 45.3409 209.686 45.4878 209.686 45.6347V46.6805C209.686 46.8275 209.704 46.9312 209.738 46.9917C209.773 47.0522 209.842 47.0781 209.946 47.0781H210.231Z" fill="#EAE9E4"/>
<path d="M218.511 50.8293L216.834 46.1708C216.757 45.9547 216.687 45.7732 216.636 45.6349C216.584 45.488 216.532 45.367 216.497 45.2719C216.454 45.1682 216.428 45.0904 216.394 45.0212C216.368 44.9607 216.342 44.9002 216.316 44.8397C216.238 44.6582 216.16 44.52 216.074 44.4249C215.987 44.3298 215.91 44.252 215.823 44.2088C215.737 44.1656 215.65 44.1397 215.564 44.131C215.477 44.131 215.382 44.1224 215.287 44.1224L215.235 44.0792L215.209 43.6643V43.6297C215.27 43.6297 215.348 43.647 215.443 43.6557C215.538 43.6557 215.642 43.6643 215.745 43.6643H218.312L218.278 44.0792L218.226 44.1224C218.018 44.1224 217.854 44.1483 217.742 44.1915C217.629 44.2347 217.569 44.3644 217.569 44.5718C217.569 44.736 217.621 44.9694 217.733 45.2632C217.846 45.5571 217.984 45.9374 218.148 46.3868L218.805 48.15C218.926 48.4352 219.03 48.7118 219.107 48.9711C219.185 49.2304 219.263 49.4464 219.341 49.6193C219.401 49.4551 219.479 49.2476 219.574 48.9883C219.678 48.7377 219.782 48.4525 219.894 48.1413L220.551 46.3782C220.715 45.9288 220.853 45.5571 220.966 45.2546C221.078 44.9607 221.13 44.7274 221.13 44.5632C221.13 44.3557 221.069 44.2261 220.957 44.1829C220.845 44.1397 220.68 44.1137 220.473 44.1137L220.421 44.0705L220.404 43.6557L220.421 43.6211C220.473 43.647 220.551 43.6557 220.655 43.6557H222.712C222.815 43.6557 222.919 43.6557 223.023 43.6384C223.126 43.6297 223.196 43.6211 223.247 43.6211L223.265 43.6557L223.23 44.0705L223.178 44.1137C223.083 44.1137 222.997 44.1137 222.91 44.1224C222.824 44.1224 222.737 44.157 222.66 44.2002C222.573 44.2434 222.495 44.3212 222.409 44.4162C222.323 44.5113 222.245 44.6496 222.158 44.8311C222.141 44.8657 222.124 44.9002 222.107 44.9348C222.089 44.9694 222.063 45.0299 222.029 45.099C221.994 45.1768 221.951 45.2805 221.89 45.4188C221.83 45.5571 221.761 45.7386 221.666 45.972C221.571 46.2053 221.458 46.4992 221.32 46.8449C221.182 47.1993 221.018 47.6228 220.819 48.1241C220.715 48.3747 220.611 48.634 220.508 48.9019C220.404 49.1699 220.3 49.4205 220.205 49.6625C220.11 49.9045 220.032 50.1119 219.954 50.3021C219.885 50.4922 219.833 50.6219 219.808 50.6996L218.606 50.8206H218.476L218.511 50.8293Z" fill="#EAE9E4"/>
<path d="M227.706 43.664L227.672 44.0702L227.629 44.1134C227.516 44.1134 227.404 44.1134 227.309 44.1307C227.214 44.148 227.127 44.1739 227.05 44.2258C226.989 44.2777 226.929 44.3382 226.868 44.4159C226.816 44.4937 226.79 44.632 226.79 44.8308C226.79 44.9345 226.782 45.021 226.773 45.1074C226.773 45.1938 226.773 45.2889 226.764 45.4099C226.756 45.5309 226.764 45.6605 226.764 45.8247V48.6337C226.764 48.7979 226.764 48.9276 226.764 49.0399C226.764 49.1523 226.764 49.2387 226.773 49.3165C226.773 49.3943 226.773 49.4721 226.79 49.5585C226.808 49.7573 226.834 49.8956 226.885 49.9733C226.937 50.0511 226.989 50.1203 227.05 50.1635C227.11 50.2154 227.197 50.2413 227.3 50.2586C227.404 50.2759 227.516 50.2759 227.629 50.2759L227.672 50.3191L227.706 50.7253H227.681C227.629 50.7339 227.551 50.7339 227.43 50.7339H224.621L224.656 50.3191L224.707 50.2759C224.82 50.2759 224.932 50.2759 225.036 50.2586C225.14 50.2413 225.217 50.2154 225.278 50.1635C225.338 50.1116 225.39 50.0511 225.433 49.9733C225.477 49.8956 225.52 49.7573 225.546 49.5585C225.546 49.5066 225.546 49.4461 225.546 49.377C225.546 49.3078 225.546 49.2214 225.554 49.1263C225.554 49.0226 225.554 48.9016 225.554 48.7633V45.842C225.554 45.6692 225.554 45.5222 225.554 45.4012C225.554 45.2802 225.554 45.1765 225.546 45.0901C225.546 45.0037 225.537 44.9172 225.528 44.8308C225.511 44.6493 225.485 44.511 225.433 44.4246C225.382 44.3382 225.33 44.269 225.269 44.2172C225.2 44.1653 225.122 44.1394 225.019 44.1221C224.915 44.1048 224.811 44.1048 224.699 44.1048L224.647 44.0616L224.612 43.6554H224.63C224.681 43.6467 224.759 43.6467 224.88 43.6467H227.689L227.706 43.664Z" fill="#EAE9E4"/>
<path d="M235.053 45.2629C235.027 45.1073 234.967 44.9691 234.846 44.8567C234.733 44.7443 234.587 44.6579 234.422 44.5974C234.258 44.5369 234.068 44.485 233.861 44.4591C233.653 44.4332 233.454 44.4159 233.256 44.4159C232.616 44.4159 232.123 44.5801 231.778 44.8999C231.51 45.1419 231.311 45.4703 231.19 45.8679C231.069 46.2655 231.008 46.7063 231.008 47.1816C231.008 47.657 231.069 48.0286 231.198 48.3744C231.319 48.7201 231.492 49.0053 231.717 49.2387C231.933 49.472 232.192 49.6449 232.495 49.7659C232.797 49.8869 233.126 49.9474 233.48 49.9474C233.791 49.9474 234.146 49.9128 234.552 49.8437C234.958 49.7745 235.338 49.6449 235.693 49.4547L235.822 49.6881L235.563 50.1634C235.192 50.3968 234.82 50.561 234.44 50.6647C234.059 50.7685 233.679 50.829 233.281 50.829C232.746 50.829 232.262 50.7425 231.821 50.5697C231.38 50.3968 231.008 50.1548 230.697 49.835C230.386 49.5152 230.144 49.1349 229.971 48.7028C229.798 48.262 229.712 47.778 229.712 47.2421C229.712 46.7408 229.79 46.2655 229.945 45.8247C230.101 45.3753 230.326 44.995 230.628 44.6579C230.931 44.3295 231.311 44.0702 231.752 43.8714C232.201 43.6813 232.72 43.5862 233.316 43.5862H233.817C234.007 43.5862 234.215 43.6035 234.431 43.638C234.647 43.6726 234.863 43.7158 235.079 43.7763C235.295 43.8368 235.511 43.9146 235.71 44.0097L235.745 44.1048L235.606 45.3148H235.079L235.045 45.2716L235.053 45.2629Z" fill="#EAE9E4"/>
<path d="M240.818 43.6555H242.728L242.797 43.7505L242.745 45.1334H242.261L242.218 45.0902C242.201 44.9519 242.184 44.8395 242.158 44.7618C242.132 44.684 242.063 44.6235 241.959 44.5889C241.855 44.5543 241.682 44.537 241.458 44.537H239.91V44.6321C239.893 44.7358 239.885 44.8223 239.885 44.9087C239.885 44.9951 239.885 45.0902 239.876 45.2026C239.876 45.3149 239.876 45.4532 239.876 45.6174V46.6027H240.809C240.948 46.6027 241.06 46.5941 241.155 46.5768C241.25 46.5595 241.319 46.5249 241.363 46.4817C241.432 46.4126 241.466 46.3088 241.466 46.1706L241.518 46.1101H241.959C241.942 46.2829 241.933 46.4298 241.924 46.5508C241.916 46.6718 241.907 46.8101 241.907 46.9657C241.907 47.1386 241.907 47.2941 241.924 47.4411C241.933 47.588 241.95 47.7436 241.959 47.9164H241.916L241.509 47.9251L241.466 47.8819C241.466 47.7004 241.432 47.5621 241.371 47.4756C241.311 47.3979 241.155 47.3546 240.879 47.3546H239.867V48.2189C239.867 48.4264 239.867 48.5906 239.867 48.7289C239.867 48.8672 239.867 48.9795 239.876 49.0746C239.876 49.1697 239.876 49.2561 239.893 49.3425C239.893 49.4289 239.91 49.524 239.91 49.6364C239.91 49.766 239.988 49.8352 240.127 49.8352H241.57C241.803 49.8352 241.976 49.8092 242.106 49.7487C242.227 49.6969 242.313 49.6104 242.365 49.5067C242.417 49.403 242.469 49.2647 242.512 49.0832L242.555 49.04H243.057L242.849 50.6044L242.763 50.7081H237.715L237.75 50.2932L237.802 50.25C237.914 50.25 238.026 50.25 238.121 50.2327C238.216 50.2154 238.303 50.1895 238.372 50.1377C238.433 50.0858 238.484 50.0253 238.536 49.9475C238.588 49.8697 238.623 49.7314 238.64 49.5327C238.64 49.4808 238.64 49.4203 238.64 49.3512C238.64 49.282 238.64 49.1956 238.649 49.1005C238.649 48.9968 238.649 48.8758 238.649 48.7375V45.3754C238.649 45.2544 238.649 45.1507 238.649 45.0643C238.649 44.9778 238.64 44.8914 238.631 44.805C238.614 44.6148 238.579 44.4765 238.528 44.3901C238.476 44.3037 238.415 44.2432 238.363 44.2C238.294 44.1395 238.216 44.1135 238.113 44.1049C238.009 44.1049 237.905 44.0963 237.793 44.0963L237.741 44.053L237.707 43.6468H237.724C237.776 43.6382 237.853 43.6382 237.974 43.6382H240.801L240.818 43.6555Z" fill="#EAE9E4"/>
<path d="M246.297 45.3061C246.297 45.4876 246.349 45.6518 246.444 45.7815C246.548 45.9111 246.678 46.0235 246.851 46.1186C247.023 46.2136 247.222 46.3087 247.456 46.3951C247.68 46.4816 247.931 46.568 248.182 46.6631C248.441 46.7668 248.683 46.8705 248.925 46.9829C249.158 47.0952 249.374 47.2335 249.556 47.3891C249.737 47.5446 249.884 47.7434 249.997 47.9595C250.109 48.1756 250.161 48.4435 250.161 48.746C250.161 49.0485 250.1 49.3424 249.979 49.6017C249.858 49.8523 249.685 50.077 249.461 50.2585C249.236 50.44 248.959 50.587 248.631 50.682C248.303 50.7857 247.94 50.829 247.542 50.829C247.11 50.829 246.686 50.7771 246.254 50.6647C245.822 50.561 245.442 50.4141 245.105 50.2239L245.062 50.0857L245.312 48.6509H245.796L245.848 48.7114C245.891 49.2041 246.055 49.5584 246.349 49.7659C246.635 49.9733 247.032 50.077 247.533 50.077C248.035 50.077 248.389 49.9906 248.605 49.8177C248.83 49.6449 248.934 49.3856 248.934 49.0399C248.934 48.8152 248.89 48.6337 248.795 48.4954C248.7 48.3484 248.571 48.2274 248.406 48.1324C248.242 48.0286 248.035 47.9422 247.801 47.8644C247.568 47.7866 247.3 47.6916 247.015 47.5879C246.756 47.4928 246.514 47.3891 246.297 47.2854C246.081 47.1816 245.883 47.0434 245.727 46.8878C245.563 46.7322 245.442 46.5507 245.347 46.3346C245.252 46.1186 245.208 45.8593 245.208 45.5654C245.208 44.9345 245.416 44.4505 245.822 44.1048C246.237 43.759 246.859 43.5862 247.706 43.5862C248.095 43.5862 248.458 43.6294 248.787 43.7245C249.124 43.8109 249.409 43.9233 249.634 44.0443L249.677 44.1653L249.504 45.3926H248.985L248.934 45.3407C248.89 45.0382 248.761 44.8048 248.545 44.6406C248.329 44.4764 248.026 44.39 247.646 44.39C247.214 44.39 246.885 44.4764 246.643 44.6493C246.41 44.8221 246.289 45.0468 246.289 45.3321L246.297 45.3061Z" fill="#EAE9E4"/>
</g>
<defs>
<clipPath id="clip0_78_763">
<rect width="258" height="54.8567" fill="white"/>
</clipPath>
</defs>
</svg>
