<svg width="59" height="60" viewBox="0 0 59 60" fill="none" xmlns="http://www.w3.org/2000/svg">
<g clip-path="url(#clip0_641_1524)">
<path d="M54.141 59.9963H5.16163C5.09432 59.9603 5.0317 59.9008 4.95969 59.8898C2.66946 59.5188 0.443412 57.3867 0.459066 54.3638C0.512291 44.248 0.485679 34.1321 0.468459 24.0179C0.468459 23.3228 0.692316 22.8422 1.23239 22.4196C3.31912 20.779 5.37923 19.1055 7.46126 17.4587C7.74617 17.2333 7.88236 17.0078 7.86827 16.6306C7.83696 15.8119 7.84949 14.99 7.86514 14.1697C7.90741 11.9703 9.73427 9.98687 11.929 9.72701C13.5258 9.53759 15.1272 9.691 16.7255 9.64247C17.0511 9.63308 17.3157 9.57047 17.5787 9.35757C21.3169 6.3441 25.0646 3.3416 28.8075 0.334397C29.357 -0.107056 29.9253 -0.118014 30.4528 0.304653C34.2412 3.34629 38.0342 6.38324 41.8179 9.43271C42.0558 9.62525 42.3016 9.65343 42.5771 9.65187C43.9046 9.64717 45.2336 9.63308 46.5611 9.64247C49.022 9.65969 50.8645 11.1954 51.3467 13.603C51.5298 14.5141 51.4469 15.433 51.4171 16.3441C51.3983 16.9468 51.6284 17.3021 52.0699 17.6512C54.1081 19.2574 56.1244 20.8917 58.1579 22.5025C58.6228 22.8704 58.8326 23.3025 58.8326 23.9067C58.8216 34.14 58.8279 44.3717 58.8216 54.6049C58.8216 56.4521 58.0139 57.8908 56.5298 58.974C55.8082 59.5016 54.9691 59.7348 54.1378 59.9963H54.141ZM29.6513 11.9405C24.0658 11.9405 18.4804 11.975 12.8964 11.9171C11.4829 11.903 10.1068 12.7608 10.1131 14.655C10.1272 19.3216 10.1209 23.9897 10.1131 28.6563C10.1131 28.9599 10.2039 29.1635 10.4497 29.3466C10.9663 29.7301 11.4625 30.1418 11.965 30.5457C17.7415 35.1653 23.5195 39.7834 29.285 44.4139C29.5996 44.6675 29.7734 44.6362 30.0677 44.3983C32.3877 42.5166 34.7217 40.6537 37.0542 38.7862C40.9866 35.6381 44.919 32.4916 48.8529 29.3466C49.0439 29.1948 49.1785 29.0476 49.1785 28.7721C49.1723 23.9881 49.1989 19.2026 49.1613 14.4186C49.1488 12.8313 48.125 11.9421 46.5236 11.9405C40.899 11.9405 35.2743 11.9405 29.6513 11.9405ZM54.4227 57.5041C54.3648 57.2661 54.1692 57.1816 54.0283 57.0579C48.3504 52.1378 42.6663 47.2254 36.9948 42.2975C36.6645 42.011 36.4782 42.1221 36.2089 42.3397C34.3006 43.8879 32.383 45.4252 30.4669 46.9656C29.9002 47.4211 29.4181 47.4305 28.8842 47.0032C26.9822 45.4768 25.0646 43.9693 23.1908 42.4086C22.7524 42.0438 22.5254 42.1112 22.1403 42.4462C17.2969 46.6619 12.4393 50.8604 7.58493 55.0636C6.66289 55.8619 5.74241 56.6603 4.7828 57.49C5.30096 57.7139 5.78155 57.7655 6.2684 57.7655C7.86984 57.7671 9.47128 57.7655 11.0712 57.7655C25.0129 57.7655 38.9547 57.7655 52.8965 57.7686C53.4193 57.7686 53.9375 57.7452 54.4196 57.5025L54.4227 57.5041ZM2.73208 26.0655C2.73208 35.6537 2.73208 45.0808 2.73677 54.5094C2.73677 54.8194 2.77904 55.134 2.84479 55.4377C2.95907 55.9621 3.06552 55.9887 3.46783 55.6412C4.22081 54.99 4.97222 54.3372 5.72519 53.686C10.6563 49.4217 15.5859 45.1559 20.5232 40.8995C20.8144 40.649 20.8457 40.5348 20.5107 40.2671C15.2618 36.0858 10.027 31.8857 4.78749 27.6904C4.14097 27.1722 3.48818 26.6619 2.73521 26.0655H2.73208ZM56.5752 26.0545C55.6657 26.7856 54.8783 27.4227 54.0893 28.0536C49.0189 32.1127 43.9531 36.175 38.8701 40.2186C38.4741 40.5332 38.507 40.6569 38.8655 40.9653C43.4193 44.8882 47.9575 48.8269 52.5004 52.7608C53.6072 53.7189 54.7124 54.6769 55.8191 55.6334C56.2527 56.0091 56.3576 55.9809 56.4688 55.4127C56.5392 55.0511 56.5752 54.6769 56.5752 54.309C56.5799 45.4471 56.5784 36.5852 56.5768 27.7233C56.5768 27.2207 56.5768 26.7182 56.5768 26.0545H56.5752ZM38.305 9.61273C38.2221 9.37635 38.0326 9.29651 37.8886 9.18224C35.2884 7.09395 32.6757 5.01974 30.0881 2.91423C29.728 2.6215 29.5261 2.68098 29.2099 2.93458C27.0996 4.63621 24.9691 6.31279 22.862 8.01912C22.2562 8.5091 21.5956 8.94429 21.0007 9.61117H38.305V9.61273ZM51.497 20.0651V27.2286C52.97 26.0498 54.3523 24.9399 55.7408 23.841C55.9444 23.6797 55.9083 23.5858 55.7299 23.4449C54.3429 22.3428 52.9606 21.2361 51.497 20.0651ZM7.826 27.2411V20.0526C6.33415 21.2486 4.92995 22.3742 3.52575 23.5013C3.36921 23.6265 3.43966 23.7189 3.56802 23.8206C4.96282 24.9368 6.3545 26.0576 7.826 27.2411Z" fill="white"/>
<path d="M29.6455 29.187C25.8979 29.187 22.1518 29.1823 18.4041 29.1917C17.8797 29.1917 17.4367 29.0884 17.1706 28.5937C16.7933 27.8908 17.2692 27.0189 18.0707 26.9578C18.3039 26.9406 18.5388 26.9578 18.7736 26.9578C26.1499 26.9578 33.5278 26.9579 40.9041 26.9594C41.1358 26.9594 41.3785 26.9485 41.5992 27.0095C42.0829 27.141 42.4586 27.7124 42.4038 28.1726C42.3381 28.7268 41.8825 29.1714 41.2971 29.1776C39.8334 29.1949 38.3697 29.187 36.906 29.1886C34.4858 29.1886 32.0657 29.1886 29.6455 29.1886V29.187Z" fill="white"/>
<path d="M29.682 22.4902C25.8764 22.4902 22.0692 22.4918 18.2637 22.4886C17.6078 22.4886 17.1553 22.1458 17.0505 21.5306C16.9628 21.0187 17.196 20.6336 17.6453 20.3675C17.8629 20.2391 18.0946 20.2469 18.3247 20.2469C25.8983 20.2438 33.4703 20.2422 41.0439 20.2454C41.8767 20.2454 42.4058 20.6946 42.4074 21.3631C42.4074 22.0393 41.8407 22.4918 40.9828 22.4918C37.2164 22.4918 33.4484 22.4918 29.682 22.4918V22.4902Z" fill="white"/>
</g>
<defs>
<clipPath id="clip0_641_1524">
<rect width="58.3766" height="60" fill="white" transform="translate(0.458984 -0.00366211)"/>
</clipPath>
</defs>
</svg>
