<svg width="24" height="24" viewBox="0 0 24 24" fill="none" xmlns="http://www.w3.org/2000/svg">
<path fill-rule="evenodd" clip-rule="evenodd" d="M3.108 3.54798C3.27833 3.21184 3.62317 3 4 3H8.267C8.58555 3 8.88504 3.15177 9.07342 3.40865L13.348 9.23779L19.2929 3.29289C19.6834 2.90237 20.3166 2.90237 20.7071 3.29289C21.0976 3.68342 21.0976 4.31658 20.7071 4.70711L14.5446 10.8696L20.8064 19.4086C21.0293 19.7125 21.0623 20.1159 20.892 20.452C20.7217 20.7882 20.3768 21 20 21H15.733C15.4145 21 15.115 20.8482 14.9266 20.5914L10.652 14.7622L4.70711 20.7071C4.31659 21.0976 3.68342 21.0976 3.2929 20.7071C2.90237 20.3166 2.90237 19.6834 3.2929 19.2929L9.45539 13.1304L3.19359 4.59135C2.97075 4.28747 2.93766 3.88412 3.108 3.54798ZM12.3703 11.2866C12.4012 11.338 12.4371 11.3872 12.4781 11.4336L18.0266 19H16.2398L5.97338 5H7.76026L12.3703 11.2866Z" fill="white"/>
</svg>
