<svg width="24" height="24" viewBox="0 0 24 24" fill="none" xmlns="http://www.w3.org/2000/svg">
<path fill-rule="evenodd" clip-rule="evenodd" d="M11.2929 3.29289C11.6834 2.90237 12.3166 2.90237 12.7071 3.29289L17.7071 8.29289C18.0976 8.68342 18.0976 9.31658 17.7071 9.70711C17.3166 10.0976 16.6834 10.0976 16.2929 9.70711L13 6.41421V16C13 16.5523 12.5523 17 12 17C11.4477 17 11 16.5523 11 16V6.41421L7.70711 9.70711C7.31658 10.0976 6.68342 10.0976 6.29289 9.70711C5.90237 9.31658 5.90237 8.68342 6.29289 8.29289L11.2929 3.29289ZM4 16C4.55228 16 5 16.4477 5 17V19C5 19.2652 5.10536 19.5196 5.29289 19.7071C5.48043 19.8946 5.73478 20 6 20H18C18.2652 20 18.5196 19.8946 18.7071 19.7071C18.8946 19.5196 19 19.2652 19 19V17C19 16.4477 19.4477 16 20 16C20.5523 16 21 16.4477 21 17V19C21 19.7957 20.6839 20.5587 20.1213 21.1213C19.5587 21.6839 18.7957 22 18 22H6C5.20435 22 4.44129 21.6839 3.87868 21.1213C3.31607 20.5587 3 19.7957 3 19V17C3 16.4477 3.44772 16 4 16Z" fill="white" fill-opacity="0.6"/>
</svg>
