<svg width="16" height="17" viewBox="0 0 16 17" fill="none" xmlns="http://www.w3.org/2000/svg">
<g clip-path="url(#clip0_1_8)">
<path d="M6 12.5C6 13.0304 6.21071 13.5391 6.58579 13.9142C6.96086 14.2893 7.46957 14.5 8 14.5C8.53043 14.5 9.03914 14.2893 9.41421 13.9142C9.78929 13.5391 10 13.0304 10 12.5" stroke="white" stroke-linecap="round" stroke-linejoin="round"/>
<path d="M3.5 7C3.5 5.80653 3.97411 4.66193 4.81802 3.81802C5.66193 2.97411 6.80653 2.5 8 2.5C9.19347 2.5 10.3381 2.97411 11.182 3.81802C12.0259 4.66193 12.5 5.80653 12.5 7C12.5 9.23875 13.0187 11.0375 13.4312 11.75C13.4751 11.8259 13.4982 11.9119 13.4982 11.9996C13.4983 12.0872 13.4754 12.1733 13.4317 12.2492C13.388 12.3252 13.3251 12.3883 13.2494 12.4324C13.1736 12.4764 13.0876 12.4997 13 12.5H3C2.91249 12.4995 2.82665 12.476 2.75105 12.4319C2.67546 12.3878 2.61277 12.3246 2.56924 12.2487C2.52571 12.1728 2.50288 12.0868 2.50301 11.9992C2.50314 11.9117 2.52624 11.8258 2.57 11.75C2.98188 11.0375 3.5 9.23813 3.5 7Z" stroke="white" stroke-linecap="round" stroke-linejoin="round"/>
</g>
<circle cx="12" cy="4.5" r="2" fill="#E92B4D"/>
<defs>
<clipPath id="clip0_1_8">
<rect width="16" height="16" fill="white" transform="translate(0 0.5)"/>
</clipPath>
</defs>
</svg>
