<svg width="18" height="19" viewBox="0 0 18 19" fill="none" xmlns="http://www.w3.org/2000/svg">
<g clip-path="url(#clip0_547_3343)">
<path d="M11.5587 10.7189C11.6366 10.6671 11.7262 10.6355 11.8194 10.627C11.9125 10.6186 12.0064 10.6335 12.0923 10.6704L15.4083 12.1561C15.52 12.2039 15.6133 12.2865 15.6741 12.3917C15.735 12.497 15.7601 12.619 15.7458 12.7397C15.6365 13.5561 15.2345 14.305 14.6145 14.8471C13.9945 15.3893 13.1986 15.6878 12.375 15.6872C9.83887 15.6872 7.40661 14.6797 5.61329 12.8864C3.81998 11.0931 2.8125 8.66084 2.8125 6.12471C2.81187 5.30107 3.1104 4.50524 3.65257 3.88521C4.19474 3.26518 4.94364 2.86317 5.76 2.75393C5.88068 2.73959 6.00276 2.76472 6.10796 2.82556C6.21316 2.8864 6.29583 2.97968 6.34359 3.09143L7.8293 6.41018C7.8658 6.49542 7.88067 6.58836 7.87257 6.68073C7.86447 6.7731 7.83367 6.86204 7.78289 6.93963L6.28031 8.72627C6.22701 8.8067 6.1955 8.89958 6.18884 8.99583C6.18219 9.09208 6.20062 9.18842 6.24234 9.27541C6.82383 10.4658 8.0543 11.6815 9.2482 12.2574C9.33566 12.2989 9.43243 12.3169 9.52898 12.3097C9.62553 12.3024 9.71851 12.2701 9.79875 12.2159L11.5587 10.7189Z" stroke="#4E4E4E" stroke-width="1.125" stroke-linecap="round" stroke-linejoin="round"/>
</g>
<defs>
<clipPath id="clip0_547_3343">
<rect width="18" height="18" fill="white" transform="translate(0 0.5)"/>
</clipPath>
</defs>
</svg>
