<?xml version="1.0" standalone="no"?>
<!DOCTYPE svg PUBLIC "-//W3C//DTD SVG 1.1//EN" "http://www.w3.org/Graphics/SVG/1.1/DTD/svg11.dtd" >
<svg xmlns="http://www.w3.org/2000/svg" xmlns:xlink="http://www.w3.org/1999/xlink" version="1.1">
<metadata></metadata>
<defs>
<font id="helvetica_neuebold" horiz-adv-x="1138" >
<font-face units-per-em="2048" ascent="1638" descent="-410" />
<missing-glyph horiz-adv-x="569" />
<glyph unicode="&#xfb01;" horiz-adv-x="1251" d="M0 864v195h174v82q0 145 91 233t263 88q35 0 84 -4t70 -4v-217q-51 6 -107 6q-59 0 -85 -28q-25 -26 -25 -93v-63h201v-195h-201v-864h-291v864h-174zM842 0v1059h291v-1059h-291zM842 1223v239h291v-239h-291z" />
<glyph unicode="&#xfb02;" horiz-adv-x="1251" d="M0 864v195h174v82q0 145 91 233t263 88q35 0 84 -4t70 -4v-217q-51 6 -107 6q-59 0 -85 -28q-25 -26 -25 -93v-63h201v-195h-201v-864h-291v864h-174zM842 0v1462h291v-1462h-291z" />
<glyph unicode="&#xfb03;" horiz-adv-x="1830" d="M0 864v195h174v82q0 142 88 231q88 90 266 90q39 0 78 -3q53 -4 76 -5v-217q-53 6 -107 6q-59 0 -85 -28q-25 -26 -25 -93v-63h330v82q0 142 88 231q89 90 266 90q39 0 78 -3q53 -4 76 -5v-217q-53 6 -107 6q-59 0 -85 -28t-26 -93v-63h201v-195h-201v-864h-290v864h-330 v-864h-291v864h-174zM1421 0v1059h291v-1059h-291zM1421 1223v239h291v-239h-291z" />
<glyph unicode="&#xfb04;" horiz-adv-x="1830" d="M0 864v195h174v82q0 142 88 231q88 90 266 90q39 0 78 -3q53 -4 76 -5v-217q-53 6 -107 6q-59 0 -85 -28q-25 -26 -25 -93v-63h330v82q0 142 88 231q89 90 266 90q39 0 78 -3q53 -4 76 -5v-217q-53 6 -107 6q-59 0 -85 -28t-26 -93v-63h201v-195h-201v-864h-290v864h-330 v-864h-291v864h-174zM1421 0v1462h291v-1462h-291z" />
<glyph horiz-adv-x="0" />
<glyph unicode="&#xd;" horiz-adv-x="681" />
<glyph horiz-adv-x="0" />
<glyph unicode="&#x9;" horiz-adv-x="569" />
<glyph unicode="&#xa;" horiz-adv-x="0" />
<glyph horiz-adv-x="0" />
<glyph unicode=" "  horiz-adv-x="569" />
<glyph unicode="&#x09;" horiz-adv-x="569" />
<glyph unicode="&#xa0;" horiz-adv-x="569" />
<glyph unicode="!" horiz-adv-x="569" d="M125 0v313h317v-313h-317zM131 1065v393h305v-389l-80 -625h-145z" />
<glyph unicode="&#x22;" horiz-adv-x="948" d="M184 1421h217l-36 -600h-142zM547 1421h217l-39 -600h-139z" />
<glyph unicode="#" d="M6 393v172h215l53 289h-180v174h213l76 393h209l-76 -393h223l76 393h209l-76 -393h182v-174h-215l-53 -289h180v-172h-213l-75 -393h-209l76 393h-226l-73 -393h-209l75 393h-182zM430 565h223l54 289h-224z" />
<glyph unicode="$" d="M-12 444l2 13h291v-19q0 -234 231 -252v437q-103 17 -177 43q-83 29 -151 71q-73 45 -112 121t-39 178q0 202 134 306q133 103 345 118v156h111v-156q220 -5 345 -110q126 -106 126 -287v-29h-273v15q0 181 -198 204v-395l12 -2q99 -16 186 -44q79 -26 158 -77 q76 -49 118 -130t42 -187q0 -200 -143 -325q-141 -123 -373 -128v-172h-111v172q-232 5 -378 128q-146 124 -146 351zM303 1069q0 -38 13 -67q12 -27 29 -47q13 -16 50 -32q39 -17 54 -22q18 -6 63 -18v368q-100 -5 -154 -53q-55 -49 -55 -129zM623 184q100 1 164 61 q63 59 63 150q0 158 -227 203v-414z" />
<glyph unicode="%" horiz-adv-x="2048" d="M160 1049q0 189 90 293t254 104q166 0 254 -99q88 -98 88 -288q0 -200 -88 -304q-89 -106 -252 -106q-168 0 -257 104t-89 296zM369 1038q0 -128 30 -185q29 -56 101 -56t103 61q32 62 32 201q0 47 -3 79q-3 31 -15 73q-13 45 -40 64q-30 21 -75 21q-133 0 -133 -258z M522 -55l807 1530h180l-804 -1530h-183zM1212 371q0 189 91 294q90 103 253 103q166 0 254 -99q89 -100 89 -288q0 -198 -89 -304t-251 -106q-168 0 -257 104q-90 105 -90 296zM1421 360q0 -126 31 -185q29 -56 100 -56q73 0 104 61q32 62 32 201q0 37 -4 79q-3 36 -14 73 q-13 44 -41 64q-30 21 -75 21q-133 0 -133 -258z" />
<glyph unicode="&#x26;" horiz-adv-x="1402" d="M70 399q0 145 92 257q93 113 237 175q-137 167 -137 304q0 148 112 245t281 97q164 0 272 -99q107 -98 107 -248q0 -233 -254 -368l189 -230q35 63 53 173h250q-24 -217 -139 -359l297 -346h-355l-121 143q-162 -174 -407 -174q-200 0 -339 116q-138 116 -138 314z M352 408q0 -82 61 -140q60 -57 146 -57q130 0 242 127l-252 305q-197 -101 -197 -235zM520 1145q0 -81 117 -211q83 50 117 96t34 107q0 60 -37 97q-38 38 -96 38t-96 -37q-39 -37 -39 -90z" />
<glyph unicode="'" horiz-adv-x="569" d="M174 1421h221l-43 -600h-135z" />
<glyph unicode="(" horiz-adv-x="606" d="M109 543q0 249 68 496q69 251 200 442h241q-119 -238 -173 -455q-54 -218 -54 -477q0 -448 232 -914h-246q-127 191 -198 433q-70 238 -70 475z" />
<glyph unicode=")" horiz-adv-x="606" d="M-8 1481h241q273 -419 273 -912q0 -231 -72 -499q-72 -270 -196 -435h-244q122 248 175 462q52 209 52 476q0 498 -229 908z" />
<glyph unicode="*" horiz-adv-x="833" d="M45 1155l53 158l238 -90l-6 256h172l-8 -256l237 90l60 -158l-242 -80l149 -201l-135 -100l-149 211l-146 -211l-137 100l152 201z" />
<glyph unicode="+" horiz-adv-x="1228" d="M82 428v207h422v428h221v-428h422v-207h-422v-428h-221v428h-422z" />
<glyph unicode="," horiz-adv-x="569" d="M123 0v319h323v-260q0 -179 -78 -275q-79 -97 -245 -124v143q137 41 145 197h-145z" />
<glyph unicode="-" horiz-adv-x="833" d="M109 428v260h616v-260h-616z" />
<glyph unicode="." horiz-adv-x="569" d="M123 0v319h323v-319h-323z" />
<glyph unicode="/" horiz-adv-x="759" d="M-27 -35l559 1528h250l-557 -1528h-252z" />
<glyph unicode="0" d="M43 707q0 137 27 259t84 233q57 112 164 177q108 66 253 66q119 0 212 -45q95 -46 151 -117q59 -74 95 -170q37 -97 52 -197q15 -99 15 -206q0 -341 -140 -537q-140 -195 -383 -195q-249 0 -390 194q-140 192 -140 538zM330 692q0 -481 241 -481q238 0 238 496 q0 255 -57 375t-183 120q-57 0 -100 -24t-69 -73q-26 -50 -41 -92q-15 -43 -21 -115q-5 -60 -7 -107q-1 -25 -1 -99z" />
<glyph unicode="1" d="M154 932v215h36q325 0 381 287h240v-1434h-309v932h-348z" />
<glyph unicode="2" d="M31 0q2 98 25 177q23 78 56 136q32 56 97 117q58 54 116 98q37 28 146 103q12 7 66 43q55 36 73 49q29 21 62 50q39 35 58 63q18 27 34 66t16 83q0 95 -56 151t-149 56q-221 0 -233 -311h-279v30q0 243 142 388t381 145q216 0 352 -122q135 -122 135 -316 q0 -158 -72 -252q-71 -93 -225 -199q-11 -8 -76 -50q-48 -31 -87 -59q-24 -17 -76 -57q-49 -37 -78 -68q-35 -36 -56 -69h678v-252h-1050z" />
<glyph unicode="3" d="M29 473v21h280q1 -133 65 -204q63 -71 179 -71q105 0 172 61q66 60 66 156q0 113 -73 163t-188 50q-33 0 -71 -2v205q30 -2 49 -2q250 0 250 180q0 81 -55 131q-53 49 -144 49q-102 0 -159 -63q-56 -62 -58 -182h-276q7 222 139 351q131 128 356 128q212 0 345 -110 q132 -109 132 -283q0 -105 -54 -182t-146 -101q118 -28 186 -116t68 -214q0 -204 -149 -335q-148 -130 -384 -130q-242 0 -387 136q-143 134 -143 364z" />
<glyph unicode="4" d="M27 330v268l622 840h262v-867h193v-241h-193v-330h-270v330h-614zM260 571h381v533z" />
<glyph unicode="5" d="M23 424h286q11 -94 75 -153q64 -58 161 -58q109 0 178 77q70 78 70 197q0 120 -68 193q-67 72 -182 72q-137 0 -215 -119h-260l139 788h801v-247h-588l-55 -312q101 101 264 101q207 0 332 -129q124 -128 124 -340q0 -226 -151 -371q-152 -146 -389 -146q-225 0 -368 116 q-142 115 -154 331z" />
<glyph unicode="6" d="M49 686q0 355 150 556q151 202 409 202q195 0 317 -101q121 -100 148 -282h-276q-41 162 -193 162q-239 0 -272 -426q118 161 319 161q197 0 323 -133t126 -340q1 -222 -143 -366t-367 -144q-253 0 -397 188q-144 187 -144 523zM358 475q0 -115 64 -190q63 -74 164 -74 q100 0 166 76q65 75 65 190q0 116 -65 190t-168 74q-100 0 -162 -75q-64 -78 -64 -191z" />
<glyph unicode="7" d="M76 1159v262h979v-239q-237 -259 -345 -536q-107 -273 -128 -646h-301q0 260 146 613q147 355 333 546h-684z" />
<glyph unicode="8" d="M31 412q0 134 71 226q73 94 197 124q-103 35 -157 111q-54 77 -54 186q0 167 137 277t344 110q208 0 345 -110t137 -277q0 -228 -209 -297q123 -30 196 -124q72 -93 72 -226q0 -197 -148 -317t-393 -120q-244 0 -391 120t-147 317zM322 430q0 -105 68 -169t179 -64 q113 0 182 63q68 62 68 168q0 103 -70 166q-71 63 -186 63q-107 0 -174 -63t-67 -164zM354 1040q0 -88 60 -140q59 -52 157 -52q101 0 159 52t58 140q0 89 -58 138t-161 49q-95 0 -155 -51t-60 -136z" />
<glyph unicode="9" d="M35 934q0 218 147 365t369 147q141 0 251 -61q107 -59 167 -162q59 -100 88 -222q28 -116 28 -253q0 -142 -28 -269t-89 -246q-59 -116 -173 -187q-113 -71 -263 -71q-196 0 -323 105q-128 105 -150 280h277q34 -163 196 -163q75 0 128 41q52 40 79 114q27 73 39 134 q13 67 19 141q-117 -166 -308 -166q-199 0 -326 133q-128 134 -128 340zM319 944q0 -113 64 -188q63 -74 164 -74q98 0 163 74q64 73 64 186t-65 188q-66 76 -164 76q-97 0 -161 -74q-65 -76 -65 -188z" />
<glyph unicode=":" horiz-adv-x="569" d="M123 0v319h323v-319h-323zM123 723v319h323v-319h-323z" />
<glyph unicode=";" horiz-adv-x="569" d="M121 723v319h323v-319h-323zM125 0v319h324v-260q0 -178 -79 -275t-245 -124v143q137 41 145 197h-145z" />
<glyph unicode="&#x3c;" horiz-adv-x="1228" d="M82 424v215l1065 410v-250l-741 -267l741 -266v-254z" />
<glyph unicode="=" horiz-adv-x="1228" d="M82 203v229h1065v-229h-1065zM82 631v229h1065v-229h-1065z" />
<glyph unicode="&#x3e;" horiz-adv-x="1228" d="M82 12v254l741 266l-741 267v250l1065 -410v-215z" />
<glyph unicode="?" d="M63 987q15 235 146 369q130 133 371 133q218 0 352 -116q133 -115 133 -304q0 -119 -60 -205t-171 -162q-90 -62 -117 -109q-27 -48 -27 -155h-272q0 147 23 220q25 78 118 157q17 15 51 41q39 30 56 47q20 20 41 45q22 26 34 60q11 31 11 67q0 73 -49 119 q-48 45 -128 45q-205 0 -213 -252h-299zM393 0v313h318v-313h-318z" />
<glyph unicode="@" horiz-adv-x="1638" d="M61 709q0 331 238 558q236 226 586 226q305 0 498 -172q194 -173 194 -442q0 -213 -127 -376t-295 -163q-81 0 -127 40q-47 41 -47 109q0 26 4 41q-99 -190 -283 -190q-124 0 -201 87q-77 88 -77 226q0 199 124 347q125 149 288 149q168 0 231 -139l29 106h174l-133 -457 q-21 -74 -21 -110q0 -82 84 -82q100 0 181 131q81 130 81 291q0 221 -159 359t-416 138q-307 0 -508 -194q-203 -195 -203 -490q0 -278 192 -455t492 -177q292 0 561 196l60 -82q-158 -116 -307 -168q-147 -51 -320 -51q-341 0 -561 203q-232 214 -232 541zM629 643 q0 -84 34 -130t95 -46q72 0 132 82q60 83 87 177q27 95 27 163q0 60 -34 97q-35 38 -91 38q-107 0 -179 -133q-71 -132 -71 -248z" />
<glyph unicode="A" horiz-adv-x="1402" d="M-18 0l555 1460h329l555 -1460h-336l-114 326h-543l-119 -326h-327zM506 559h387l-193 543z" />
<glyph unicode="B" horiz-adv-x="1441" d="M139 0v1458h690q205 0 335 -91t130 -275q0 -102 -53 -182q-51 -77 -145 -119q266 -77 266 -357q0 -206 -139 -320t-355 -114h-729zM451 254h321q125 0 198 41q72 41 72 158q0 118 -76 158t-210 40h-305v-397zM451 868h290q242 0 242 170q0 102 -65 137q-64 35 -177 35 h-290v-342z" />
<glyph unicode="C" horiz-adv-x="1517" d="M86 731q0 326 196 545q195 217 521 217q261 0 436 -147q177 -148 195 -375h-314q-24 121 -109 187q-87 67 -214 67q-133 0 -225 -75q-90 -74 -128 -183q-36 -104 -36 -238q0 -227 104 -359q105 -134 281 -134q293 0 333 327h318q-24 -273 -193 -436q-168 -162 -460 -162 q-317 0 -511 210q-194 211 -194 556z" />
<glyph unicode="D" horiz-adv-x="1517" d="M143 0v1458h590q341 0 523 -188q184 -190 184 -541t-184 -541q-182 -188 -523 -188h-590zM461 266h233q424 0 424 463q0 223 -105 343t-319 120h-233v-926z" />
<glyph unicode="E" horiz-adv-x="1327" d="M141 0v1458h1094v-262h-776v-317h712v-252h-712v-359h790v-268h-1108z" />
<glyph unicode="F" horiz-adv-x="1214" d="M141 0v1458h1028v-268h-708v-338h616v-254h-616v-598h-320z" />
<glyph unicode="G" horiz-adv-x="1554" d="M82 723q0 337 201 552q201 214 516 214q251 0 422 -140t200 -370h-309q-23 116 -106 178q-85 64 -211 64q-182 0 -287 -132t-105 -366q0 -237 106 -370q105 -132 296 -132q151 0 246 91q96 91 102 239h-326v237h613v-788h-203l-31 166q-164 -201 -438 -201 q-306 0 -496 211t-190 547z" />
<glyph unicode="H" horiz-adv-x="1517" d="M141 0v1458h320v-549h596v549h319v-1458h-319v629h-596v-629h-320z" />
<glyph unicode="I" horiz-adv-x="604" d="M141 0v1458h322v-1458h-322z" />
<glyph unicode="J" d="M53 449v96h295v-45q0 -65 1 -83q2 -32 10 -72q9 -43 28 -65q18 -21 54 -39t89 -18q56 0 94 19q35 18 52 56q15 34 20 75q4 33 4 94v991h320v-1001q0 -492 -479 -492q-233 0 -360 121q-128 122 -128 363z" />
<glyph unicode="K" horiz-adv-x="1478" d="M145 0v1458h316v-606l573 606h404l-572 -575l625 -883h-401l-443 655l-186 -184v-471h-316z" />
<glyph unicode="L" horiz-adv-x="1214" d="M141 0v1458h320v-1184h713v-274h-1033z" />
<glyph unicode="M" horiz-adv-x="1857" d="M141 0v1458h457l340 -1001l332 1001h446v-1458h-301v1036l-358 -1036h-248l-363 1026v-1026h-305z" />
<glyph unicode="N" horiz-adv-x="1517" d="M141 0v1458h326l600 -977v977h307v-1458h-319l-604 979v-979h-310z" />
<glyph unicode="O" horiz-adv-x="1593" d="M78 727q0 347 197 556q198 210 526 210q319 0 517 -212q198 -211 198 -554q0 -342 -198 -552t-519 -210q-325 0 -523 210t-198 552zM401 733q0 -234 107 -368q107 -135 293 -136q180 0 286 136q105 135 105 368q0 230 -107 364t-288 134q-180 0 -288 -135t-108 -363z" />
<glyph unicode="P" horiz-adv-x="1366" d="M143 0v1458h629q247 0 390 -118q145 -119 145 -351q0 -229 -144 -347q-143 -118 -375 -118h-327v-524h-318zM461 776h284q250 0 250 209q0 211 -247 211h-287v-420z" />
<glyph unicode="Q" horiz-adv-x="1593" d="M78 725q0 336 202 552q201 214 521 214q314 0 512 -212q198 -211 198 -546q0 -169 -51 -313t-145 -232l188 -172l-149 -161l-215 194q-131 -84 -353 -84q-318 0 -513 209t-195 551zM399 727q0 -232 107 -369t287 -137q72 0 139 29l-146 127l150 160l158 -144 q98 116 98 338q0 229 -107 363q-106 133 -290 133q-180 0 -288 -135t-108 -365z" />
<glyph unicode="R" horiz-adv-x="1478" d="M154 0v1458h725q217 0 354 -102t137 -312q0 -128 -61 -222q-62 -96 -170 -136q188 -39 215 -340q0 -16 4 -63q6 -72 8 -85q2 -12 5 -38t5 -39q6 -43 19 -76q12 -31 28 -45h-331q-18 36 -25 83q-8 56 -14 129q-6 80 -6 87q-16 152 -77 213q-59 59 -214 59h-285v-571h-317z M471 803h303q133 0 208 42t75 165q0 114 -73 155t-196 41h-317v-403z" />
<glyph unicode="S" horiz-adv-x="1329" d="M45 487h317q7 -274 330 -274q127 0 198 52q73 53 73 143q0 75 -67 110q-65 34 -280 96q-4 0 -18 4q-2 0 -7 2.5t-9 3.5q-14 4 -19 5q-19 5 -42.5 11.5t-37.5 10.5t-22 7q-12 4 -91 32q-60 21 -91 41t-71 51q-44 34 -61 69q-18 37 -33 88q-16 56 -16 114q0 198 154 317 t407 119q245 0 402 -116q156 -115 160 -349h-303q-18 217 -277 217q-109 0 -173 -44q-62 -43 -62 -122q0 -25 8 -47q7 -20 30 -38q15 -12 45 -28q19 -10 67 -25q36 -11 80 -24q18 -5 101 -26q73 -18 115 -31q214 -61 320 -154q106 -92 106 -264q0 -125 -51 -218t-138 -147 q-88 -55 -191 -80q-106 -26 -220 -26q-298 0 -464 136q-168 137 -169 384z" />
<glyph unicode="T" horiz-adv-x="1251" d="M27 1186v272h1198v-272h-439v-1186h-321v1186h-438z" />
<glyph unicode="U" horiz-adv-x="1517" d="M133 586v872h320v-872q0 -179 67 -264q68 -86 246 -86q171 0 234 86t63 264v872h319v-876q0 -314 -150 -462q-151 -149 -470 -149q-322 0 -476 151q-153 150 -153 464z" />
<glyph unicode="V" horiz-adv-x="1290" d="M-16 1458h333l328 -1024l332 1024h332l-486 -1458h-362z" />
<glyph unicode="W" horiz-adv-x="1933" d="M6 1458h322l233 -991l256 991h301l252 -1003l242 1003h315l-393 -1458h-320l-249 995l-246 -995h-326z" />
<glyph unicode="X" horiz-adv-x="1366" d="M-14 0l514 762l-475 696h372l291 -469l293 469h352l-469 -696l512 -762h-383l-319 506l-324 -506h-364z" />
<glyph unicode="Y" horiz-adv-x="1366" d="M-18 1458h364l340 -584l344 584h354l-542 -897v-561h-316v567z" />
<glyph unicode="Z" horiz-adv-x="1327" d="M41 0v260l784 926h-729v272h1153v-244l-790 -940h817v-274h-1235z" />
<glyph unicode="[" horiz-adv-x="681" d="M143 -352v1820h531v-223h-262v-1374h262v-223h-531z" />
<glyph unicode="\" horiz-adv-x="759" d="M-18 1493h249l560 -1528h-252z" />
<glyph unicode="]" horiz-adv-x="681" d="M8 -129h262v1374h-262v223h531v-1820h-531v223z" />
<glyph unicode="^" horiz-adv-x="1228" d="M137 549l361 872h233l361 -872h-244l-240 590l-227 -590h-244z" />
<glyph unicode="_" horiz-adv-x="1024" d="M0 -154h1024v-102h-1024v102z" />
<glyph unicode="`" horiz-adv-x="530" d="M-98 1479h325l193 -293h-207z" />
<glyph unicode="a" horiz-adv-x="1175" d="M59 289q0 68 18 119q19 54 57 86q42 36 76 57q35 22 99 37q26 6 103 21q51 10 108 16q155 21 206 43q52 22 52 84q0 141 -190 141q-102 0 -148 -36t-61 -126h-273q24 356 490 356q461 0 461 -344v-456q0 -203 37 -287h-295q-15 40 -21 102q-133 -133 -342 -133 q-176 0 -276 85q-101 86 -101 235zM358 301q0 -66 42 -103q43 -38 118 -38q119 0 188 62q70 63 70 173v119q-53 -31 -205 -55q-129 -21 -168 -51q-45 -39 -45 -107z" />
<glyph unicode="b" horiz-adv-x="1251" d="M109 0v1458h288v-530q123 153 334 153t332 -153q121 -152 121 -389q0 -256 -130 -411q-131 -157 -339 -157q-219 0 -332 162l2 -133h-276zM387 535q0 -153 68 -242q67 -88 186 -88q112 0 181 90t69 242q0 145 -69 233t-181 88q-116 0 -185 -87t-69 -236z" />
<glyph unicode="c" horiz-adv-x="1175" d="M74 520q0 257 148 412t394 155q213 0 345 -107q133 -108 151 -292h-285q-33 182 -209 182q-119 0 -185 -91t-66 -253q0 -158 64 -244q65 -87 181 -87q192 0 226 213h280q-27 -206 -161 -320q-135 -115 -345 -115q-244 0 -391 150t-147 397z" />
<glyph unicode="d" horiz-adv-x="1251" d="M68 532q0 250 126 402q126 151 336 151q98 0 186 -41q87 -40 136 -118v532h289v-1458h-275v135q-105 -164 -319 -164q-219 0 -349 153q-130 152 -130 408zM360 532q0 -152 67 -240q66 -87 183 -87q121 0 187 85q65 84 65 240q0 154 -66 240t-186 86q-118 0 -184 -86 t-66 -238z" />
<glyph unicode="e" horiz-adv-x="1175" d="M68 522q0 248 149 406q150 159 381 159q241 0 381 -162q141 -163 141 -442v-28h-758q1 -136 67 -209q65 -72 181 -72q153 0 215 154h279q-50 -171 -181 -265t-315 -94q-243 0 -392 152q-148 151 -148 401zM362 639h463q-11 106 -67 171q-58 67 -160 67q-96 0 -160 -64 t-76 -174z" />
<glyph unicode="f" horiz-adv-x="681" d="M0 860v197h172v55q0 186 84 269q85 83 279 83q31 0 48 -1q23 -1 56 -3q40 -2 47 -2v-213q-80 4 -96 4q-79 0 -104 -21t-25 -87v-84h207v-197h-205v-860h-291v860h-172z" />
<glyph unicode="g" horiz-adv-x="1251" d="M72 551q0 242 127 388t336 146q114 0 183 -39q71 -40 132 -131v142h274v-946q0 -261 -129 -382q-130 -122 -391 -122q-452 0 -495 330h288q17 -72 68 -104q52 -32 145 -32q138 0 185 67q48 67 49 208l2 119q-119 -164 -324 -164q-206 0 -328 141q-122 142 -122 379z M358 553q0 -138 67 -222q66 -83 179 -83q112 0 178 84t66 227q0 141 -66 221t-180 80q-115 0 -179 -81q-65 -82 -65 -226z" />
<glyph unicode="h" horiz-adv-x="1214" d="M113 0v1458h286v-543q125 168 334 168q371 0 371 -391v-692h-291v623q0 108 -39 165q-40 58 -147 58q-132 0 -180 -84t-48 -223v-539h-286z" />
<glyph unicode="i" horiz-adv-x="528" d="M119 0v1057h291v-1057h-291zM119 1212v246h291v-246h-291z" />
<glyph unicode="j" horiz-adv-x="569" d="M-39 -145q32 -2 53 -2q44 0 71 8q26 8 38 30q12 23 14 46q2 30 2 69v1051h291v-1059q0 -209 -75 -295t-277 -86q-64 0 -117 4v234zM139 1208v250h291v-250h-291z" />
<glyph unicode="k" horiz-adv-x="1175" d="M137 0v1458h285v-780l373 379h342l-398 -391l445 -666h-353l-290 469l-119 -111v-358h-285z" />
<glyph unicode="l" horiz-adv-x="528" d="M119 0v1458h291v-1458h-291z" />
<glyph unicode="m" horiz-adv-x="1855" d="M121 0v1057h276v-146q125 174 336 174q219 0 299 -174q128 174 346 174q176 0 268 -101q93 -102 93 -273v-711h-295v631q0 104 -33 161q-32 56 -135 56q-203 0 -203 -254v-594h-291v643q0 101 -32 153q-33 54 -127 54q-211 0 -211 -277v-573h-291z" />
<glyph unicode="n" horiz-adv-x="1214" d="M113 0v1057h276v-148q131 176 350 176q171 0 269 -98t98 -280v-707h-295v616q0 113 -37 171q-38 59 -143 59q-230 0 -230 -279v-567h-288z" />
<glyph unicode="o" horiz-adv-x="1251" d="M80 528q0 254 151 406q152 153 400 153q243 0 392 -153q148 -152 148 -406q0 -255 -148 -407q-149 -154 -396 -154t-398 154q-149 152 -149 407zM371 528q0 -163 67 -252q68 -90 189 -90t187 92q67 93 67 252t-69 247q-69 89 -189 89q-117 0 -185 -90q-67 -89 -67 -248z " />
<glyph unicode="p" horiz-adv-x="1251" d="M111 -375v1432h274v-131q114 159 328 159q213 0 342 -153t129 -410q0 -248 -126 -398q-127 -151 -333 -151q-213 0 -326 158v-506h-288zM389 526q0 -153 68 -239t186 -86q117 0 183 86q67 87 67 235q0 153 -68 242q-67 88 -184 88q-119 0 -185 -86q-67 -87 -67 -240z" />
<glyph unicode="q" horiz-adv-x="1251" d="M68 522q0 257 129 410t344 153q218 0 325 -159v131h277v-1432h-289v508q-118 -160 -326 -160q-210 0 -335 150q-125 151 -125 399zM360 520q0 -151 66 -235t184 -84q120 0 186 87t66 242q0 154 -67 239t-191 85q-112 0 -178 -89t-66 -245z" />
<glyph unicode="r" horiz-adv-x="796" d="M115 0v1057h276v-195q105 219 342 219q21 0 64 -6v-268q-62 12 -113 12q-144 0 -211 -91t-67 -245v-483h-291z" />
<glyph unicode="s" horiz-adv-x="1099" d="M59 344h277q15 -176 225 -176q87 0 140 36t53 95q0 60 -47 84t-175 53l-16 4q-19 6 -63 15q-49 11 -69 15q-8 2 -63 17q-44 12 -65 24q-17 9 -54 29q-34 18 -50 38q-16 21 -36 48q-19 27 -27 62q-7 32 -7 76q0 156 121 240q120 83 342 83q200 0 325 -81q128 -83 134 -256 h-271q-12 79 -60 112t-141 33q-75 0 -120 -28q-43 -27 -43 -76q0 -58 49 -80q48 -22 176 -49q7 -1 18 -3.5t15 -3.5q101 -21 117 -25q52 -14 108 -37q64 -26 98 -57t62 -85q26 -51 26 -123q0 -166 -129 -262q-130 -97 -354 -97q-214 0 -354 92t-142 283z" />
<glyph unicode="t" horiz-adv-x="720" d="M12 860v197h176v319h289v-319h215v-197h-215v-498q0 -40 2 -68q1 -18 15 -44q12 -23 37 -30q24 -7 73 -7q57 0 88 4v-221q-114 -8 -176 -8q-190 0 -259 66t-69 257v549h-176z" />
<glyph unicode="u" horiz-adv-x="1214" d="M113 346v711h293v-604q0 -56 5 -96q4 -34 21 -72q16 -37 54 -55q35 -17 98 -17q229 0 229 299v545h289v-1057h-277v150q-124 -181 -344 -181q-172 0 -271 96q-97 94 -97 281z" />
<glyph unicode="v" horiz-adv-x="1064" d="M10 1057h307l226 -721l225 721h289l-359 -1057h-325z" />
<glyph unicode="w" horiz-adv-x="1667" d="M10 1057h309l197 -719l178 719h281l184 -715l197 715h297l-334 -1057h-299l-189 711l-182 -711h-301z" />
<glyph unicode="x" horiz-adv-x="1099" d="M-4 0l385 557l-350 500h331l189 -283l186 283h322l-348 -494l391 -563h-332l-223 342l-221 -342h-330z" />
<glyph unicode="y" horiz-adv-x="1062" d="M-18 1057h313l242 -719l233 719h301l-389 -1053q-31 -86 -42 -112t-41 -89q-27 -56 -51 -79q-30 -28 -64 -52q-40 -28 -90 -39q-47 -10 -115 -10q-7 0 -195 2v240h141q73 0 110 37q38 38 38 104q0 15 -8 41z" />
<glyph unicode="z" horiz-adv-x="1062" d="M45 0v221l559 613h-516v223h893v-211l-557 -617h594v-229h-973z" />
<glyph unicode="{" horiz-adv-x="681" d="M-2 494v131q121 15 164 71t43 187v110q0 257 103 359q103 101 368 118v-131q-122 -12 -162 -74q-41 -64 -41 -208v-117q0 -176 -69 -267q-69 -92 -236 -114q173 -17 239 -114t66 -267v-119q0 -141 39 -204q40 -64 164 -76v-129q-264 12 -368 116q-103 103 -103 357v74 q0 162 -34 221q-34 60 -173 76z" />
<glyph unicode="|" horiz-adv-x="456" d="M104 -438v2048h248v-2048h-248z" />
<glyph unicode="}" horiz-adv-x="681" d="M-2 -221q124 12 164 76q39 63 39 204v119q0 170 66 267t239 114q-168 23 -237 114q-68 90 -68 267v117q0 144 -41 208q-40 62 -162 74v131q265 -17 368 -118q103 -102 103 -359v-110q0 -131 43 -187t164 -71v-131q-139 -16 -173 -76q-34 -59 -34 -221v-74 q0 -254 -103 -357q-104 -104 -368 -116v129z" />
<glyph unicode="~" horiz-adv-x="1228" d="M55 348q6 68 26 130q21 64 53 116q35 56 92 87q59 32 136 32q35 0 73 -7q31 -6 66 -16q25 -8 72 -24t66 -23q204 -68 256 -68q99 0 123 138h160q-40 -363 -314 -363q-43 0 -106 15q-83 20 -106 28q-8 3 -49 17.5t-72 25.5q-92 33 -99 35q-66 21 -92 21q-54 0 -85 -43 q-33 -45 -40 -101h-160z" />
<glyph d="M31 784l63 148h105q49 246 202 391q162 156 406 156q170 0 373 -103l-125 -256q-146 92 -269 92q-214 0 -286 -280h499l-63 -148h-459l-2 -86h436l-63 -147h-356q66 -324 303 -324q151 0 315 129l-2 -309q-136 -82 -315 -82q-260 0 -416 168q-143 149 -187 418h-157 l63 147h82v54q0 24 2 32h-149z" />
<glyph unicode="&#xa1;" horiz-adv-x="569" d="M125 772v315h321v-315h-321zM133 18l80 631h145l78 -631v-393h-303v393z" />
<glyph unicode="&#xa2;" d="M43 512q0 240 129 397t360 178v175h121v-175q178 0 314 -112q138 -113 145 -291h-285q-6 74 -55 126t-119 58v-678q73 12 126 79q52 65 52 147h285q-17 -194 -143 -311t-320 -134v-207h-121v207q-216 12 -353 166q-136 152 -136 375zM334 541q0 -288 198 -351v676 q-103 -27 -150 -116q-48 -90 -48 -209z" />
<glyph unicode="&#xa3;" d="M37 635v168h131q-88 124 -88 258q0 187 141 301q142 115 371 115q241 0 375 -128q133 -127 139 -368h-287q-5 254 -223 254q-87 0 -145 -53t-58 -135q0 -47 30 -121t60 -123h273v-168h-217q22 -75 22 -113q0 -88 -44 -155q-43 -65 -130 -140q95 43 184 43q60 0 144 -20 q98 -25 131 -25q111 0 188 86l123 -211q-127 -127 -330 -127q-88 0 -247 47q-118 33 -185 33q-103 0 -219 -82l-125 187q18 14 33 26q10 8 21 17.5t13 11.5l29 27l30 28q8 8 26 29t24 33q10 20 18 34q10 17 15 38l8 40q4 20 4 47q0 69 -34 146h-201z" />
<glyph unicode="&#xa4;" d="M66 354l135 135q-74 118 -74 244q0 129 74 244l-135 135l124 125l136 -135q115 74 243 74q118 0 246 -74l133 135l125 -125l-135 -135q74 -103 74 -246q0 -127 -74 -242l135 -135l-125 -125l-137 136q-112 -74 -240 -74q-134 0 -243 74l-138 -136zM356 733q0 -87 63 -150 t150 -63q88 0 151 63q62 62 62 150q0 89 -62 151t-151 62q-88 0 -150 -62q-63 -63 -63 -151z" />
<glyph unicode="&#xa5;" d="M-18 1462h333l271 -637l264 637h332l-318 -637h195v-194h-293l-31 -60v-94h324v-194h-324v-283h-311v283h-322v194h322v94l-29 60h-293v194h195z" />
<glyph unicode="&#xa6;" horiz-adv-x="456" d="M119 -182v512h219v-512h-219zM119 842v512h219v-512h-219z" />
<glyph unicode="&#xa7;" d="M23 639q0 109 58 185q59 77 161 110q-88 89 -88 207q0 153 120 248q122 96 312 96q189 0 307 -106q118 -105 119 -279h-258q-12 168 -170 168q-67 0 -110 -35q-42 -35 -42 -90q0 -13 2 -29q1 -11 9 -25q7 -12 14 -23q8 -12 23 -22q4 -3 10.5 -7.5t11 -7.5t8.5 -5 q25 -15 41 -24l24 -12t26 -14q14 -8 64 -33q15 -7 39.5 -20t34.5 -18q11 -6 63 -33t68 -34q15 -7 62 -35q44 -26 62 -43q12 -11 48 -47q31 -31 43 -58q14 -31 24 -63q11 -34 11 -78q0 -102 -57 -182q-58 -81 -156 -115q111 -101 111 -233q0 -162 -123 -264 q-122 -101 -320 -101q-208 0 -331 109q-121 108 -123 299h260q15 -183 194 -183q75 0 118 37q44 38 44 98q0 68 -68 117t-280 154q-182 89 -244 141q-122 100 -122 250zM274 666q0 -28 11 -52q11 -23 36 -41q33 -23 38 -26q42 -24 49 -27l348 -180q50 5 80 39q30 35 30 86 q0 56 -31 87q-32 32 -94 62l-356 187q-111 -33 -111 -135z" />
<glyph unicode="&#xa8;" horiz-adv-x="530" d="M-84 1225v239h277v-239h-277zM338 1225v239h276v-239h-276z" />
<glyph unicode="&#xa9;" horiz-adv-x="1638" d="M39 731q0 318 224 542t542 224q319 0 543 -224q225 -225 225 -542q0 -318 -224 -542t-542 -224q-319 0 -543 224q-225 225 -225 542zM172 731q0 -262 185 -447q186 -186 448 -186t448 186q187 187 187 447q0 261 -187 448q-185 185 -448 185t-448 -185t-185 -448z M397 731q0 200 115 329q114 128 295 128q157 0 265 -93q107 -93 118 -239h-189q-12 75 -60 119q-47 43 -122 43q-90 0 -141 -76t-51 -207q0 -133 54 -209q53 -75 150 -75q77 0 116 38q41 39 57 117h188q-16 -145 -118 -235t-251 -90q-183 0 -305 128q-121 127 -121 322z" />
<glyph unicode="&#xaa;" horiz-adv-x="704" d="M20 973q0 72 38 116q36 42 82 58q35 12 114 24q22 4 68 9q53 5 64 7q24 4 44 10q25 8 34 20t9 32q0 50 -32 65q-31 15 -91 15q-39 0 -67 -22t-33 -68h-209q33 223 319 223q308 0 308 -182v-340q0 -109 24 -154h-207q-13 42 -14 64q-76 -82 -221 -82q-102 0 -166 50 t-64 155zM229 977q0 -76 93 -76q149 0 149 154v41q-17 -14 -36 -19q-24 -7 -58 -11q-29 -3 -43 -7q-51 -12 -78 -30t-27 -52z" />
<glyph unicode="&#xab;" horiz-adv-x="909" d="M86 410v268l324 252v-242l-185 -141l185 -146v-249zM489 406v272l320 252v-246l-180 -141l180 -142v-247z" />
<glyph unicode="&#xac;" horiz-adv-x="1228" d="M82 631v229h1065v-657h-232v428h-833z" />
<glyph unicode="&#xad;" horiz-adv-x="833" d="M109 434v250h616v-250h-616z" />
<glyph unicode="&#xae;" horiz-adv-x="819" d="M27 1112q0 158 111 269q112 112 270 112q156 0 270 -112q113 -111 113 -269q0 -157 -113 -270t-270 -113q-159 0 -270 113q-111 112 -111 270zM92 1112q0 -131 92 -223t224 -92q131 0 223 92t92 223t-92 223t-223 92q-132 0 -224 -92t-92 -223zM248 901v424h151 q189 0 189 -125q0 -73 -78 -100q39 -16 55 -44q15 -28 17 -98q0 -34 10 -57h-98q-10 21 -11 60q-1 61 -19 79q-19 19 -75 19h-41v-158h-100zM348 1137h47q92 0 92 55t-92 55h-47v-110z" />
<glyph unicode="&#xaf;" horiz-adv-x="530" d="M-117 1268v153h764v-153h-764z" />
<glyph unicode="&#xb0;" horiz-adv-x="819" d="M76 1108q0 137 97 235q97 99 237 99q138 0 236 -99q97 -98 97 -235q0 -138 -97 -236t-236 -98q-140 0 -237 98t-97 236zM262 1108q0 -61 43 -104t105 -43q61 0 104 43t43 104q0 62 -43 105q-44 44 -104 44q-61 0 -105 -44q-43 -43 -43 -105z" />
<glyph unicode="&#xb1;" horiz-adv-x="1228" d="M82 -35v228h1065v-228h-1065zM82 553v227h412v318h241v-318h412v-227h-412v-311h-241v311h-412z" />
<glyph unicode="&#xb2;" horiz-adv-x="802" d="M55 559q0 78 21 138q22 63 66 110q48 52 86 78q55 38 114 76q2 1 10 6t18.5 11.5t21.5 13.5q39 25 55 37q18 14 43 37q25 24 37 49t12 56q0 55 -35 92q-34 35 -90 35q-79 0 -116 -60q-38 -61 -32 -132h-209q-2 164 93 260q94 96 278 96q136 0 228 -72t92 -204 q0 -88 -51 -158q-49 -68 -114 -102q-60 -32 -147 -89q-81 -53 -125 -114h428v-164h-684z" />
<glyph unicode="&#xb3;" horiz-adv-x="802" d="M45 868h197q4 -72 44 -117q40 -46 113 -46q65 0 107 36q43 37 43 93q0 39 -19 66q-18 25 -56 36t-64 12q-36 2 -74 2v144q36 0 64 2q22 2 59 9q35 7 54 29q17 20 17 56q0 49 -37 79q-36 29 -90 29q-63 0 -101 -42t-36 -105h-196q4 144 92 227q89 84 239 84q135 0 230 -65 q96 -66 96 -187q0 -62 -35 -111t-100 -65v-4q80 -15 122 -66q44 -53 44 -126q0 -142 -102 -220q-101 -77 -253 -77q-171 0 -266 85q-96 86 -92 242z" />
<glyph unicode="&#xb4;" horiz-adv-x="530" d="M111 1206l196 291h322l-316 -291h-202z" />
<glyph unicode="&#xb5;" horiz-adv-x="1214" d="M117 -375v1432h289v-422v-51v-58q0 -32 1 -57q2 -41 5 -57l10 -52q7 -33 16 -49q11 -20 26 -40q14 -19 36 -32q23 -13 48 -20q29 -8 60 -8q205 0 205 422v424h289v-1057h-260v147q-49 -80 -101 -123q-49 -40 -123 -40q-139 0 -227 116v-475h-274z" />
<glyph unicode="&#xb6;" horiz-adv-x="1269" d="M49 961q0 241 147 369q148 128 386 128h612v-166h-111v-1667h-202v1667h-222v-1667h-202v881q-189 12 -298 136q-110 125 -110 319z" />
<glyph unicode="&#xb7;" horiz-adv-x="569" d="M123 428v320h323v-320h-323z" />
<glyph unicode="&#xb8;" horiz-adv-x="530" d="M25 -399l43 98q84 -37 172 -37q82 0 82 70q0 65 -82 65q-47 0 -82 -14l-43 49l121 168h100l-80 -106l2 -5q34 15 72 15q76 0 132 -37t56 -107q0 -111 -68 -157q-70 -47 -171 -47q-131 0 -254 45z" />
<glyph unicode="&#xb9;" horiz-adv-x="802" d="M158 1120v154q104 -4 178 37q72 40 84 133h172v-885h-209v561h-225z" />
<glyph unicode="&#xba;" horiz-adv-x="751" d="M25 1114q0 159 95 254q94 94 255 94t256 -94q96 -94 96 -254t-95 -253q-94 -93 -257 -93q-161 0 -255 93q-95 93 -95 253zM244 1114q0 -76 34 -134t97 -58q65 0 99 58t34 134q0 78 -34 136q-35 59 -99 59q-62 0 -97 -59q-34 -58 -34 -136z" />
<glyph unicode="&#xbb;" horiz-adv-x="909" d="M100 158v239l183 144l-183 141v250l320 -254v-270zM500 154v241l186 144l-186 147v248l323 -258v-270z" />
<glyph unicode="&#xbc;" horiz-adv-x="1826" d="M49 1120v154q104 -4 178 37q72 40 84 133h172v-885h-209v561h-225zM311 -45l848 1524h174l-844 -1524h-178zM1018 182v191l385 487h205v-514h116v-164h-116v-182h-197v182h-393zM1174 346h237v295h-4z" />
<glyph unicode="&#xbd;" horiz-adv-x="1820" d="M49 1120v154q104 -4 178 37q72 40 84 133h172v-885h-209v561h-225zM311 -45l848 1524h174l-844 -1524h-178zM1040 0q0 78 21 138q22 63 66 110q48 52 86 78q41 28 114 75q4 2 10.5 6.5t18.5 12t21 13.5q45 29 56 37q18 14 43 37q23 22 36 49q12 25 12 56q0 54 -35 91 q-35 36 -90 36q-79 0 -116 -60q-38 -61 -32 -132h-209q-2 164 93 260t278 96q135 0 228 -73q92 -72 92 -203q0 -88 -51 -158q-50 -67 -114 -102q-60 -32 -147 -89q-81 -53 -125 -114h428v-164h-684z" />
<glyph unicode="&#xbe;" horiz-adv-x="1820" d="M80 868h196q4 -70 45 -117q40 -46 113 -46q65 0 107 36q43 37 43 93q0 39 -19 66q-18 25 -56 36q-37 10 -65 12q-36 2 -73 2v144q36 0 64 2q22 2 59 9q35 7 54 29q17 20 17 56q0 49 -38 79q-36 29 -89 29q-64 0 -101 -42t-36 -105h-197q4 143 93 227t239 84 q135 0 230 -65q96 -66 96 -187q0 -62 -35 -111t-100 -65v-4q80 -15 122 -66q44 -53 44 -126q0 -142 -102 -220q-101 -77 -253 -77q-171 0 -266 85q-96 86 -92 242zM489 -45l848 1524h174l-843 -1524h-179zM1059 182v191l385 487h205v-514h116v-164h-116v-182h-197v182h-393z M1214 346h238v295h-4z" />
<glyph unicode="&#xbf;" d="M66 -6q0 110 34 185q34 77 87 120q49 41 105 79q52 36 94 85q41 49 52 117v77h277v-92q-7 -98 -45 -170q-36 -69 -84 -111q-46 -40 -93 -75t-77 -80q-30 -46 -29 -106q0 -185 174 -185q101 0 154 75q53 76 53 191h301q-5 -224 -139 -364q-135 -141 -355 -141 q-137 0 -240 39q-104 39 -160 101q-56 61 -83 127q-26 62 -26 128zM422 772v315h321v-315h-321z" />
<glyph unicode="&#xc0;" horiz-adv-x="1402" d="M-14 0l555 1462h329l547 -1462h-334l-110 326h-547l-115 -326h-325zM328 1886h321l197 -291h-203zM510 565h379l-184 537h-5z" />
<glyph unicode="&#xc1;" horiz-adv-x="1402" d="M-14 0l555 1462h329l547 -1462h-334l-110 326h-547l-115 -326h-325zM510 565h379l-184 537h-5zM559 1595l197 291h321l-315 -291h-203z" />
<glyph unicode="&#xc2;" horiz-adv-x="1402" d="M-14 0l555 1462h329l547 -1462h-334l-110 326h-547l-115 -326h-325zM350 1595l228 291h266l225 -291h-240l-127 166l-131 -166h-221zM510 565h379l-184 537h-5z" />
<glyph unicode="&#xc3;" horiz-adv-x="1402" d="M-14 0l555 1462h329l547 -1462h-334l-110 326h-547l-115 -326h-325zM330 1616q12 98 75 173t164 77q61 0 148 -37q102 -35 133 -35q69 0 90 72h141q-23 -108 -69 -168t-160 -66q-70 0 -166 35q-107 35 -139 35q-68 0 -92 -86h-125zM510 565h379l-184 537h-5z" />
<glyph unicode="&#xc4;" horiz-adv-x="1402" d="M-14 0l555 1462h329l547 -1462h-334l-110 326h-547l-115 -326h-325zM358 1614v239h277v-239h-277zM510 565h379l-184 537h-5zM780 1614v239h277v-239h-277z" />
<glyph unicode="&#xc5;" horiz-adv-x="1402" d="M-14 0l555 1462h329l547 -1462h-334l-110 326h-547l-115 -326h-325zM455 1774q0 105 72 177t178 72q105 0 178 -72t73 -177t-73 -177q-72 -71 -178 -71q-107 0 -178 71q-72 72 -72 177zM510 565h379l-184 537h-5zM575 1774q0 -61 35 -101q34 -39 95 -39q59 0 95 39 t36 101q0 61 -36 100t-95 39q-61 0 -95 -39q-35 -40 -35 -100z" />
<glyph unicode="&#xc6;" horiz-adv-x="2009" d="M-23 0l699 1462h1241v-270h-680v-313h639v-250h-639v-359h696v-270h-1007v326h-459l-148 -326h-342zM573 565h353v627h-70z" />
<glyph unicode="&#xc7;" horiz-adv-x="1517" d="M78 725q0 335 194 553q195 219 525 219q249 0 425 -140q177 -141 205 -386h-311q-17 109 -108 182q-92 74 -211 74q-138 0 -230 -74q-93 -75 -130 -183q-38 -111 -38 -245q0 -205 99 -347t299 -142q143 0 228 88t103 239h312q-24 -273 -199 -436q-174 -162 -442 -162 l-54 -71l3 -5q34 15 71 15q76 0 132 -37q57 -37 57 -107q0 -110 -69 -157q-70 -47 -171 -47q-131 0 -254 45l43 98q84 -37 172 -37q82 0 82 70q0 65 -82 65q-47 0 -82 -14l-43 49l98 137q-110 12 -208 56q-197 86 -307 272q-109 185 -109 428z" />
<glyph unicode="&#xc8;" horiz-adv-x="1327" d="M141 0v1462h1094v-270h-772v-313h708v-250h-708v-359h788v-270h-1110zM334 1886h321l197 -291h-203z" />
<glyph unicode="&#xc9;" horiz-adv-x="1327" d="M141 0v1462h1094v-270h-772v-313h708v-250h-708v-359h788v-270h-1110zM571 1595l197 291h322l-316 -291h-203z" />
<glyph unicode="&#xca;" horiz-adv-x="1327" d="M141 0v1462h1094v-270h-772v-313h708v-250h-708v-359h788v-270h-1110zM322 1595l227 291h266l225 -291h-239l-127 166l-131 -166h-221z" />
<glyph unicode="&#xcb;" horiz-adv-x="1327" d="M141 0v1462h1094v-270h-772v-313h708v-250h-708v-359h788v-270h-1110zM346 1614v239h277v-239h-277zM768 1614v239h276v-239h-276z" />
<glyph unicode="&#xcc;" horiz-adv-x="604" d="M-55 1886h321l197 -291h-203zM141 0v1462h322v-1462h-322z" />
<glyph unicode="&#xcd;" horiz-adv-x="604" d="M139 1595l197 291h321l-315 -291h-203zM141 0v1462h322v-1462h-322z" />
<glyph unicode="&#xce;" horiz-adv-x="604" d="M-57 1595l227 291h266l226 -291h-240l-127 166l-131 -166h-221zM141 0v1462h322v-1462h-322z" />
<glyph unicode="&#xcf;" horiz-adv-x="604" d="M-49 1614v239h276v-239h-276zM141 0v1462h322v-1462h-322zM373 1614v239h276v-239h-276z" />
<glyph unicode="&#xd0;" horiz-adv-x="1517" d="M6 637v237h135v588h631q297 0 480 -186q184 -187 184 -537q0 -330 -170 -535q-170 -204 -494 -204h-631v637h-135zM463 270h287q155 0 260 107q104 105 104 332q0 235 -97 359t-325 124h-229v-318h328v-239h-328v-365z" />
<glyph unicode="&#xd1;" horiz-adv-x="1517" d="M141 0v1462h320l610 -981h4v981h301v-1462h-321l-609 979h-4v-979h-301zM391 1616q12 96 76 173q63 75 164 77q60 0 147 -37q102 -35 133 -35q69 0 90 72h142q-22 -106 -70 -168q-46 -60 -160 -66q-69 0 -165 35q-107 35 -140 35q-68 0 -92 -86h-125z" />
<glyph unicode="&#xd2;" horiz-adv-x="1593" d="M78 725q0 335 194 553q195 219 525 219q329 0 524 -219t195 -553q0 -325 -195 -543q-195 -217 -524 -217q-330 0 -525 217q-194 216 -194 543zM399 725q0 -205 99 -347t299 -142t299 142q98 141 98 347q0 134 -38 245q-37 108 -130 183q-92 74 -229 74q-138 0 -230 -74 q-93 -75 -130 -183q-38 -111 -38 -245zM408 1886h321l197 -291h-203z" />
<glyph unicode="&#xd3;" horiz-adv-x="1593" d="M78 725q0 335 194 553q195 219 525 219q329 0 524 -219t195 -553q0 -325 -195 -543q-195 -217 -524 -217q-330 0 -525 217q-194 216 -194 543zM399 725q0 -205 99 -347t299 -142t299 142q98 141 98 347q0 134 -38 245q-37 108 -130 183q-92 74 -229 74q-138 0 -230 -74 q-93 -75 -130 -183q-38 -111 -38 -245zM686 1595l197 291h321l-315 -291h-203z" />
<glyph unicode="&#xd4;" horiz-adv-x="1593" d="M78 725q0 335 194 553q195 219 525 219q329 0 524 -219t195 -553q0 -325 -195 -543q-195 -217 -524 -217q-330 0 -525 217q-194 216 -194 543zM399 725q0 -205 99 -347t299 -142t299 142q98 141 98 347q0 134 -38 245q-37 108 -130 183q-92 74 -229 74q-138 0 -230 -74 q-93 -75 -130 -183q-38 -111 -38 -245zM451 1595l227 291h266l225 -291h-239l-127 166l-131 -166h-221z" />
<glyph unicode="&#xd5;" horiz-adv-x="1593" d="M78 725q0 335 194 553q195 219 525 219q329 0 524 -219t195 -553q0 -325 -195 -543q-195 -217 -524 -217q-330 0 -525 217q-194 216 -194 543zM399 725q0 -205 99 -347t299 -142t299 142q98 141 98 347q0 134 -38 245q-37 108 -130 183q-92 74 -229 74q-138 0 -230 -74 q-93 -75 -130 -183q-38 -111 -38 -245zM422 1616q12 96 76 173q63 75 164 77q60 0 147 -37q102 -35 133 -35q69 0 90 72h141q-23 -108 -69 -168t-160 -66q-70 0 -166 35q-107 35 -139 35q-68 0 -92 -86h-125z" />
<glyph unicode="&#xd6;" horiz-adv-x="1593" d="M78 725q0 335 194 553q195 219 525 219q329 0 524 -219t195 -553q0 -325 -195 -543q-195 -217 -524 -217q-330 0 -525 217q-194 216 -194 543zM399 725q0 -205 99 -347t299 -142t299 142q98 141 98 347q0 134 -38 245q-37 108 -130 183q-92 74 -229 74q-138 0 -230 -74 q-93 -75 -130 -183q-38 -111 -38 -245zM442 1614v239h277v-239h-277zM864 1614v239h277v-239h-277z" />
<glyph unicode="&#xd7;" horiz-adv-x="1228" d="M131 190l330 328l-326 328l156 155l325 -327l328 327l156 -155l-330 -328l330 -328l-156 -155l-328 330l-329 -330z" />
<glyph unicode="&#xd8;" horiz-adv-x="1593" d="M70 20l176 195q-168 205 -168 510q0 335 194 553q195 219 525 219q275 0 460 -158l164 183l103 -90l-172 -191q164 -212 164 -516q0 -325 -195 -543q-195 -217 -524 -217q-271 0 -457 156l-170 -189zM399 725q0 -157 58 -276l606 673q-105 105 -266 105q-138 0 -230 -74 q-93 -75 -130 -183q-38 -111 -38 -245zM535 336q100 -100 262 -100q200 0 299 142q98 141 98 347q0 162 -55 279z" />
<glyph unicode="&#xd9;" horiz-adv-x="1517" d="M135 553v909h322v-909q0 -147 62 -231q63 -86 239 -86q168 0 235 74q68 76 68 243v909h321v-909q0 -292 -162 -439q-164 -149 -462 -149q-302 0 -462 147q-161 147 -161 441zM354 1886h322l196 -291h-202z" />
<glyph unicode="&#xda;" horiz-adv-x="1517" d="M135 553v909h322v-909q0 -147 62 -231q63 -86 239 -86q168 0 235 74q68 76 68 243v909h321v-909q0 -292 -162 -439q-164 -149 -462 -149q-302 0 -462 147q-161 147 -161 441zM645 1595l197 291h321l-315 -291h-203z" />
<glyph unicode="&#xdb;" horiz-adv-x="1517" d="M135 553v909h322v-909q0 -147 62 -231q63 -86 239 -86q168 0 235 74q68 76 68 243v909h321v-909q0 -292 -162 -439q-164 -149 -462 -149q-302 0 -462 147q-161 147 -161 441zM403 1595l228 291h266l225 -291h-239l-127 166l-131 -166h-222z" />
<glyph unicode="&#xdc;" horiz-adv-x="1517" d="M135 553v909h322v-909q0 -147 62 -231q63 -86 239 -86q168 0 235 74q68 76 68 243v909h321v-909q0 -292 -162 -439q-164 -149 -462 -149q-302 0 -462 147q-161 147 -161 441zM410 1614v239h276v-239h-276zM831 1614v239h277v-239h-277z" />
<glyph unicode="&#xdd;" horiz-adv-x="1366" d="M-18 1462h362l342 -577l340 577h358l-542 -901v-561h-322v569zM575 1595l197 291h322l-316 -291h-203z" />
<glyph unicode="&#xde;" horiz-adv-x="1366" d="M141 0v1462h322v-198h338q256 0 381 -136t125 -333q0 -198 -125 -334q-124 -135 -381 -135h-338v-326h-322zM463 575h250q130 0 207 47q75 46 75 173t-75 173q-76 46 -207 46h-250v-439z" />
<glyph unicode="&#xdf;" horiz-adv-x="1251" d="M115 0v1006q0 491 481 491q199 0 332 -100t133 -293q0 -98 -53 -178t-138 -107v-4q130 -27 198 -128q69 -102 69 -238q0 -196 -127 -336q-128 -142 -318 -142q-79 0 -168 13v237q31 -10 84 -10q102 0 170 72q68 73 68 176q0 115 -63 182q-63 68 -187 68q-28 0 -72 -4v192 q29 -4 45 -4q91 0 153 46t62 136q0 182 -196 182q-86 0 -134 -53q-48 -52 -48 -147v-1057h-291z" />
<glyph unicode="&#xe0;" horiz-adv-x="1175" d="M66 289q0 112 54 184t133 96q84 25 171 41q99 18 170 22q77 4 128 34q50 28 48 84q0 83 -49 113t-139 30q-178 0 -193 -160h-291q12 186 154 271q139 83 344 83q465 0 465 -301v-550q0 -177 37 -236h-295q-20 62 -21 102q-125 -131 -356 -131q-160 0 -260 81t-100 237z M262 1497h322l196 -291h-202zM356 301q0 -135 179 -135q235 0 235 244v108q-12 -11 -47 -25q-27 -11 -56 -16q-12 -2 -71 -10q-54 -7 -68 -10q-172 -30 -172 -156z" />
<glyph unicode="&#xe1;" horiz-adv-x="1175" d="M66 289q0 112 54 184t133 96q84 25 171 41q99 18 170 22q77 4 128 34q50 28 48 84q0 83 -49 113t-139 30q-178 0 -193 -160h-291q12 186 154 271q139 83 344 83q465 0 465 -301v-550q0 -177 37 -236h-295q-20 62 -21 102q-125 -131 -356 -131q-160 0 -260 81t-100 237z M356 301q0 -135 179 -135q235 0 235 244v108q-12 -11 -47 -25q-27 -11 -56 -16q-12 -2 -71 -10q-54 -7 -68 -10q-172 -30 -172 -156zM467 1206l197 291h321l-315 -291h-203z" />
<glyph unicode="&#xe2;" horiz-adv-x="1175" d="M66 289q0 112 54 184t133 96q84 25 171 41q99 18 170 22q77 4 128 34q50 28 48 84q0 83 -49 113t-139 30q-178 0 -193 -160h-291q12 186 154 271q139 83 344 83q465 0 465 -301v-550q0 -177 37 -236h-295q-20 62 -21 102q-125 -131 -356 -131q-160 0 -260 81t-100 237z M240 1206l227 291h266l225 -291h-239l-127 166l-131 -166h-221zM356 301q0 -135 179 -135q235 0 235 244v108q-12 -11 -47 -25q-27 -11 -56 -16q-12 -2 -71 -10q-54 -7 -68 -10q-172 -30 -172 -156z" />
<glyph unicode="&#xe3;" horiz-adv-x="1175" d="M66 289q0 112 54 184t133 96q84 25 171 41q99 18 170 22q77 4 128 34q50 28 48 84q0 83 -49 113t-139 30q-178 0 -193 -160h-291q12 186 154 271q139 83 344 83q465 0 465 -301v-550q0 -177 37 -236h-295q-20 62 -21 102q-125 -131 -356 -131q-160 0 -260 81t-100 237z M221 1227q12 96 76 173q63 75 164 77q60 0 147 -37q102 -35 133 -35q69 0 90 72h142q-22 -106 -70 -168q-46 -60 -160 -66q-69 0 -165 35q-107 35 -140 35q-68 0 -92 -86h-125zM356 301q0 -135 179 -135q235 0 235 244v108q-12 -11 -47 -25q-27 -11 -56 -16q-12 -2 -71 -10 q-54 -7 -68 -10q-172 -30 -172 -156z" />
<glyph unicode="&#xe4;" horiz-adv-x="1175" d="M66 289q0 112 54 184t133 96q84 25 171 41q99 18 170 22q77 4 128 34q50 28 48 84q0 83 -49 113t-139 30q-178 0 -193 -160h-291q12 186 154 271q139 83 344 83q465 0 465 -301v-550q0 -177 37 -236h-295q-20 62 -21 102q-125 -131 -356 -131q-160 0 -260 81t-100 237z M250 1225v239h276v-239h-276zM356 301q0 -135 179 -135q235 0 235 244v108q-12 -11 -47 -25q-27 -11 -56 -16q-12 -2 -71 -10q-54 -7 -68 -10q-172 -30 -172 -156zM672 1225v239h276v-239h-276z" />
<glyph unicode="&#xe5;" horiz-adv-x="1175" d="M66 289q0 112 54 184t133 96q84 25 171 41q99 18 170 22q77 4 128 34q50 28 48 84q0 83 -49 113t-139 30q-178 0 -193 -160h-291q12 186 154 271q139 83 344 83q465 0 465 -301v-550q0 -177 37 -236h-295q-20 62 -21 102q-125 -131 -356 -131q-160 0 -260 81t-100 237z M346 1401q0 104 73 177t177 73q103 0 178 -73q74 -72 74 -177q0 -104 -74 -176t-178 -72q-105 0 -177 72q-73 73 -73 176zM356 301q0 -135 179 -135q235 0 235 244v108q-12 -11 -47 -25q-27 -11 -56 -16q-12 -2 -71 -10q-54 -7 -68 -10q-172 -30 -172 -156zM467 1401 q0 -61 35 -101q34 -38 94 -38t95 38q36 39 36 101q0 61 -36 100t-95 39q-60 0 -94 -39q-35 -40 -35 -100z" />
<glyph unicode="&#xe6;" horiz-adv-x="1857" d="M78 287q0 87 28 147q29 62 85 96q60 37 111 52q51 16 130 28q245 38 270 47q84 33 86 101q0 135 -188 135q-195 0 -203 -164h-291q5 128 80 211q77 84 182 116q103 31 238 31q250 0 350 -143q122 143 355 143q168 0 281 -91q114 -91 160 -227q46 -135 46 -310h-756 q-4 -109 67 -202q70 -91 185 -91q183 0 211 166h283q-45 -168 -178 -264q-135 -97 -310 -97q-270 0 -395 181q-71 -94 -186 -137q-118 -44 -246 -44q-171 0 -283 76t-112 240zM369 303q0 -137 180 -137q94 0 166 56q73 57 73 163v131q-35 -27 -110 -42q-73 -14 -141 -22 q-67 -8 -117 -43q-51 -36 -51 -106zM1042 643h465q0 105 -60 177q-61 73 -167 73t-172 -74q-66 -73 -66 -176z" />
<glyph unicode="&#xe7;" horiz-adv-x="1175" d="M78 514q0 255 144 414t396 159q203 0 344 -104q142 -105 154 -297h-285q-28 182 -215 182q-127 0 -187 -103t-60 -241q0 -136 58 -234q59 -100 183 -100q202 0 232 216h280q-27 -210 -164 -324q-130 -104 -317 -111l-57 -77l2 -5q34 15 71 15q77 0 133 -37t56 -107 q0 -110 -69 -157q-70 -47 -171 -47q-131 0 -254 45l43 98q84 -37 172 -37q82 0 82 70q0 65 -82 65q-47 0 -82 -14l-43 49l103 143q-87 10 -152 35q-147 60 -231 194t-84 310z" />
<glyph unicode="&#xe8;" horiz-adv-x="1175" d="M59 528q0 241 151 401q149 158 390 158q259 0 395 -184q137 -185 119 -444h-764q12 -269 260 -269q84 0 150 42q64 41 80 96h256q-117 -357 -496 -357q-247 0 -394 155q-147 154 -147 402zM213 1497h322l196 -291h-203zM350 643h473q-21 116 -74 170q-54 55 -157 55 q-125 0 -180 -70q-56 -71 -62 -155z" />
<glyph unicode="&#xe9;" horiz-adv-x="1175" d="M59 528q0 241 151 401q149 158 390 158q259 0 395 -184q137 -185 119 -444h-764q12 -269 260 -269q84 0 150 42q64 41 80 96h256q-117 -357 -496 -357q-247 0 -394 155q-147 154 -147 402zM350 643h473q-21 116 -74 170q-54 55 -157 55q-125 0 -180 -70q-56 -71 -62 -155 zM489 1206l197 291h322l-316 -291h-203z" />
<glyph unicode="&#xea;" horiz-adv-x="1175" d="M59 528q0 241 151 401q149 158 390 158q259 0 395 -184q137 -185 119 -444h-764q12 -269 260 -269q84 0 150 42q64 41 80 96h256q-117 -357 -496 -357q-247 0 -394 155q-147 154 -147 402zM242 1206l227 291h266l226 -291h-240l-127 166l-131 -166h-221zM350 643h473 q-21 116 -74 170q-54 55 -157 55q-125 0 -180 -70q-56 -71 -62 -155z" />
<glyph unicode="&#xeb;" horiz-adv-x="1175" d="M59 528q0 241 151 401q149 158 390 158q259 0 395 -184q137 -185 119 -444h-764q12 -269 260 -269q84 0 150 42q64 41 80 96h256q-117 -357 -496 -357q-247 0 -394 155q-147 154 -147 402zM250 1225v239h276v-239h-276zM350 643h473q-21 116 -74 170q-54 55 -157 55 q-125 0 -180 -70q-56 -71 -62 -155zM672 1225v239h276v-239h-276z" />
<glyph unicode="&#xec;" horiz-adv-x="528" d="M-109 1497h322l197 -291h-203zM119 0v1059h291v-1059h-291z" />
<glyph unicode="&#xed;" horiz-adv-x="528" d="M119 0v1059h291v-1059h-291zM119 1206l196 291h322l-315 -291h-203z" />
<glyph unicode="&#xee;" horiz-adv-x="528" d="M-90 1206l227 291h266l226 -291h-240l-127 166l-131 -166h-221zM119 0v1059h291v-1059h-291z" />
<glyph unicode="&#xef;" horiz-adv-x="528" d="M-84 1225v239h277v-239h-277zM119 0v1059h291v-1059h-291zM338 1225v239h276v-239h-276z" />
<glyph unicode="&#xf0;" horiz-adv-x="1251" d="M78 506q0 134 47 251q46 114 158 197q110 82 266 82q155 0 276 -82h4q-53 124 -208 260l-230 -114l-119 114l220 111q-71 53 -173 102l189 142q113 -62 203 -135l252 127l106 -121l-233 -117q172 -166 257 -350q85 -185 81 -414q0 -254 -151 -422q-150 -166 -398 -166 q-247 0 -397 150t-150 385zM369 528q0 -145 60 -241q61 -97 196 -97q136 0 197 97q61 98 61 241q0 130 -65 222t-195 92q-131 0 -193 -92q-61 -91 -61 -222z" />
<glyph unicode="&#xf1;" horiz-adv-x="1214" d="M111 0v1059h276v-148h6q52 85 141 131q87 45 183 45q220 0 303 -110q84 -111 84 -326v-651h-291v598q0 135 -43 197q-44 63 -143 63q-119 0 -172 -72q-54 -74 -54 -231v-555h-290zM233 1227q12 96 76 173q63 75 164 77q61 0 148 -37q102 -35 133 -35q69 0 90 72h141 q-22 -106 -70 -168q-47 -60 -159 -66q-70 0 -166 35q-107 35 -139 35q-69 0 -93 -86h-125z" />
<glyph unicode="&#xf2;" horiz-adv-x="1251" d="M78 528q0 255 149 407t398 152q250 0 399 -152q150 -153 150 -407q0 -251 -150 -404t-399 -153q-248 0 -398 153q-149 152 -149 404zM215 1497h322l196 -291h-203zM369 528q0 -145 60 -241q61 -97 196 -97q136 0 197 97q61 98 61 241q0 144 -61 243q-60 97 -197 97 q-136 0 -196 -97t-60 -243z" />
<glyph unicode="&#xf3;" horiz-adv-x="1251" d="M78 528q0 255 149 407t398 152q250 0 399 -152q150 -153 150 -407q0 -251 -150 -404t-399 -153q-248 0 -398 153q-149 152 -149 404zM369 528q0 -145 60 -241q61 -97 196 -97q136 0 197 97q61 98 61 241q0 144 -61 243q-60 97 -197 97q-136 0 -196 -97t-60 -243z M514 1206l197 291h321l-315 -291h-203z" />
<glyph unicode="&#xf4;" horiz-adv-x="1251" d="M78 528q0 255 149 407t398 152q250 0 399 -152q150 -153 150 -407q0 -251 -150 -404t-399 -153q-248 0 -398 153q-149 152 -149 404zM270 1206l228 291h266l225 -291h-239l-127 166l-131 -166h-222zM369 528q0 -145 60 -241q61 -97 196 -97q136 0 197 97q61 98 61 241 q0 144 -61 243q-60 97 -197 97q-136 0 -196 -97t-60 -243z" />
<glyph unicode="&#xf5;" horiz-adv-x="1251" d="M78 528q0 255 149 407t398 152q250 0 399 -152q150 -153 150 -407q0 -251 -150 -404t-399 -153q-248 0 -398 153q-149 152 -149 404zM252 1227q12 96 76 173q63 75 164 77q60 0 147 -37q102 -35 133 -35q69 0 90 72h142q-22 -106 -70 -168q-46 -60 -160 -66 q-70 0 -166 35q-107 35 -139 35q-68 0 -92 -86h-125zM369 528q0 -145 60 -241q61 -97 196 -97q136 0 197 97q61 98 61 241q0 144 -61 243q-60 97 -197 97q-136 0 -196 -97t-60 -243z" />
<glyph unicode="&#xf6;" horiz-adv-x="1251" d="M78 528q0 255 149 407t398 152q250 0 399 -152q150 -153 150 -407q0 -251 -150 -404t-399 -153q-248 0 -398 153q-149 152 -149 404zM279 1225v239h276v-239h-276zM369 528q0 -145 60 -241q61 -97 196 -97q136 0 197 97q61 98 61 241q0 144 -61 243q-60 97 -197 97 q-136 0 -196 -97t-60 -243zM700 1225v239h277v-239h-277z" />
<glyph unicode="&#xf7;" horiz-adv-x="1228" d="M82 426v256h1065v-256h-1065zM487 16v275h254v-275h-254zM487 817v275h254v-275h-254z" />
<glyph unicode="&#xf8;" horiz-adv-x="1251" d="M78 528q0 255 149 407t398 152q195 0 333 -98l109 125l76 -65l-111 -125q142 -153 142 -396q0 -251 -150 -404t-399 -153q-197 0 -338 103l-121 -137l-76 65l123 139q-135 147 -135 387zM369 528q0 -107 30 -176l396 451q-61 65 -170 65q-136 0 -196 -97t-60 -243z M451 260q64 -70 174 -70q136 0 197 97q61 98 61 241q0 107 -33 187z" />
<glyph unicode="&#xf9;" horiz-adv-x="1214" d="M111 408v651h290v-598q0 -135 43 -197q44 -63 144 -63q120 0 172 71q53 73 53 232v555h291v-1059h-277v147h-6q-53 -86 -140 -131t-183 -45q-219 0 -303 111t-84 326zM199 1497h321l197 -291h-203z" />
<glyph unicode="&#xfa;" horiz-adv-x="1214" d="M111 408v651h290v-598q0 -135 43 -197q44 -63 144 -63q120 0 172 71q53 73 53 232v555h291v-1059h-277v147h-6q-53 -86 -140 -131t-183 -45q-219 0 -303 111t-84 326zM496 1206l196 291h322l-316 -291h-202z" />
<glyph unicode="&#xfb;" horiz-adv-x="1214" d="M111 408v651h290v-598q0 -135 43 -197q44 -63 144 -63q120 0 172 71q53 73 53 232v555h291v-1059h-277v147h-6q-53 -86 -140 -131t-183 -45q-219 0 -303 111t-84 326zM252 1206l227 291h266l226 -291h-240l-127 166l-131 -166h-221z" />
<glyph unicode="&#xfc;" horiz-adv-x="1214" d="M111 408v651h290v-598q0 -135 43 -197q44 -63 144 -63q120 0 172 71q53 73 53 232v555h291v-1059h-277v147h-6q-53 -86 -140 -131t-183 -45q-219 0 -303 111t-84 326zM262 1225v239h277v-239h-277zM684 1225v239h277v-239h-277z" />
<glyph unicode="&#xfd;" horiz-adv-x="1062" d="M-12 1059h311l240 -725h4l231 725h301l-442 -1192q-46 -128 -132 -184t-233 -56q-74 0 -178 11v239q107 -12 170 -10q55 6 84 44t29 89q0 34 -13 66zM432 1206l197 291h321l-315 -291h-203z" />
<glyph unicode="&#xfe;" horiz-adv-x="1251" d="M111 -373v1835h290v-538h5q102 163 301 163q236 0 358 -162q123 -163 123 -407q0 -227 -122 -387t-343 -160q-205 0 -317 160h-5v-504h-290zM391 526q0 -142 62 -239t192 -97q132 0 193 96q59 93 59 240q0 146 -62 243q-63 99 -192 99q-133 0 -192 -98q-60 -99 -60 -244z " />
<glyph unicode="&#xff;" horiz-adv-x="1062" d="M-12 1059h311l240 -725h4l231 725h301l-442 -1192q-46 -128 -132 -184t-233 -56q-74 0 -178 11v239q107 -12 170 -10q55 6 84 44t29 89q0 34 -13 66zM193 1225v239h276v-239h-276zM614 1225v239h277v-239h-277z" />
<glyph unicode="&#x152;" horiz-adv-x="2238" d="M78 723q0 208 79 381q80 175 238 284t369 109q238 0 346 -139h4v104h1024v-270h-725v-313h664v-250h-664v-359h739v-270h-1038v111h-4q-134 -146 -352 -146q-314 0 -497 220q-183 221 -183 538zM399 727q0 -201 96 -347q95 -144 285 -144q148 0 235 92t87 241v349 q0 137 -89 223t-227 86q-103 0 -180 -43t-121 -116q-42 -70 -64 -159q-22 -90 -22 -182z" />
<glyph unicode="&#x153;" horiz-adv-x="1896" d="M78 535q0 239 143 395q144 157 377 157q259 0 365 -167q48 74 152 121q102 46 202 46q265 0 392 -177q128 -178 128 -451h-756q0 -121 65 -195t187 -74q153 0 213 146h283q-51 -172 -183 -268q-133 -97 -313 -97q-270 0 -383 181q-53 -91 -155 -136t-220 -45 q-235 0 -366 162q-131 163 -131 402zM369 524q0 -129 53 -232q52 -102 172 -102q233 0 233 342q0 336 -227 336q-123 0 -177 -100t-54 -244zM1081 643h465q-10 225 -235 225q-106 0 -166 -63q-59 -62 -64 -162z" />
<glyph unicode="&#x178;" horiz-adv-x="1366" d="M-18 1462h362l342 -577l340 577h358l-542 -901v-561h-322v569zM338 1614v239h276v-239h-276zM760 1614v239h276v-239h-276z" />
<glyph unicode="&#x2c6;" horiz-adv-x="530" d="M-94 1206l227 291h266l226 -291h-240l-127 166l-131 -166h-221z" />
<glyph unicode="&#x2dc;" horiz-adv-x="530" d="M-111 1227q12 96 76 173q63 75 164 77q60 0 147 -37q102 -35 134 -35q69 0 90 72h141q-22 -106 -70 -168q-47 -60 -159 -66q-70 0 -166 35q-107 35 -140 35q-68 0 -92 -86h-125z" />
<glyph unicode="&#x2000;" horiz-adv-x="1011" />
<glyph unicode="&#x2001;" horiz-adv-x="2023" />
<glyph unicode="&#x2002;" horiz-adv-x="1011" />
<glyph unicode="&#x2003;" horiz-adv-x="2023" />
<glyph unicode="&#x2004;" horiz-adv-x="674" />
<glyph unicode="&#x2005;" horiz-adv-x="505" />
<glyph unicode="&#x2006;" horiz-adv-x="337" />
<glyph unicode="&#x2007;" horiz-adv-x="337" />
<glyph unicode="&#x2008;" horiz-adv-x="252" />
<glyph unicode="&#x2009;" horiz-adv-x="404" />
<glyph unicode="&#x200a;" horiz-adv-x="112" />
<glyph unicode="&#x2010;" horiz-adv-x="833" d="M109 428v260h616v-260h-616z" />
<glyph unicode="&#x2011;" horiz-adv-x="833" d="M109 428v260h616v-260h-616z" />
<glyph unicode="&#x2012;" horiz-adv-x="833" d="M109 428v260h616v-260h-616z" />
<glyph unicode="&#x2013;" horiz-adv-x="1024" d="M0 428v258h1024v-258h-1024z" />
<glyph unicode="&#x2014;" horiz-adv-x="2048" d="M0 428v258h2048v-258h-2048z" />
<glyph unicode="&#x2018;" horiz-adv-x="569" d="M123 799v250q0 175 73 278q72 103 250 131v-143q-139 -39 -145 -197h145v-319h-323z" />
<glyph unicode="&#x2019;" horiz-adv-x="569" d="M123 799v143q139 39 145 197h-145v319h323v-250q0 -176 -72 -278t-251 -131z" />
<glyph unicode="&#x201a;" horiz-adv-x="569" d="M123 0v319h323v-249q0 -177 -72 -279t-251 -131v143q139 39 145 197h-145z" />
<glyph unicode="&#x201c;" horiz-adv-x="948" d="M109 809v256q0 155 72 262t220 131v-135q-131 -39 -137 -201h137v-313h-292zM543 809v256q0 155 72 262t221 131v-135q-132 -39 -138 -201h138v-313h-293z" />
<glyph unicode="&#x201d;" horiz-adv-x="948" d="M113 809v135q131 39 137 201h-137v313h293v-256q0 -154 -73 -262q-72 -107 -220 -131zM547 809v135q131 39 137 201h-137v313h293v-256q0 -154 -73 -262q-72 -107 -220 -131z" />
<glyph unicode="&#x201e;" horiz-adv-x="948" d="M111 2v313h292v-256q0 -155 -72 -262t-220 -131v135q131 39 137 201h-137zM545 2v313h293v-256q0 -154 -73 -262q-72 -107 -220 -131v135q131 39 137 201h-137z" />
<glyph unicode="&#x2022;" horiz-adv-x="1026" d="M150 729q0 152 106 258q107 107 258 107q148 0 257 -107q108 -107 108 -258t-108 -258q-107 -106 -257 -106q-152 0 -258 106t-106 258z" />
<glyph unicode="&#x2026;" horiz-adv-x="2048" d="M205 0v274h272v-274h-272zM887 0v274h272v-274h-272zM1569 0v274h272v-274h-272z" />
<glyph unicode="&#x202f;" horiz-adv-x="404" />
<glyph unicode="&#x2039;" horiz-adv-x="493" d="M76 408v270l319 250v-244l-182 -141l182 -144v-247z" />
<glyph unicode="&#x203a;" horiz-adv-x="493" d="M96 156v239l183 146l-183 143v248l322 -254v-275z" />
<glyph unicode="&#x205f;" horiz-adv-x="505" />
<glyph unicode="&#x20ac;" d="M31 784h149q-2 -6 -2 -32v-54h-82l-63 -147h157q44 -269 187 -418q157 -166 416 -166q178 0 315 80l2 309q-162 -129 -315 -129q-237 0 -303 324h356l63 147h-436l2 86h459l63 148h-499q72 280 286 280q124 0 269 -92l125 256q-203 103 -373 103q-244 0 -406 -156 q-153 -144 -202 -391h-105z" />
<glyph unicode="&#x2122;" horiz-adv-x="2048" d="M219 1319v139h615v-139h-220v-590h-172v590h-223zM930 729v729h246l178 -502l178 502h242v-729h-158v594l-207 -594h-115l-207 594v-594h-157z" />
<glyph unicode="&#x25fc;" horiz-adv-x="1054" d="M0 0v1055h1055v-1055h-1055z" />
</font>
</defs>
</svg>
