<?xml version="1.0" standalone="no"?>
<!DOCTYPE svg PUBLIC "-//W3C//DTD SVG 1.1//EN" "http://www.w3.org/Graphics/SVG/1.1/DTD/svg11.dtd" >
<svg xmlns="http://www.w3.org/2000/svg" xmlns:xlink="http://www.w3.org/1999/xlink" version="1.1">
<metadata></metadata>
<defs>
<font id="helvetica_neuethin" horiz-adv-x="1138" >
<font-face units-per-em="2048" ascent="1638" descent="-410" />
<missing-glyph horiz-adv-x="569" />
<glyph unicode="&#xfb01;" horiz-adv-x="796" d="M0 985v68h188v217q0 104 66 156q67 53 166 53q32 0 92 -11v-67q-54 10 -92 10q-154 0 -154 -147v-211h219v-68h-219v-985h-78v985h-188zM586 0v1053h78v-1053h-78zM586 1251v211h78v-211h-78z" />
<glyph unicode="&#xfb02;" horiz-adv-x="796" d="M0 985v68h188v217q0 104 66 156q67 53 166 53q32 0 92 -11v-67q-54 10 -92 10q-154 0 -154 -147v-211h219v-68h-219v-985h-78v985h-188zM586 0v1462h78v-1462h-78z" />
<glyph unicode="&#xfb03;" horiz-adv-x="1220" d="M0 985v68h188v217q0 52 19 95q18 41 50 65q31 24 74 36q46 13 89 13q32 0 92 -11v-67q-54 10 -92 10q-66 0 -110 -30t-44 -117v-211h346v217q0 52 19 95q18 41 50 65q31 24 74 36q46 13 89 13q32 0 92 -11v-67q-54 10 -92 10q-66 0 -110 -30t-44 -117v-211h219v-68h-219 v-985h-78v985h-346v-985h-78v985h-188zM1010 0v1053h77v-1053h-77zM1010 1251v211h77v-211h-77z" />
<glyph horiz-adv-x="0" />
<glyph unicode="&#xd;" horiz-adv-x="681" />
<glyph horiz-adv-x="0" />
<glyph unicode="&#x9;" horiz-adv-x="569" />
<glyph horiz-adv-x="0" />
<glyph unicode=" "  horiz-adv-x="569" />
<glyph unicode="&#x09;" horiz-adv-x="569" />
<glyph unicode="&#xa0;" horiz-adv-x="569" />
<glyph unicode="!" horiz-adv-x="530" d="M217 0v201h96v-201h-96zM221 1049v409h88v-409l-14 -680h-59z" />
<glyph unicode="&#x22;" horiz-adv-x="645" d="M139 1403h80l-10 -563h-59zM424 1403h80l-10 -563h-60z" />
<glyph unicode="#" d="M35 442v70h262l70 381h-248v68h262l84 442h74l-86 -442h319l86 442h72l-84 -442h248v-68h-263l-69 -381h248v-70h-260l-82 -442h-74l82 442h-320l-80 -442h-73l82 442h-250zM371 512h317l72 381h-320z" />
<glyph unicode="$" d="M33 410v18h84q0 -9 -1 -15t-1 -12q0 -189 108 -271t307 -93v655q-91 17 -159 39q-69 22 -137 61q-70 40 -107 108t-37 163q0 164 121 266q122 103 319 107v153h58v-153h4q208 0 326 -103q116 -101 116 -286v-17h-82q0 166 -88 247q-89 82 -276 89v-606q497 -69 497 -398 q0 -179 -134 -287t-359 -108h-4v-180h-58v180q-497 10 -497 443zM172 1069q0 -254 358 -297v592q-168 -7 -263 -86q-95 -78 -95 -209zM588 37q180 5 297 81q116 76 116 247q0 66 -26 117q-27 52 -63 82q-37 31 -99 56q-56 23 -107 35q-25 6 -118 25v-643z" />
<glyph unicode="%" horiz-adv-x="1593" d="M90 1073q0 155 95 258t241 103q147 0 242 -101q94 -100 94 -258q0 -163 -94 -264q-94 -102 -242 -102q-151 0 -243 101q-93 102 -93 263zM164 1073q0 -132 74 -218q73 -85 188 -85q112 0 187 87t75 218q0 129 -75 212t-189 83q-112 0 -186 -84q-74 -85 -74 -213zM299 -49 l909 1503h72l-907 -1503h-74zM842 334q0 158 96 261t242 103q144 0 238 -101q95 -103 95 -255q0 -164 -93 -267q-93 -104 -242 -104q-150 0 -243 102t-93 261zM915 340q0 -135 75 -221t190 -86q110 0 185 87t75 216t-76 214t-190 85q-109 0 -184 -85q-75 -86 -75 -210z" />
<glyph unicode="&#x26;" horiz-adv-x="1214" d="M84 350q0 79 33 148q34 72 95 128q64 60 118 96q60 41 135 83q-32 37 -70 83q-18 22 -58 81q-38 56 -54 103q-17 49 -17 95q0 125 88 203t228 78q132 0 217 -78q86 -78 86 -196q0 -65 -25 -124q-23 -55 -80 -109q-55 -52 -91 -79q-34 -25 -109 -76l348 -432 q45 124 51 248h78q-6 -159 -76 -311l240 -291h-105l-178 219q-153 -248 -424 -248q-187 0 -309 107q-121 106 -121 272zM168 350q0 -134 100 -222q101 -89 250 -89q114 0 212 63q97 63 161 177l-381 469q-64 -38 -120 -74q-38 -25 -104 -82q-57 -49 -88 -112 q-30 -60 -30 -130zM344 1169q0 -48 38 -118q36 -66 67 -107q15 -20 86 -102q270 152 270 325q0 91 -66 151t-161 60q-102 0 -167 -59q-67 -61 -67 -150z" />
<glyph unicode="'" horiz-adv-x="417" d="M168 1403h80l-10 -563h-60z" />
<glyph unicode="(" horiz-adv-x="493" d="M139 549q0 480 262 926h72q-119 -198 -185 -443q-67 -250 -67 -489q0 -464 252 -920h-72q-262 460 -262 926z" />
<glyph unicode=")" horiz-adv-x="493" d="M20 -377q252 456 252 920q0 243 -66 489q-65 242 -186 443h72q262 -446 262 -926q0 -466 -262 -926h-72z" />
<glyph unicode="*" horiz-adv-x="720" d="M59 1251l19 56l252 -86v266h59v-266l252 86l21 -56l-256 -84l159 -215l-47 -34l-158 215l-163 -211l-50 34l164 211z" />
<glyph unicode="+" horiz-adv-x="1228" d="M115 520v68h465v459h71v-459h465v-68h-465v-461h-71v461h-465z" />
<glyph unicode="," horiz-adv-x="569" d="M205 -193q68 44 69 193h-41v209h103v-174q0 -109 -26 -187q-25 -75 -105 -110v69z" />
<glyph unicode="-" horiz-adv-x="720" d="M141 514v80h439v-80h-439z" />
<glyph unicode="." horiz-adv-x="569" d="M233 0v209h103v-209h-103z" />
<glyph unicode="/" horiz-adv-x="681" d="M-20 -18l653 1488h72l-652 -1488h-73z" />
<glyph unicode="0" d="M57 680q0 138 24 259q24 120 77 239q52 117 158 186q107 70 253 70q117 0 209 -45q93 -46 148 -117q54 -70 92 -170q36 -95 50 -196q13 -94 13 -204q0 -142 -23 -257q-24 -121 -79 -232t-161 -178q-105 -66 -253 -66q-246 0 -377 184t-131 527zM141 676q0 -86 11 -172 q11 -87 38 -169q28 -87 75 -150q45 -61 123 -102q76 -40 177 -40q126 0 215 61q91 62 134 165q46 109 63 209q18 105 18 222q0 123 -17 222q-17 100 -62 207q-43 103 -133 165q-89 62 -214 62q-202 0 -315 -179t-113 -501z" />
<glyph unicode="1" d="M221 1077v70q139 30 220 83q79 52 167 179h74v-1409h-86v1257q-88 -88 -170 -127q-80 -38 -205 -53z" />
<glyph unicode="2" d="M94 0q12 159 97 266q86 109 243 215l127 86l105 74q29 20 94 77q58 51 89 94q30 43 54 103q25 64 25 127q0 147 -94 232q-95 86 -256 86q-190 0 -279 -116q-87 -114 -92 -310h-84q2 24 2 43q7 207 127 333q118 124 330 124q195 0 313 -107q117 -106 117 -283 q0 -129 -64 -230q-62 -97 -182 -193q-90 -71 -246 -177q-79 -53 -110 -76q-28 -21 -89 -74q-61 -54 -91 -104q-30 -51 -42 -114h846v-76h-940z" />
<glyph unicode="3" d="M74 424v41h80v-29q0 -184 109 -289q108 -104 304 -104q178 0 288 97q112 98 112 251q0 324 -428 324h-47v69h57q181 0 281 73t100 210q0 133 -96 213q-97 80 -259 80q-181 0 -282 -102q-101 -103 -107 -293h-75q5 221 127 345q123 124 340 124q195 0 316 -101 q120 -101 120 -264q0 -129 -81 -215q-81 -85 -202 -100q142 -23 231 -112t89 -243q0 -191 -135 -311q-134 -119 -351 -119q-225 0 -358 123t-133 332z" />
<glyph unicode="4" d="M66 360v84l682 969h81v-981h232v-72h-232v-360h-81v360h-682zM137 432h611v703q0 74 2 178q-93 -143 -99 -152z" />
<glyph unicode="5" d="M76 428h80q6 -175 109 -281t290 -106q176 0 290 118q113 117 113 298q0 179 -114 298q-113 117 -291 117q-229 0 -354 -192l-80 2l145 721h715v-78h-655l-117 -553q124 172 358 172q207 0 342 -137t135 -348t-138 -350q-138 -140 -349 -140q-218 0 -346 124 q-129 124 -133 335z" />
<glyph unicode="6" d="M88 651q0 381 133 581q134 202 381 202q177 0 295 -103q116 -102 139 -270h-84q-17 132 -114 216q-98 85 -238 85q-107 0 -189 -50q-80 -49 -127 -125t-74 -180q-29 -113 -36 -195q-8 -94 -8 -187q50 142 164 224q113 81 268 81q201 0 334 -136t133 -341 q0 -206 -137 -345t-344 -139q-262 0 -396 209q-100 157 -100 473zM188 453q0 -175 114 -293q114 -119 284 -119t282 118q113 119 113 292q0 175 -114 291t-285 116q-166 0 -280 -117t-114 -288z" />
<glyph unicode="7" d="M115 1325v78h907v-82q-269 -264 -432 -624q-161 -356 -172 -697h-88q8 345 180 715t436 610h-831z" />
<glyph unicode="8" d="M72 393q0 153 90 251t233 120q-264 62 -264 313q0 167 118 261q120 96 320 96q204 0 322 -94q117 -93 117 -259q0 -124 -73 -208q-71 -82 -190 -109q143 -21 232 -116q88 -94 88 -247q0 -200 -131 -316t-361 -116q-233 0 -367 114t-134 310zM158 395q0 -166 109 -260 t304 -94q190 0 299 95t109 259q0 157 -110 246q-109 88 -304 88q-190 0 -299 -89q-108 -88 -108 -245zM215 1075q0 -131 95 -205q94 -73 261 -73q165 0 258 74q95 75 95 206q0 135 -94 209t-263 74t-260 -75q-92 -75 -92 -210z" />
<glyph unicode="9" d="M70 950q0 208 136 345q137 139 341 139q257 0 393 -199q111 -164 111 -492q0 -774 -506 -774q-175 0 -296 100q-119 98 -140 265h81q22 -132 120 -212q97 -79 237 -79q204 0 314 173t110 497v78q-122 -316 -430 -316q-203 0 -337 135q-134 136 -134 340zM154 952 q0 -175 112 -288q113 -115 283 -115t284 116q113 114 113 289q0 171 -115 289q-114 117 -284 117q-166 0 -280 -117q-113 -116 -113 -291z" />
<glyph unicode=":" horiz-adv-x="569" d="M233 0v209h103v-209h-103zM233 840v209h103v-209h-103z" />
<glyph unicode=";" horiz-adv-x="569" d="M205 -193q68 44 69 193h-41v209h103v-174q0 -109 -26 -187q-25 -75 -105 -110v69zM233 840v209h103v-209h-103z" />
<glyph unicode="&#x3c;" horiz-adv-x="1228" d="M113 516v74l1001 416v-74l-915 -379l915 -375v-76z" />
<glyph unicode="=" horiz-adv-x="1228" d="M113 328v67h1001v-67h-1001zM113 702v68h1001v-68h-1001z" />
<glyph unicode="&#x3e;" horiz-adv-x="1228" d="M115 102v76l917 375l-917 379v74l1001 -416v-74z" />
<glyph unicode="?" horiz-adv-x="1062" d="M88 1006q0 206 113 345q113 138 331 138q186 0 303 -103q115 -102 115 -264q0 -69 -16 -123q-16 -55 -63 -112q-53 -65 -71 -83q-14 -14 -98 -91q-93 -87 -116 -144t-23 -202h-80v22q0 141 32 211t134 166q82 77 107 104q34 38 72 108q38 71 38 142q0 130 -94 212 q-95 83 -242 83q-182 0 -273 -120q-91 -119 -89 -289h-80zM475 0v209h94v-209h-94z" />
<glyph unicode="@" horiz-adv-x="1638" d="M55 700q0 348 247 565q248 218 591 218q289 0 485 -163q197 -164 197 -439q0 -191 -115 -362q-114 -169 -297 -169q-63 0 -106 37t-43 98q0 15 16 95q-108 -230 -307 -230q-129 0 -201 87q-71 86 -71 216q0 178 116 331q117 155 287 155q112 0 180 -65t74 -173l63 211h72 l-121 -391q-51 -175 -51 -225q0 -44 31 -69q30 -24 78 -24q102 0 183 83q82 83 119 191q38 109 38 206q0 257 -185 401q-183 143 -444 143q-325 0 -552 -205q-228 -206 -228 -522q0 -205 105 -361q106 -157 272 -235q164 -77 366 -77q170 0 306 48q138 48 290 150l31 -41 q-157 -108 -301 -159q-148 -52 -326 -52q-336 0 -568 200q-231 199 -231 527zM530 649q0 -103 54 -174q52 -69 153 -69q111 0 187 87q75 86 116 209q29 93 29 162q0 96 -54 159q-53 62 -151 62q-141 0 -237 -142q-97 -144 -97 -294z" />
<glyph unicode="A" horiz-adv-x="1214" d="M-27 0l592 1458h94l580 -1458h-98l-183 471h-702l-186 -471h-97zM283 545h647l-266 676q-7 17 -28 77q-24 70 -26 76l-55 -147z" />
<glyph unicode="B" horiz-adv-x="1290" d="M127 0v1458h600q187 0 317 -92t130 -270q0 -126 -77 -218t-204 -114q147 -17 239 -113q91 -95 91 -245q0 -211 -170 -324q-124 -82 -363 -82h-563zM215 78h469q451 0 451 330q0 311 -439 311h-481v-641zM215 793h459q411 0 411 292q0 157 -107 227t-276 70h-487v-589z " />
<glyph unicode="C" horiz-adv-x="1441" d="M80 725q0 345 187 556q188 212 491 212q222 0 397 -130q177 -132 201 -343h-86q-39 183 -178 288t-338 105q-262 0 -424 -189t-162 -497q0 -306 160 -495q159 -187 422 -187q230 0 374 145q143 144 170 375h84q-21 -267 -194 -432q-173 -166 -436 -166q-302 0 -485 208 q-183 209 -183 550z" />
<glyph unicode="D" horiz-adv-x="1366" d="M131 0v1458h492q324 0 493 -188q170 -190 170 -518q0 -341 -163 -546q-164 -206 -498 -206h-494zM219 78h375q604 0 604 667q0 297 -143 465q-144 170 -437 170h-399v-1302z" />
<glyph unicode="E" horiz-adv-x="1146" d="M119 0v1458h983v-78h-895v-583h840v-78h-840v-641h903v-78h-991z" />
<glyph unicode="F" horiz-adv-x="1052" d="M143 0v1458h918v-78h-830v-585h746v-76h-746v-719h-88z" />
<glyph unicode="G" horiz-adv-x="1517" d="M78 713q0 347 190 561q191 215 498 215q231 0 403 -133t205 -350h-84q-39 187 -184 296t-340 109q-273 0 -436 -191q-164 -193 -164 -507q0 -301 165 -486q165 -184 437 -184q249 0 401 157t152 414v25h-539v74h617v-713h-64l-12 260l2 94q-56 -182 -212 -285 q-154 -102 -347 -102q-308 0 -498 207q-190 206 -190 539z" />
<glyph unicode="H" horiz-adv-x="1372" d="M131 0v1458h88v-657h936v657h88v-1458h-88v723h-936v-723h-88z" />
<glyph unicode="I" horiz-adv-x="348" d="M131 0v1458h88v-1458h-88z" />
<glyph unicode="J" horiz-adv-x="985" d="M47 406q0 19 2 55h84v-43q0 -189 69 -282t253 -93q176 0 245 92q70 93 70 266v1057h88v-1063q0 -428 -403 -428q-218 0 -313 111q-95 112 -95 328z" />
<glyph unicode="K" horiz-adv-x="1255" d="M125 0v1458h88v-837l922 837h116l-671 -606l712 -852h-112l-664 793l-303 -277v-516h-88z" />
<glyph unicode="L" horiz-adv-x="1024" d="M125 0v1458h90v-1378h832v-80h-922z" />
<glyph unicode="M" horiz-adv-x="1656" d="M129 0v1458h123l465 -1081l114 -285q39 109 103 256q114 268 271.5 636.5t201.5 473.5h121v-1458h-86v1092q0 140 12 284q-12 -28 -33 -87q-24 -68 -32 -85l-515 -1204h-86l-516 1190q-3 5 -67 182q10 -224 10 -280v-1092h-86z" />
<glyph unicode="N" horiz-adv-x="1388" d="M121 0v1458h102l801 -1134q70 -103 141 -220q-6 137 -6 279l-2 1075h88v-1458h-100l-817 1155q-80 115 -127 201q6 -56 6 -223v-1133h-86z" />
<glyph unicode="O" horiz-adv-x="1517" d="M66 729q0 342 191 552q192 212 499 212q308 0 502 -215t194 -559q0 -337 -192 -546q-192 -208 -504 -208t-501 210t-189 554zM156 733q0 -310 166 -500t434 -190q271 0 438 188q168 189 168 492q0 309 -169 500q-170 192 -437 192q-187 0 -326 -97q-140 -98 -207 -250 t-67 -335z" />
<glyph unicode="P" horiz-adv-x="1210" d="M135 0v1458h567q212 0 312 -67q164 -111 164 -336q0 -215 -152 -326q-114 -84 -299 -84h-504v-645h-88zM223 721h453q177 0 260 49q154 91 154 281q0 188 -129 272q-60 39 -118 48q-59 9 -155 9h-465v-659z" />
<glyph unicode="Q" horiz-adv-x="1517" d="M66 719q0 343 192 558q192 214 502 214q305 0 497 -211q193 -213 193 -547q0 -173 -57 -326t-162 -255l225 -162l-45 -58l-240 172q-164 -137 -409 -137q-319 0 -508 213q-188 212 -188 539zM156 723q0 -291 159 -484q159 -194 447 -194q196 0 340 111l-230 161l48 60 l243 -174q197 215 197 530q0 300 -167 490q-166 188 -433 188q-271 0 -437 -190q-167 -191 -167 -498z" />
<glyph unicode="R" horiz-adv-x="1290" d="M131 0v1458h600q197 0 303 -67q162 -108 162 -320q0 -146 -84 -242q-83 -95 -225 -122q111 -18 180 -67q67 -48 88 -159q13 -74 19 -203q6 -145 20 -208q6 -30 29 -70h-99q-13 19 -20 59q-3 17 -8 88q-3 44 -7 127q-2 35 -6 84q-15 193 -107 252q-93 60 -304 60h-453 v-670h-88zM219 743h440q70 0 134 8q65 8 120 27q62 21 103 56t66 94q26 61 26 139q0 176 -133 258q-95 57 -273 57h-483v-639z" />
<glyph unicode="S" horiz-adv-x="1290" d="M82 483h84q5 -221 134 -330q131 -110 364 -110q213 0 335 89q121 88 121 249q0 50 -14 86q-16 42 -34 68q-20 29 -57 53q-33 21 -67 39q-24 13 -81 29q-70 20 -79 22q-63 14 -82 18q-44 9 -75 17q-225 52 -301 86q-205 91 -205 305q0 177 134 281t370 104q239 0 383 -111 q142 -109 157 -336h-88q-23 369 -458 369q-193 0 -301 -81q-109 -82 -109 -224q0 -63 23 -111q24 -50 59 -78q39 -31 96 -54q61 -25 122 -39q72 -17 146 -33q31 -5 68 -15q24 -6 56.5 -13.5t42.5 -9.5q30 -7 93 -27t93 -36q29 -16 74 -47q47 -32 66 -64q22 -36 38 -84 t16 -110q0 -194 -145 -305t-402 -111q-267 0 -422 129t-155 385z" />
<glyph unicode="T" horiz-adv-x="1062" d="M-31 1380v78h1123v-78h-517v-1380h-88v1380h-518z" />
<glyph unicode="U" horiz-adv-x="1376" d="M119 571v887h90v-891q0 -257 113 -390q112 -132 370 -132q250 0 358 135q107 134 107 387v891h88v-960q0 -247 -148 -388q-149 -141 -405 -141q-573 0 -573 602z" />
<glyph unicode="V" d="M-31 1458h99l436 -1167q17 -42 41 -118q27 -85 30 -95q11 45 70 209l432 1171h90l-542 -1458h-103z" />
<glyph unicode="W" horiz-adv-x="1820" d="M-14 1458h94l321 -1118q45 -155 62 -246q11 68 61 242l330 1122h109l337 -1132q36 -121 62 -232q18 103 57 232l322 1132h88l-418 -1458h-100l-342 1151q-46 154 -62 225q-17 -76 -63 -229l-334 -1147h-100z" />
<glyph unicode="X" d="M-35 0l549 750l-518 708h106l465 -645l475 645h101l-520 -708l546 -750h-108l-494 682l-497 -682h-105z" />
<glyph unicode="Y" horiz-adv-x="1175" d="M-45 1458h106l463 -672q38 -52 66 -102l61 98l469 676h101l-590 -850v-608h-88v608z" />
<glyph unicode="Z" horiz-adv-x="1099" d="M-6 0v88l991 1292q-31 0 -48 -1t-81 -1h-801v80h1026v-86l-991 -1294h1010v-78h-1106z" />
<glyph unicode="[" horiz-adv-x="493" d="M193 -377v1854h280v-68h-201v-1718h201v-68h-280z" />
<glyph unicode="\" horiz-adv-x="681" d="M-20 1470h71l654 -1488h-74z" />
<glyph unicode="]" horiz-adv-x="493" d="M20 -309h203v1718h-203v70h283v-1856h-283v68z" />
<glyph unicode="^" horiz-adv-x="1228" d="M238 561l337 842h80l338 -842h-80l-299 762l-297 -762h-79z" />
<glyph unicode="_" horiz-adv-x="1024" d="M0 -154h1024v-102h-1024v102z" />
<glyph unicode="`" horiz-adv-x="342" d="M-68 1507h107l248 -286h-78z" />
<glyph unicode="a" horiz-adv-x="1024" d="M61 264q0 289 402 322q220 17 262 27q52 12 72 44q14 21 14 109q0 119 -76 180q-77 62 -221 62q-293 0 -317 -281h-78q11 171 114 260q105 90 289 90q212 0 312 -112q28 -32 43 -79q13 -41 15 -75q1 -19 1 -90v-543q0 -35 1 -45q2 -18 8 -33q8 -19 24 -26q18 -8 43 -8 q18 0 53 8v-66q-34 -12 -84 -12q-69 0 -95 38t-26 138v51q-68 -131 -164 -191q-98 -61 -245 -61q-164 0 -255 78q-92 78 -92 215zM150 272q0 -107 73 -168t199 -61q169 0 279 104q112 106 112 263v184q-29 -26 -72 -39q-61 -20 -225 -37t-244 -53q-122 -55 -122 -193z" />
<glyph unicode="b" d="M119 0v1458h82v-657q105 282 399 282q214 0 338 -150q125 -151 125 -407q0 -255 -125 -407t-338 -152q-304 0 -403 285v-252h-78zM201 528q0 -224 106 -357q107 -134 285 -134q176 0 281 131q106 132 106 354v8q0 222 -105 351q-107 131 -288 131q-175 0 -280 -132 t-105 -352z" />
<glyph unicode="c" horiz-adv-x="1062" d="M74 520q0 256 134 408q133 151 357 151q182 0 295 -93q112 -93 133 -259h-84q-17 130 -108 206q-92 77 -234 77q-187 0 -298 -132t-111 -354q0 -218 108 -352q108 -133 287 -133q152 0 249 88t118 242h81q-24 -189 -142 -294q-120 -106 -304 -106q-228 0 -355 157 q-126 156 -126 394z" />
<glyph unicode="d" d="M70 520q0 255 128 409q127 152 341 152q143 0 245 -72q104 -73 150 -202v651h82v-1458h-78v256q-39 -137 -145 -213t-254 -76q-217 0 -343 149q-126 148 -126 404zM156 520q0 -226 103 -354q103 -129 284 -129q182 0 287 131q106 132 106 356q0 203 -99 344 q-100 142 -296 142q-176 0 -281 -132q-104 -131 -104 -358z" />
<glyph unicode="e" horiz-adv-x="1062" d="M68 514q0 251 132 407t345 156q222 0 340 -155q119 -157 119 -385v-29h-850q0 -200 99 -336q99 -137 294 -137q143 0 238 84q96 86 126 237h82q-28 -175 -147 -283q-118 -108 -301 -108q-216 0 -347 150q-130 149 -130 399zM154 580h766q0 174 -98 299t-277 125 q-181 0 -277 -119q-96 -118 -114 -305z" />
<glyph unicode="f" horiz-adv-x="493" d="M6 977v72h182v131q0 140 49 214q48 72 197 72q24 0 86 -6v-74q-77 7 -82 7q-49 0 -82 -15q-34 -16 -50 -30q-17 -16 -25 -55q-9 -45 -10 -61t-1 -73v-20v-90h219v-72h-219v-977h-82v977h-182z" />
<glyph unicode="g" horiz-adv-x="1099" d="M68 545q0 241 126 387q126 145 332 145q277 0 383 -268v240h76v-965q0 -196 -59 -299q-105 -184 -396 -184q-187 0 -294 83t-119 238h84q8 -125 98 -188q91 -64 236 -64q213 0 305 123q65 89 65 289v221q-100 -268 -393 -268q-203 0 -324 139q-120 138 -120 371zM152 555 q0 -205 100 -326q99 -120 270 -120q186 0 285 130q98 129 98 324q0 199 -103 320t-274 121q-172 0 -274 -122t-102 -327z" />
<glyph unicode="h" horiz-adv-x="1062" d="M119 0v1458h82v-579l-2 -68q45 120 140 193q93 71 236 71q187 0 281 -108q94 -107 94 -295v-672h-82v659q0 159 -74 252q-75 95 -235 95q-131 0 -219 -79t-121 -208q-18 -73 -18 -187v-532h-82z" />
<glyph unicode="i" horiz-adv-x="344" d="M131 0v1049h82v-1049h-82zM131 1251v207h82v-207h-82z" />
<glyph unicode="j" horiz-adv-x="344" d="M-74 -309h41q100 0 133 42t33 150v1166h82v-1160q0 -148 -49 -210t-191 -62q-13 0 -49 4v70zM133 1253v205h82v-205h-82z" />
<glyph unicode="k" horiz-adv-x="948" d="M117 0v1458h82v-966q18 15 42 37q30 29 42 38l563 482h112l-460 -392l491 -657h-104l-449 600l-237 -203v-397h-82z" />
<glyph unicode="l" horiz-adv-x="344" d="M131 0v1458h82v-1458h-82z" />
<glyph unicode="m" horiz-adv-x="1630" d="M121 0v1049h78v-213q44 110 130 175q87 66 212 66q239 0 305 -225q106 225 340 225q158 0 245 -93t87 -245v-739h-82v709q0 292 -267 292q-136 0 -215 -83q-94 -95 -94 -273v-645h-82v692q0 124 -30 185q-60 124 -224 124q-150 0 -235 -108q-86 -109 -86 -297v-596h-82z " />
<glyph unicode="n" horiz-adv-x="1062" d="M117 0v1049h80v-232q114 260 387 260q174 0 271 -103t97 -286v-688h-82v647q0 357 -305 357q-206 0 -307 -173q-59 -103 -59 -288v-543h-82z" />
<glyph unicode="o" horiz-adv-x="1099" d="M63 524q0 248 135 403q133 152 355 152q220 0 351 -152q132 -153 132 -409q0 -252 -132 -400q-132 -149 -353 -149q-222 0 -355 151t-133 404zM147 524q0 -221 110 -352t296 -131q181 0 289 130q108 131 108 347q0 222 -108 356t-291 134q-181 0 -292 -134 q-112 -135 -112 -350z" />
<glyph unicode="p" d="M127 -379v1428h78v-250q102 278 391 278q214 0 341 -152q128 -154 128 -407q0 -248 -128 -402q-127 -153 -339 -153q-146 0 -248 72t-141 203v-617h-82zM205 516q0 -128 38 -234t129 -178q90 -71 222 -71q174 0 279 133q106 135 106 352q0 226 -105 358t-282 132 q-183 0 -285 -130t-102 -362z" />
<glyph unicode="q" d="M72 520q0 255 128 409q127 152 343 152q285 0 391 -278v246h78v-1428h-82v619q-102 -271 -395 -271q-211 0 -337 150t-126 401zM156 518q0 -222 104 -350q105 -129 283 -129t283 130q106 132 106 351q0 229 -104 360q-103 130 -283 130t-285 -132q-104 -131 -104 -360z " />
<glyph unicode="r" horiz-adv-x="569" d="M113 0v1049h80v-277q57 152 153 218q97 67 256 67v-84h-31q-181 0 -288 -142q-59 -79 -73 -162q-15 -87 -15 -216v-453h-82z" />
<glyph unicode="s" horiz-adv-x="985" d="M68 352h82q0 -155 91 -233t259 -78q144 0 236 63q91 63 91 168q0 45 -21 81t-46 58q-24 21 -75 41q-45 18 -76 25q-78 18 -81 19l-8 4q-6 0 -9 1t-9 1q-9 3 -57 13q-16 3 -36.5 7.5t-25.5 5.5q-23 5 -59 16q-47 14 -60 21l-51 25q-31 17 -47 36q-9 10 -34 44 q-15 20 -24 55q-8 32 -8 68q0 131 102 208q101 76 281 76q184 0 288 -85q107 -87 108 -249h-84q-12 139 -94 201t-230 62q-131 0 -208 -56t-77 -149q0 -17 6 -45q4 -21 12 -36q9 -18 23 -31q17 -15 27 -24t36 -21q18 -9 38 -16q26 -10 45 -14q31 -7 46 -12q13 -4 51 -12 l50 -10q65 -14 109 -26q25 -7 98 -35q64 -25 97 -53q32 -27 59 -77q26 -48 26 -113q0 -139 -113 -224t-300 -85q-200 0 -314 102t-114 283z" />
<glyph unicode="t" horiz-adv-x="530" d="M0 977v72h195v329h81v-329h226v-72h-226v-711q0 -40 2 -64q2 -21 7 -50q6 -35 20 -47q12 -11 42 -24q25 -11 69 -11q32 0 86 8v-76q-64 -8 -99 -8q-63 0 -102 16q-41 17 -62 36q-21 20 -32 64q-9 38 -11 72q-1 19 -1 92v25v678h-195z" />
<glyph unicode="u" horiz-adv-x="1062" d="M113 373v676h82v-658q0 -350 305 -350q176 0 266 128q90 127 90 310v570h82v-1049h-78v221q-111 -252 -377 -252q-181 0 -276 109q-94 107 -94 295z" />
<glyph unicode="v" horiz-adv-x="909" d="M-4 1049h90l301 -738q23 -61 45 -122q15 -42 39 -107q20 59 84 233l274 734h86l-397 -1049h-96z" />
<glyph unicode="w" horiz-adv-x="1441" d="M-8 1049h90l244 -766q1 -4 7 -25.5t19 -69t27 -98.5q12 37 27 98q20 81 26 99l238 762h102l238 -766q16 -54 53 -191q35 143 51 187l246 770h84l-338 -1049h-94l-248 797q-26 81 -43 155q-24 -94 -43 -153l-250 -799h-98z" />
<glyph unicode="x" horiz-adv-x="909" d="M-14 0l415 549l-383 500h107l328 -439l333 439h99l-379 -496l420 -553h-107l-366 492l-369 -492h-98z" />
<glyph unicode="y" horiz-adv-x="909" d="M-18 1049h92l346 -822q18 -43 47 -131q46 133 49 142l311 811h88l-452 -1158q-24 -64 -46 -112q-15 -33 -48 -78t-79 -61q-48 -17 -114 -17q-47 0 -80 4v74q33 -6 68 -6q73 0 117 32q43 31 73 105q48 108 72 170z" />
<glyph unicode="z" horiz-adv-x="872" d="M18 0v78l703 899h-651v72h751v-68l-710 -909h741v-72h-834z" />
<glyph unicode="{" horiz-adv-x="681" d="M20 524v54q176 24 234 88q57 63 57 221v143q0 96 4 140q5 51 30 120q26 69 77 113q91 78 244 78v-54q-189 -7 -252 -141q-31 -65 -31 -225v-84q0 -67 -2 -125q-2 -44 -15 -107q-14 -63 -39 -96q-24 -31 -76 -61q-51 -30 -124 -37q73 -7 124 -37q52 -30 76 -61 q25 -33 39 -97q14 -63 15 -106q2 -58 2 -125v-84q0 -160 31 -225q63 -135 252 -142v-53q-152 0 -244 78q-51 44 -77 113q-25 69 -30 119q-4 44 -4 141v143q0 158 -57 221q-58 64 -234 88z" />
<glyph unicode="|" horiz-adv-x="454" d="M190 -438v2048h74v-2048h-74z" />
<glyph unicode="}" horiz-adv-x="681" d="M20 -326q189 7 252 142q31 65 31 225v84q0 67 2 125q1 37 16 106q14 66 38 97t76 61q51 30 124 37q-73 7 -124 37q-52 30 -76 61t-38 96q-15 68 -16 107q-2 58 -2 125v84q0 160 -31 225q-63 134 -252 141v54q152 0 244 -78q51 -44 77 -113q25 -69 30 -120q4 -44 4 -140 v-143q0 -158 57 -221q58 -64 234 -88v-54q-176 -24 -234 -88q-57 -63 -57 -221v-143q0 -97 -4 -141q-5 -50 -30 -119q-26 -69 -77 -113q-92 -78 -244 -78v53z" />
<glyph unicode="~" horiz-adv-x="1228" d="M86 428q21 102 80 168q60 68 158 68q23 0 72 -9q40 -7 66 -15q29 -9 83 -27q46 -16 82 -27q11 -3 73 -26q42 -15 75 -25q48 -14 62 -17q38 -8 64 -8q70 0 118 49t66 119h56q-18 -97 -80 -167q-61 -69 -158 -69q-77 0 -295 76q-62 22 -85 30q-52 19 -80 27q-42 12 -58 16 q-31 7 -59 7q-67 0 -117 -50q-49 -49 -66 -120h-57z" />
<glyph horiz-adv-x="0" />
<glyph unicode="&#xa1;" horiz-adv-x="530" d="M213 885v211h104v-211h-104zM215 117l25 594h49l24 -594v-494h-98v494z" />
<glyph unicode="&#xa2;" d="M104 537q0 222 121 374q122 154 332 166v183h66v-183q166 -7 275 -97q107 -88 124 -253h-78q-11 128 -97 200q-88 73 -224 83v-967q133 12 222 101q88 88 109 227h78q-24 -177 -135 -280q-112 -104 -274 -116v-217h-66v217q-225 12 -339 170q-114 157 -114 392zM182 537 q0 -213 97 -348q96 -134 278 -146v967q-173 -12 -274 -151t-101 -322z" />
<glyph unicode="&#xa3;" d="M88 43q103 74 169 179q67 107 67 218q0 107 -60 230h-164v49h133q-1 2 -6 10.5t-12.5 23t-16.5 29.5q-30 52 -38 72q-2 5 -11 25t-16 35q-18 42 -24 77q-7 40 -7 74q0 167 129 271q130 104 338 104q237 0 356 -125q117 -123 117 -359h-81q-6 410 -394 410 q-170 0 -275 -84q-106 -85 -106 -221q0 -58 19 -113t63 -130q47 -81 56 -99h325v-49h-297q51 -114 51 -217q0 -84 -33 -154q-36 -77 -71 -119q-40 -48 -109 -117q131 68 222 68q74 0 172 -37q1 -1 47 -17q50 -18 54 -19q32 -8 47 -11q30 -6 54 -6q69 0 148 38q77 37 133 99 l45 -61q-144 -152 -319 -152q-27 0 -53 3q-21 2 -59 14q-13 4 -29.5 8.5t-19.5 5.5q-30 9 -59 20q-12 5 -24 9.5t-17.5 7t-7.5 2.5q-71 26 -143 26q-110 0 -240 -92z" />
<glyph unicode="&#xa4;" d="M117 1137l49 47l129 -131q124 100 274 100q157 0 275 -100l131 131l47 -49l-129 -129q100 -133 100 -275q0 -143 -102 -274l131 -131l-47 -47l-131 131q-126 -103 -275 -103q-152 0 -272 103l-131 -129l-47 47l129 129q-101 128 -101 274q0 147 101 275zM219 731 q0 -146 104 -248t246 -102q148 0 250 102q103 103 103 248t-103 248q-102 102 -250 102q-145 0 -247 -102q-103 -103 -103 -248z" />
<glyph unicode="&#xa5;" d="M-14 1462h98l487 -766l490 766h92l-487 -762h188v-67h-246v-160h246v-67h-246v-406h-78v406h-245v67h245v160h-245v67h188z" />
<glyph unicode="&#xa6;" horiz-adv-x="454" d="M188 -182v512h78v-512h-78zM188 842v512h78v-512h-78z" />
<glyph unicode="&#xa7;" d="M102 672q0 98 60 174t166 115q-109 91 -109 215q0 120 93 199q92 79 237 79q173 0 268 -93q93 -92 98 -267h-81q-12 288 -287 288q-108 0 -177 -57t-69 -147q0 -50 17 -85q18 -38 63 -74q47 -37 64 -48q23 -14 83 -47q270 -149 359 -222q145 -118 145 -256 q0 -95 -62 -172q-61 -76 -171 -114q123 -105 123 -230q0 -129 -98 -210q-96 -80 -253 -80q-175 0 -274 100q-98 99 -98 278h82q5 -152 77 -229q74 -78 213 -78q116 0 191 61q74 60 74 154q0 102 -84 170q-47 36 -97 69q-57 37 -162 99q-29 17 -59 34.5t-45.5 27t-21.5 12.5 q-78 47 -130 86q-48 36 -91 102q-44 68 -44 146zM182 676q0 -43 19 -84q18 -40 55 -72q24 -21 65 -53q22 -17 74 -49q45 -28 109 -65q24 -14 132 -79q46 -28 105 -69q209 66 209 231q0 114 -125 209q-107 84 -344 215q-70 38 -100 60q-199 -84 -199 -244z" />
<glyph unicode="&#xa8;" horiz-adv-x="342" d="M-37 1235v211h90v-211h-90zM287 1235v211h90v-211h-90z" />
<glyph unicode="&#xa9;" horiz-adv-x="1638" d="M70 743q0 312 220 531t529 219q312 0 531 -220q219 -221 219 -530q0 -311 -220 -530q-221 -219 -530 -219q-311 0 -530 221t-219 528zM125 743q0 -289 205 -491q206 -203 489 -203q289 0 493 204t204 490q0 290 -205 492q-206 203 -492 203q-289 0 -491 -204 q-203 -205 -203 -491zM440 752q0 178 108 306t279 128q131 0 232 -81q100 -81 112 -206h-65q-18 105 -94 166t-181 61q-147 0 -232 -110t-85 -260q0 -158 90 -271q90 -112 240 -112q99 0 173 56q75 57 97 151h64q-18 -119 -115 -193t-219 -74q-181 0 -292 129 q-112 130 -112 310z" />
<glyph unicode="&#xaa;" horiz-adv-x="634" d="M27 946q0 55 21 94t63 59q38 19 78 28q40 10 90 14q165 12 200 33t35 100q0 54 -52 81t-138 27q-88 0 -140 -42q-53 -42 -59 -119h-66q24 217 271 217q248 0 248 -174v-365q0 -32 1 -39q1 -9 9 -23t26 -14h15q7 0 22 4v-55q-25 -4 -41 -4q-55 0 -73 24q-19 25 -19 68v29 h-4q-20 -58 -87 -99q-65 -40 -165 -40q-112 0 -174 44q-61 43 -61 152zM92 946q0 -60 44 -101q43 -40 120 -40t136 28q55 26 80 68q24 41 32 70q8 30 8 49v115q-15 -15 -44 -25q-30 -11 -55 -12q-28 -2 -73 -6q-14 -1 -37.5 -3.5t-30.5 -3.5q-180 -23 -180 -139z" />
<glyph unicode="&#xab;" horiz-adv-x="796" d="M135 506v84l236 266v-96l-176 -213l176 -203v-100zM397 506v80l240 274v-98l-180 -215l180 -205v-98z" />
<glyph unicode="&#xac;" horiz-adv-x="1228" d="M113 702v68h1001v-442h-70v374h-931z" />
<glyph unicode="&#xad;" horiz-adv-x="720" d="M141 518v78h439v-78h-439z" />
<glyph unicode="&#xae;" horiz-adv-x="819" d="M33 1118q0 156 110 265q112 110 265 110q156 0 265 -111q109 -110 109 -264q0 -156 -110 -266q-111 -111 -264 -111q-156 0 -266 112q-109 110 -109 265zM76 1118q0 -137 98 -235q99 -99 234 -99q136 0 234 99q97 98 97 235q0 138 -98 235t-233 97q-138 0 -235 -98 t-97 -234zM268 922v397h160q60 0 104 -30q43 -30 43 -87q0 -67 -71 -94q67 -33 67 -127q0 -36 13 -59h-52q-10 20 -10 47q0 72 -26 95t-105 23h-76v-165h-47zM315 1130h93q120 0 120 76q0 34 -24 51t-42 18q-12 1 -59 1h-88v-146z" />
<glyph unicode="&#xaf;" horiz-adv-x="342" d="M-76 1307v67h496v-67h-496z" />
<glyph unicode="&#xb0;" horiz-adv-x="819" d="M121 1143q0 121 85 206t204 85q120 0 205 -85t85 -206q0 -118 -86 -204q-85 -85 -204 -85t-204 85t-85 204zM188 1143q0 -93 66 -157q65 -64 156 -64q92 0 157 65q66 66 66 156q0 91 -66 157t-157 66q-92 0 -157 -66q-65 -67 -65 -157z" />
<glyph unicode="&#xb1;" horiz-adv-x="1228" d="M106 -8v67h1002v-67h-1002zM106 541v67h465v387h72v-387h465v-67h-465v-385h-72v385h-465z" />
<glyph unicode="&#xb2;" horiz-adv-x="681" d="M33 563q1 91 59 167q58 77 136 125q122 76 158 97q77 45 134 110q55 62 55 136q0 76 -58 130t-169 54q-218 0 -233 -254h-66q17 310 299 310q128 0 211 -62q82 -61 82 -180q0 -92 -69 -166q-69 -73 -189 -149q-19 -13 -61 -39q-13 -8 -27 -16.5t-23 -14t-14 -8.5 q-15 -9 -50 -37t-49 -44q-20 -24 -34 -45q-20 -29 -27 -59h549v-55h-614z" />
<glyph unicode="&#xb3;" horiz-adv-x="681" d="M37 850h65q-4 -117 68 -183q73 -67 197 -67q105 0 181 55q77 56 77 146q0 104 -89 148t-219 36v55q116 -6 202 35q85 40 85 139q0 80 -74 124t-163 44q-116 0 -177 -64q-60 -63 -65 -173h-66q2 137 84 215q83 78 234 78q122 0 208 -56q85 -55 85 -168q0 -77 -49 -130 t-132 -64v-4q94 -11 147 -70q54 -60 54 -145q0 -125 -88 -191q-87 -65 -225 -65q-169 0 -258 78q-88 78 -82 227z" />
<glyph unicode="&#xb4;" horiz-adv-x="342" d="M53 1208l246 287h104l-274 -287h-76z" />
<glyph unicode="&#xb5;" horiz-adv-x="1062" d="M121 -379v1428h84v-666q0 -155 74 -249q73 -93 227 -93q158 0 260 121q60 73 78 147q18 77 18 187v553h82v-1049h-80v217q-127 -250 -360 -250q-203 0 -299 172v-518h-84z" />
<glyph unicode="&#xb6;" horiz-adv-x="1228" d="M121 995q0 229 139 346t367 117h467v-63h-115v-1735h-76v1735h-278v-1735h-74v891q-193 0 -312 126q-118 125 -118 318z" />
<glyph unicode="&#xb7;" horiz-adv-x="569" d="M217 518v209h102v-209h-102z" />
<glyph unicode="&#xb8;" horiz-adv-x="342" d="M-16 -350l22 49q94 -45 164 -45q54 0 89 25q36 25 36 77q0 41 -32 65q-30 23 -66 23q-57 0 -109 -24l-33 26l115 154h70l-99 -115l4 -4q39 17 76 17q66 2 108 -35q44 -38 44 -107q0 -157 -201 -157q-108 0 -188 51z" />
<glyph unicode="&#xb9;" horiz-adv-x="681" d="M121 1214v56q158 23 246 149h59v-856h-66v760q-97 -97 -239 -109z" />
<glyph unicode="&#xba;" horiz-adv-x="684" d="M18 1094q0 150 86 247t238 97t238 -97t86 -247q0 -154 -86 -249t-238 -95t-238 95t-86 249zM84 1094q0 -124 66 -207q66 -82 192 -82q127 0 193 82q65 81 65 207q0 125 -65 206q-66 82 -193 82q-126 0 -192 -82t-66 -206z" />
<glyph unicode="&#xbb;" horiz-adv-x="796" d="M162 244v94l180 215l-180 207v96l237 -262v-80zM426 244v98l178 211l-178 201v102l236 -264v-80z" />
<glyph unicode="&#xbc;" horiz-adv-x="1708" d="M193 1214v56q157 22 245 149h60v-856h-66v760q-97 -97 -239 -109zM309 -49l953 1511h81l-952 -1511h-82zM872 213v55l410 580h96v-580h146v-55h-146v-213h-65v213h-441zM946 268h367v512h-4z" />
<glyph unicode="&#xbd;" horiz-adv-x="1708" d="M131 1214v56q158 23 246 149h59v-856h-65v760q-97 -97 -240 -109zM248 -49l952 1511h82l-952 -1511h-82zM989 0q1 90 60 167q58 77 136 125q137 85 157 97q79 46 135 110q55 62 55 136q0 76 -58 130t-169 54q-219 0 -234 -254h-65q16 309 299 309q129 0 211 -61 q81 -60 81 -180q0 -94 -68 -166q-70 -74 -190 -150q-24 -15 -48 -29t-48 -29q-18 -11 -41 -27q-32 -22 -40 -30q-12 -12 -33 -30q-19 -16 -31 -35q-3 -4 -22 -38q-10 -17 -17 -44h545v-55h-615z" />
<glyph unicode="&#xbe;" horiz-adv-x="1708" d="M68 850h65q-4 -117 68 -183q73 -67 196 -67q106 0 182 55t76 146q0 104 -89 148t-218 36v55q116 -6 202 35q85 40 85 139q0 80 -74 124t-164 44q-115 0 -176 -64q-60 -63 -65 -173h-66q2 137 84 215t234 78q121 0 207 -56q85 -55 85 -168q0 -77 -49 -130 q-49 -54 -131 -64v-4q94 -11 147 -70q54 -60 54 -145q0 -125 -88 -191q-87 -65 -225 -65q-170 0 -258 78t-82 227zM406 -49l952 1511h82l-953 -1511h-81zM934 213v55l409 580h97v-580h145v-55h-145v-213h-66v213h-440zM1008 268h366v512h-4z" />
<glyph unicode="&#xbf;" horiz-adv-x="1062" d="M117 -35q0 64 12 113q12 48 47 97q38 53 52 67l71 71q54 48 73 68q23 25 59 75q39 54 53 117q16 70 16 152h78q0 -149 -47 -243q-47 -95 -134 -177q-63 -60 -100 -100q-36 -39 -70 -107q-32 -64 -32 -133q0 -144 95 -216q96 -73 234 -73q179 0 275 113t96 297h78 q0 -222 -119 -355q-118 -132 -336 -132q-175 0 -288 94t-113 272zM483 885v211h105v-211h-105z" />
<glyph unicode="&#xc0;" horiz-adv-x="1214" d="M-25 0l588 1462h99l577 -1462h-96l-185 469h-700l-186 -469h-97zM287 547h643l-314 827h-4zM311 1884h105l246 -287h-76z" />
<glyph unicode="&#xc1;" horiz-adv-x="1214" d="M-25 0l588 1462h99l577 -1462h-96l-185 469h-700l-186 -469h-97zM287 547h643l-314 827h-4zM563 1597l246 287h104l-274 -287h-76z" />
<glyph unicode="&#xc2;" horiz-adv-x="1214" d="M-25 0l588 1462h99l577 -1462h-96l-185 469h-700l-186 -469h-97zM287 547h643l-314 827h-4zM336 1597l235 287h82l238 -287h-78l-201 236l-198 -236h-78z" />
<glyph unicode="&#xc3;" horiz-adv-x="1214" d="M-25 0l588 1462h99l577 -1462h-96l-185 469h-700l-186 -469h-97zM287 547h643l-314 827h-4zM319 1636q5 74 48 129q44 56 110 56q49 4 147 -56q97 -59 136 -61q38 0 62 35q24 34 30 82h59q-7 -77 -46 -131t-109 -54q-46 0 -142 60q-57 35 -88 47q-23 10 -51 10 q-78 0 -96 -117h-60z" />
<glyph unicode="&#xc4;" horiz-adv-x="1214" d="M-25 0l588 1462h99l577 -1462h-96l-185 469h-700l-186 -469h-97zM287 547h643l-314 827h-4zM408 1624v211h90v-211h-90zM731 1624v211h90v-211h-90z" />
<glyph unicode="&#xc5;" horiz-adv-x="1214" d="M-25 0l588 1462h99l577 -1462h-96l-185 469h-700l-186 -469h-97zM287 547h643l-314 827h-4zM410 1741q0 86 58 144q59 59 144 59q86 0 145 -59q58 -58 58 -144q0 -87 -58 -145t-145 -58q-86 0 -144 58t-58 145zM465 1741q0 -62 43 -105t104 -43q62 0 105 43t43 105 q0 61 -43 104t-105 43q-61 0 -104 -43t-43 -104z" />
<glyph unicode="&#xc6;" horiz-adv-x="1781" d="M-18 0l763 1462h1004v-78h-776v-585h717v-78h-717v-643h778v-78h-868v520h-549l-271 -520h-81zM375 598h508v786h-97z" />
<glyph unicode="&#xc7;" horiz-adv-x="1441" d="M74 731q0 333 188 549q189 217 508 217q145 0 259 -48q112 -47 172 -112q57 -61 97 -137q40 -75 50 -117q10 -41 10 -57h-90q-29 181 -169 287t-329 106q-279 0 -442 -197q-164 -199 -164 -491q0 -291 164 -490q164 -198 442 -198q209 0 359 158q151 159 163 368h90 q-24 -261 -197 -433q-173 -171 -415 -171h-2l-68 -80l5 -4q39 17 75 17q66 2 108 -35q44 -38 44 -107q0 -157 -201 -157q-109 0 -188 51l22 49q95 -45 164 -45q54 0 89 25q36 25 36 77q0 41 -32 65q-30 23 -66 23q-56 0 -109 -24l-33 26l91 121q-116 7 -230 58 q-192 89 -296 275q-105 187 -105 431z" />
<glyph unicode="&#xc8;" horiz-adv-x="1146" d="M129 0v1462h983v-78h-893v-585h840v-78h-840v-643h903v-78h-993zM352 1884h105l245 -287h-75z" />
<glyph unicode="&#xc9;" horiz-adv-x="1146" d="M129 0v1462h983v-78h-893v-585h840v-78h-840v-643h903v-78h-993zM580 1597l245 287h105l-275 -287h-75z" />
<glyph unicode="&#xca;" horiz-adv-x="1146" d="M129 0v1462h983v-78h-893v-585h840v-78h-840v-643h903v-78h-993zM332 1597l235 287h82l238 -287h-78l-201 236l-198 -236h-78z" />
<glyph unicode="&#xcb;" horiz-adv-x="1146" d="M129 0v1462h983v-78h-893v-585h840v-78h-840v-643h903v-78h-993zM416 1624v211h90v-211h-90zM739 1624v211h90v-211h-90z" />
<glyph unicode="&#xcc;" horiz-adv-x="348" d="M-129 1884h104l246 -287h-76zM129 0v1462h90v-1462h-90z" />
<glyph unicode="&#xcd;" horiz-adv-x="348" d="M129 0v1462h90v-1462h-90zM131 1597l246 287h104l-274 -287h-76z" />
<glyph unicode="&#xce;" horiz-adv-x="348" d="M-102 1597l235 287h82l238 -287h-78l-201 236l-199 -236h-77zM129 0v1462h90v-1462h-90z" />
<glyph unicode="&#xcf;" horiz-adv-x="348" d="M-33 1624v211h90v-211h-90zM129 0v1462h90v-1462h-90zM291 1624v211h90v-211h-90z" />
<glyph unicode="&#xd0;" horiz-adv-x="1366" d="M-10 743v68h139v651h479q151 0 271 -41q117 -40 194 -108q75 -66 124 -164t68 -198q19 -99 19 -218q0 -330 -171 -531q-172 -202 -509 -202h-475v743h-139zM219 78h393q88 0 165 19q76 19 157 67q74 44 134 120q56 71 91 188t35 261q0 171 -43 296q-45 129 -104 193 q-61 66 -150 105t-156 48t-147 9h-375v-573h541v-68h-541v-665z" />
<glyph unicode="&#xd1;" horiz-adv-x="1388" d="M129 0v1462h113l923 -1341h4v1341h91v-1462h-107l-930 1352h-4v-1352h-90zM422 1636q5 75 47 129q44 56 111 56q48 4 146 -56q97 -59 136 -61q39 0 63 35q23 33 29 82h60q-7 -77 -46 -131t-110 -54q-45 0 -141 60q-57 35 -88 47q-23 10 -51 10q-79 0 -97 -117h-59z" />
<glyph unicode="&#xd2;" horiz-adv-x="1517" d="M63 731q0 331 189 549q189 217 508 217t507 -218q187 -217 187 -548t-187 -548q-188 -218 -507 -218t-508 217q-189 218 -189 549zM154 731q0 -293 163 -490q163 -198 443 -198q276 0 440 198q164 199 164 490q0 292 -164 491q-163 197 -440 197q-280 0 -443 -197 t-163 -491zM471 1884h104l246 -287h-76z" />
<glyph unicode="&#xd3;" horiz-adv-x="1517" d="M63 731q0 331 189 549q189 217 508 217t507 -218q187 -217 187 -548t-187 -548q-188 -218 -507 -218t-508 217q-189 218 -189 549zM154 731q0 -293 163 -490q163 -198 443 -198q276 0 440 198q164 199 164 490q0 292 -164 491q-163 197 -440 197q-280 0 -443 -197 t-163 -491zM690 1597l246 287h104l-274 -287h-76z" />
<glyph unicode="&#xd4;" horiz-adv-x="1517" d="M63 731q0 331 189 549q189 217 508 217t507 -218q187 -217 187 -548t-187 -548q-188 -218 -507 -218t-508 217q-189 218 -189 549zM154 731q0 -293 163 -490q163 -198 443 -198q276 0 440 198q164 199 164 490q0 292 -164 491q-163 197 -440 197q-280 0 -443 -197 t-163 -491zM485 1597l236 287h82l237 -287h-77l-201 236l-199 -236h-78z" />
<glyph unicode="&#xd5;" horiz-adv-x="1517" d="M63 731q0 331 189 549q189 217 508 217t507 -218q187 -217 187 -548t-187 -548q-188 -218 -507 -218t-508 217q-189 218 -189 549zM154 731q0 -293 163 -490q163 -198 443 -198q276 0 440 198q164 199 164 490q0 292 -164 491q-163 197 -440 197q-280 0 -443 -197 t-163 -491zM465 1636q5 75 47 129q44 56 111 56q48 4 146 -56q97 -59 136 -61q39 0 63 35q23 33 29 82h60q-7 -77 -46 -131t-110 -54q-45 0 -141 60q-57 35 -88 47q-23 10 -51 10q-79 0 -97 -117h-59z" />
<glyph unicode="&#xd6;" horiz-adv-x="1517" d="M63 731q0 331 189 549q189 217 508 217t507 -218q187 -217 187 -548t-187 -548q-188 -218 -507 -218t-508 217q-189 218 -189 549zM154 731q0 -293 163 -490q163 -198 443 -198q276 0 440 198q164 199 164 490q0 292 -164 491q-163 197 -440 197q-280 0 -443 -197 t-163 -491zM557 1624v211h90v-211h-90zM881 1624v211h90v-211h-90z" />
<glyph unicode="&#xd7;" horiz-adv-x="1228" d="M162 119l397 397l-397 399l53 56l399 -400l398 400l55 -56l-397 -399l397 -397l-55 -56l-398 400l-399 -400z" />
<glyph unicode="&#xd8;" horiz-adv-x="1517" d="M63 731q0 331 189 549q189 217 508 217q289 0 475 -186l139 151l53 -49l-143 -156q170 -208 170 -526q0 -331 -187 -548q-188 -218 -507 -218q-301 0 -481 191l-156 -172l-53 49l161 176q-168 213 -168 522zM154 731q0 -272 139 -457l885 973q-168 172 -418 172 q-280 0 -443 -197t-163 -491zM338 221q166 -178 422 -178q276 0 440 198q164 199 164 490q0 271 -139 461z" />
<glyph unicode="&#xd9;" horiz-adv-x="1376" d="M129 586v876h90v-876q0 -65 6 -125q5 -54 34 -140q27 -82 74 -139q47 -58 135 -98q90 -41 210 -41q258 0 369 139q110 138 110 404v876h90v-876q0 -621 -569 -621q-549 0 -549 621zM403 1884h105l246 -287h-76z" />
<glyph unicode="&#xda;" horiz-adv-x="1376" d="M129 586v876h90v-876q0 -65 6 -125q5 -54 34 -140q27 -82 74 -139q47 -58 135 -98q90 -41 210 -41q258 0 369 139q110 138 110 404v876h90v-876q0 -621 -569 -621q-549 0 -549 621zM598 1597l246 287h104l-274 -287h-76z" />
<glyph unicode="&#xdb;" horiz-adv-x="1376" d="M129 586v876h90v-876q0 -65 6 -125q5 -54 34 -140q27 -82 74 -139q47 -58 135 -98q90 -41 210 -41q258 0 369 139q110 138 110 404v876h90v-876q0 -621 -569 -621q-549 0 -549 621zM408 1597l235 287h82l238 -287h-78l-201 236l-199 -236h-77z" />
<glyph unicode="&#xdc;" horiz-adv-x="1376" d="M129 586v876h90v-876q0 -65 6 -125q5 -54 34 -140q27 -82 74 -139q47 -58 135 -98q90 -41 210 -41q258 0 369 139q110 138 110 404v876h90v-876q0 -621 -569 -621q-549 0 -549 621zM487 1624v211h91v-211h-91zM811 1624v211h90v-211h-90z" />
<glyph unicode="&#xdd;" horiz-adv-x="1175" d="M-43 1462h102l529 -774l530 774h101l-588 -850v-612h-90v612zM541 1597l245 287h105l-275 -287h-75z" />
<glyph unicode="&#xde;" horiz-adv-x="1214" d="M129 0v1462h90v-245h533q47 0 108 -9q54 -8 112 -34q62 -28 104 -70q46 -46 73 -119q29 -78 29 -176q0 -194 -119 -299q-117 -104 -340 -104h-500v-406h-90zM219 483h514q182 0 268 98t86 230q0 50 -13 98q-14 52 -47 105q-35 56 -106 90q-73 35 -176 35h-526v-656z" />
<glyph unicode="&#xdf;" horiz-adv-x="1024" d="M119 0v1100q0 387 373 387q169 0 277 -87t108 -253q0 -266 -244 -322v-4q155 -18 235 -119t80 -264q0 -110 -32 -197q-32 -85 -76 -130q-45 -45 -107 -72q-61 -27 -105 -33t-91 -6h-113v68h78q40 0 85 5q39 4 95 27q53 21 94 61q41 39 67 109q27 72 27 168 q0 189 -117 263q-118 75 -329 75v68q162 0 268 75q107 75 107 228q0 129 -87 201q-86 71 -220 71q-295 0 -295 -319v-1100h-78z" />
<glyph unicode="&#xe0;" horiz-adv-x="1024" d="M66 272q0 91 33 150q35 62 97 93q63 31 120 46q61 16 137 23q110 6 172 15q52 8 104 22q42 12 59 39q17 28 22 56q5 30 5 87q0 24 -13 53q-14 31 -42 68t-91 61q-66 25 -147 25q-142 0 -229 -73q-86 -73 -94 -208h-78q7 171 110 260q101 88 291 88q369 0 369 -274v-608 q0 -38 1 -48q2 -16 7 -36q6 -22 22 -33q14 -10 40 -10q19 0 57 6v-66q-32 -8 -64 -8q-83 0 -112 39q-29 40 -29 115v55h-4q-39 -102 -142 -167q-105 -67 -249 -67q-352 0 -352 297zM143 272q0 -103 71 -166q70 -63 206 -63q100 0 176 33q74 32 116 77q40 42 64 99 q26 59 31 90q6 35 6 59v197q-26 -32 -81 -47q-51 -14 -158 -22q-109 -8 -142 -13q-144 -18 -217 -74q-72 -56 -72 -170zM236 1495h104l246 -287h-76z" />
<glyph unicode="&#xe1;" horiz-adv-x="1024" d="M66 272q0 91 33 150q35 62 97 93q63 31 120 46q61 16 137 23q110 6 172 15q52 8 104 22q42 12 59 39q17 28 22 56q5 30 5 87q0 24 -13 53q-14 31 -42 68t-91 61q-66 25 -147 25q-142 0 -229 -73q-86 -73 -94 -208h-78q7 171 110 260q101 88 291 88q369 0 369 -274v-608 q0 -38 1 -48q2 -16 7 -36q6 -22 22 -33q14 -10 40 -10q19 0 57 6v-66q-32 -8 -64 -8q-83 0 -112 39q-29 40 -29 115v55h-4q-39 -102 -142 -167q-105 -67 -249 -67q-352 0 -352 297zM143 272q0 -103 71 -166q70 -63 206 -63q100 0 176 33q74 32 116 77q40 42 64 99 q26 59 31 90q6 35 6 59v197q-26 -32 -81 -47q-51 -14 -158 -22q-109 -8 -142 -13q-144 -18 -217 -74q-72 -56 -72 -170zM449 1208l245 287h105l-275 -287h-75z" />
<glyph unicode="&#xe2;" horiz-adv-x="1024" d="M66 272q0 91 33 150q35 62 97 93q63 31 120 46q61 16 137 23q110 6 172 15q52 8 104 22q42 12 59 39q17 28 22 56q5 30 5 87q0 24 -13 53q-14 31 -42 68t-91 61q-66 25 -147 25q-142 0 -229 -73q-86 -73 -94 -208h-78q7 171 110 260q101 88 291 88q369 0 369 -274v-608 q0 -38 1 -48q2 -16 7 -36q6 -22 22 -33q14 -10 40 -10q19 0 57 6v-66q-32 -8 -64 -8q-83 0 -112 39q-29 40 -29 115v55h-4q-39 -102 -142 -167q-105 -67 -249 -67q-352 0 -352 297zM143 272q0 -103 71 -166q70 -63 206 -63q100 0 176 33q74 32 116 77q40 42 64 99 q26 59 31 90q6 35 6 59v197q-26 -32 -81 -47q-51 -14 -158 -22q-109 -8 -142 -13q-144 -18 -217 -74q-72 -56 -72 -170zM248 1208l235 287h82l238 -287h-78l-201 236l-198 -236h-78z" />
<glyph unicode="&#xe3;" horiz-adv-x="1024" d="M66 272q0 91 33 150q35 62 97 93q63 31 120 46q61 16 137 23q110 6 172 15q52 8 104 22q42 12 59 39q17 28 22 56q5 30 5 87q0 24 -13 53q-14 31 -42 68t-91 61q-66 25 -147 25q-142 0 -229 -73q-86 -73 -94 -208h-78q7 171 110 260q101 88 291 88q369 0 369 -274v-608 q0 -38 1 -48q2 -16 7 -36q6 -22 22 -33q14 -10 40 -10q19 0 57 6v-66q-32 -8 -64 -8q-83 0 -112 39q-29 40 -29 115v55h-4q-39 -102 -142 -167q-105 -67 -249 -67q-352 0 -352 297zM143 272q0 -103 71 -166q70 -63 206 -63q100 0 176 33q74 32 116 77q40 42 64 99 q26 59 31 90q6 35 6 59v197q-26 -32 -81 -47q-51 -14 -158 -22q-109 -8 -142 -13q-144 -18 -217 -74q-72 -56 -72 -170zM229 1247q5 75 47 129q44 56 111 56q48 4 146 -56q97 -59 137 -61q38 0 62 35q24 34 30 82h59q-8 -78 -46 -132q-38 -53 -109 -53q-46 0 -142 60 q-57 35 -88 47q-23 10 -51 10q-78 0 -96 -117h-60z" />
<glyph unicode="&#xe4;" horiz-adv-x="1024" d="M66 272q0 91 33 150q35 62 97 93q63 31 120 46q61 16 137 23q110 6 172 15q52 8 104 22q42 12 59 39q17 28 22 56q5 30 5 87q0 24 -13 53q-14 31 -42 68t-91 61q-66 25 -147 25q-142 0 -229 -73q-86 -73 -94 -208h-78q7 171 110 260q101 88 291 88q369 0 369 -274v-608 q0 -38 1 -48q2 -16 7 -36q6 -22 22 -33q14 -10 40 -10q19 0 57 6v-66q-32 -8 -64 -8q-83 0 -112 39q-29 40 -29 115v55h-4q-39 -102 -142 -167q-105 -67 -249 -67q-352 0 -352 297zM143 272q0 -103 71 -166q70 -63 206 -63q100 0 176 33q74 32 116 77q40 42 64 99 q26 59 31 90q6 35 6 59v197q-26 -32 -81 -47q-51 -14 -158 -22q-109 -8 -142 -13q-144 -18 -217 -74q-72 -56 -72 -170zM317 1235v211h91v-211h-91zM641 1235v211h90v-211h-90z" />
<glyph unicode="&#xe5;" horiz-adv-x="1024" d="M66 272q0 91 33 150q35 62 97 93q63 31 120 46q61 16 137 23q110 6 172 15q52 8 104 22q42 12 59 39q17 28 22 56q5 30 5 87q0 24 -13 53q-14 31 -42 68t-91 61q-66 25 -147 25q-142 0 -229 -73q-86 -73 -94 -208h-78q7 171 110 260q101 88 291 88q369 0 369 -274v-608 q0 -38 1 -48q2 -16 7 -36q6 -22 22 -33q14 -10 40 -10q19 0 57 6v-66q-32 -8 -64 -8q-83 0 -112 39q-29 40 -29 115v55h-4q-39 -102 -142 -167q-105 -67 -249 -67q-352 0 -352 297zM143 272q0 -103 71 -166q70 -63 206 -63q100 0 176 33q74 32 116 77q40 42 64 99 q26 59 31 90q6 35 6 59v197q-26 -32 -81 -47q-51 -14 -158 -22q-109 -8 -142 -13q-144 -18 -217 -74q-72 -56 -72 -170zM322 1372q0 87 58 145t144 58q87 0 145 -58t58 -145q0 -86 -58 -144q-59 -59 -145 -59q-85 0 -144 59q-58 58 -58 144zM377 1372q0 -61 43 -104t104 -43 q62 0 105 43t43 104q0 62 -43 105t-105 43q-61 0 -104 -43t-43 -105z" />
<glyph unicode="&#xe6;" horiz-adv-x="1820" d="M66 268q0 297 383 312q28 4 91 7q11 1 45 2.5t48 2.5q36 1 80 12q43 10 67 27q26 18 40 50q15 35 11 83q0 127 -75 186q-76 60 -232 60q-315 0 -336 -287h-77q12 178 121 266t292 88q348 0 369 -268h4q96 268 399 268q232 0 355 -163t102 -398h-842q-12 -202 89 -337 q102 -136 296 -136q149 0 247 80q97 79 120 227h78q-29 -176 -147 -275q-120 -100 -298 -100q-162 0 -273 78q-110 78 -148 228h-5q-51 -144 -163 -225q-113 -81 -265 -81q-160 0 -269 74q-107 73 -107 219zM143 268q0 -112 88 -169q87 -56 211 -56q154 0 270 108 q114 107 119 261v180h-4q-11 -18 -34 -30q-19 -10 -68 -18q-39 -7 -80 -10q-88 -7 -102 -8q-84 -6 -103 -8q-297 -18 -297 -250zM909 584h766q5 177 -100 301q-105 125 -279 125q-180 0 -276 -121q-96 -122 -111 -305z" />
<glyph unicode="&#xe7;" horiz-adv-x="1062" d="M68 537q0 231 129 386q129 154 354 154q177 0 298 -89q119 -88 136 -261h-78q-12 136 -110 209q-100 74 -246 74q-187 0 -296 -141q-110 -142 -110 -332q0 -224 105 -359t301 -135q146 0 246 91t121 237h77q-18 -139 -94 -234q-77 -96 -190 -135q-64 -24 -129 -25 l-78 -92l4 -4q39 17 76 17q65 2 107 -35q44 -38 44 -107q0 -157 -200 -157q-109 0 -189 51l23 49q95 -45 163 -45q55 0 90 25t35 77q0 41 -31 65q-30 23 -67 23q-55 0 -108 -24l-33 26l96 131q-106 1 -184 43q-131 68 -197 205q-65 134 -65 312z" />
<glyph unicode="&#xe8;" horiz-adv-x="1062" d="M68 508q-4 233 117 401t347 168q236 0 356 -161q119 -159 107 -400h-850q-4 -195 99 -335q102 -138 288 -138q149 0 249 83q99 83 128 230h78q-30 -183 -147 -282t-308 -99q-220 0 -345 153q-124 152 -119 380zM145 584h773q-5 177 -109 301q-105 125 -277 125 q-165 0 -269 -128q-103 -127 -118 -298zM246 1495h104l246 -287h-76z" />
<glyph unicode="&#xe9;" horiz-adv-x="1062" d="M68 508q-4 233 117 401t347 168q236 0 356 -161q119 -159 107 -400h-850q-4 -195 99 -335q102 -138 288 -138q149 0 249 83q99 83 128 230h78q-30 -183 -147 -282t-308 -99q-220 0 -345 153q-124 152 -119 380zM145 584h773q-5 177 -109 301q-105 125 -277 125 q-165 0 -269 -128q-103 -127 -118 -298zM487 1208l246 287h105l-275 -287h-76z" />
<glyph unicode="&#xea;" horiz-adv-x="1062" d="M68 508q-4 233 117 401t347 168q236 0 356 -161q119 -159 107 -400h-850q-4 -195 99 -335q102 -138 288 -138q149 0 249 83q99 83 128 230h78q-30 -183 -147 -282t-308 -99q-220 0 -345 153q-124 152 -119 380zM145 584h773q-5 177 -109 301q-105 125 -277 125 q-165 0 -269 -128q-103 -127 -118 -298zM254 1208l235 287h82l238 -287h-78l-201 236l-198 -236h-78z" />
<glyph unicode="&#xeb;" horiz-adv-x="1062" d="M68 508q-4 233 117 401t347 168q236 0 356 -161q119 -159 107 -400h-850q-4 -195 99 -335q102 -138 288 -138q149 0 249 83q99 83 128 230h78q-30 -183 -147 -282t-308 -99q-220 0 -345 153q-124 152 -119 380zM145 584h773q-5 177 -109 301q-105 125 -277 125 q-165 0 -269 -128q-103 -127 -118 -298zM324 1235v211h90v-211h-90zM647 1235v211h90v-211h-90z" />
<glyph unicode="&#xec;" horiz-adv-x="344" d="M-137 1495h104l246 -287h-76zM133 0v1053h78v-1053h-78z" />
<glyph unicode="&#xed;" horiz-adv-x="344" d="M131 1208l246 287h104l-274 -287h-76zM133 0v1053h78v-1053h-78z" />
<glyph unicode="&#xee;" horiz-adv-x="344" d="M-104 1208l235 287h82l238 -287h-78l-201 236l-199 -236h-77zM133 0v1053h78v-1053h-78z" />
<glyph unicode="&#xef;" horiz-adv-x="344" d="M-35 1235v211h90v-211h-90zM133 0v1053h78v-1053h-78zM289 1235v211h90v-211h-90z" />
<glyph unicode="&#xf0;" horiz-adv-x="1099" d="M66 510q0 224 130 375t355 151q211 0 334 -151l4 4q-88 206 -318 385l-229 -127l-43 45l221 123q-117 89 -211 133l58 49q122 -65 221 -145l235 131l41 -45l-223 -125q391 -312 391 -803q0 -233 -125 -384t-356 -151q-237 0 -362 149q-123 147 -123 386zM143 510 q0 -193 106 -331q105 -136 302 -136q199 0 301 133q102 134 102 334q0 192 -106 325q-107 134 -297 134q-191 0 -299 -134q-109 -135 -109 -325z" />
<glyph unicode="&#xf1;" horiz-adv-x="1062" d="M115 0v1053h78v-226h4q41 119 145 184q105 66 231 66q89 0 156 -21q68 -21 107 -62q41 -42 63 -80q25 -42 35 -97q10 -57 12 -89q2 -42 2 -77v-651h-78v666q0 344 -299 344q-175 0 -277 -122q-101 -120 -101 -319v-569h-78zM242 1247q5 75 47 129q44 56 110 56 q49 4 147 -56q97 -59 136 -61q38 0 62 35q24 34 30 82h60q-7 -76 -47 -132q-38 -53 -109 -53q-45 0 -141 60q-57 35 -88 47q-23 10 -52 10q-78 0 -96 -117h-59z" />
<glyph unicode="&#xf2;" horiz-adv-x="1099" d="M66 526q0 236 129 394q129 157 354 157t354 -157t129 -394q0 -236 -129 -393q-129 -158 -354 -158t-354 158q-129 157 -129 393zM143 526q0 -200 109 -342q108 -141 297 -141t297 141t108 342t-108 342q-109 142 -297 142t-297 -142t-109 -342zM270 1495h105l246 -287 h-76z" />
<glyph unicode="&#xf3;" horiz-adv-x="1099" d="M66 526q0 236 129 394q129 157 354 157t354 -157t129 -394q0 -236 -129 -393q-129 -158 -354 -158t-354 158q-129 157 -129 393zM143 526q0 -200 109 -342q108 -141 297 -141t297 141t108 342t-108 342q-109 142 -297 142t-297 -142t-109 -342zM502 1208l246 287h104 l-274 -287h-76z" />
<glyph unicode="&#xf4;" horiz-adv-x="1099" d="M66 526q0 236 129 394q129 157 354 157t354 -157t129 -394q0 -236 -129 -393q-129 -158 -354 -158t-354 158q-129 157 -129 393zM143 526q0 -200 109 -342q108 -141 297 -141t297 141t108 342t-108 342q-109 142 -297 142t-297 -142t-109 -342zM272 1208l236 287h82 l237 -287h-77l-201 236l-199 -236h-78z" />
<glyph unicode="&#xf5;" horiz-adv-x="1099" d="M66 526q0 236 129 394q129 157 354 157t354 -157t129 -394q0 -236 -129 -393q-129 -158 -354 -158t-354 158q-129 157 -129 393zM143 526q0 -200 109 -342q108 -141 297 -141t297 141t108 342t-108 342q-109 142 -297 142t-297 -142t-109 -342zM254 1247q5 75 47 129 q44 56 111 56q48 4 146 -56q97 -59 136 -61q39 0 63 35q23 33 29 82h60q-8 -78 -46 -132q-38 -53 -110 -53q-45 0 -141 60q-57 35 -88 47q-23 10 -51 10q-79 0 -97 -117h-59z" />
<glyph unicode="&#xf6;" horiz-adv-x="1099" d="M66 526q0 236 129 394q129 157 354 157t354 -157t129 -394q0 -236 -129 -393q-129 -158 -354 -158t-354 158q-129 157 -129 393zM143 526q0 -200 109 -342q108 -141 297 -141t297 141t108 342t-108 342q-109 142 -297 142t-297 -142t-109 -342zM342 1235v211h90v-211h-90 zM666 1235v211h90v-211h-90z" />
<glyph unicode="&#xf7;" horiz-adv-x="1228" d="M98 518v68h1035v-68h-1035zM565 145v205h103v-205h-103zM565 754v204h103v-204h-103z" />
<glyph unicode="&#xf8;" horiz-adv-x="1099" d="M51 47l117 125q-102 146 -102 354q0 236 129 394q129 157 354 157q211 0 340 -145l112 119l50 -47l-119 -127q100 -146 100 -351q0 -236 -129 -393q-129 -158 -354 -158q-208 0 -338 142l-111 -117zM143 526q0 -178 80 -297l613 648q-106 133 -287 133q-188 0 -297 -142 t-109 -342zM264 172q108 -129 285 -129q189 0 297 141t108 342q0 176 -77 293z" />
<glyph unicode="&#xf9;" horiz-adv-x="1062" d="M115 401v652h78v-666q0 -344 299 -344q175 0 277 122q101 120 101 318v570h78v-1053h-78v225h-4q-41 -117 -145 -183q-107 -67 -232 -67q-84 0 -155 22q-69 21 -107 61q-41 42 -63 80q-25 41 -35 98t-12 89q-2 42 -2 76zM258 1495h104l246 -287h-76z" />
<glyph unicode="&#xfa;" horiz-adv-x="1062" d="M115 401v652h78v-666q0 -344 299 -344q175 0 277 122q101 120 101 318v570h78v-1053h-78v225h-4q-41 -117 -145 -183q-107 -67 -232 -67q-84 0 -155 22q-69 21 -107 61q-41 42 -63 80q-25 41 -35 98t-12 89q-2 42 -2 76zM477 1208l246 287h104l-274 -287h-76z" />
<glyph unicode="&#xfb;" horiz-adv-x="1062" d="M115 401v652h78v-666q0 -344 299 -344q175 0 277 122q101 120 101 318v570h78v-1053h-78v225h-4q-41 -117 -145 -183q-107 -67 -232 -67q-84 0 -155 22q-69 21 -107 61q-41 42 -63 80q-25 41 -35 98t-12 89q-2 42 -2 76zM244 1208l235 287h82l238 -287h-78l-201 236 l-198 -236h-78z" />
<glyph unicode="&#xfc;" horiz-adv-x="1062" d="M115 401v652h78v-666q0 -344 299 -344q175 0 277 122q101 120 101 318v570h78v-1053h-78v225h-4q-41 -117 -145 -183q-107 -67 -232 -67q-84 0 -155 22q-69 21 -107 61q-41 42 -63 80q-25 41 -35 98t-12 89q-2 42 -2 76zM315 1235v211h91v-211h-91zM639 1235v211h90v-211 h-90z" />
<glyph unicode="&#xfd;" horiz-adv-x="909" d="M-12 1053h92l391 -961l360 961h89l-451 -1166q-73 -182 -123 -217q-42 -32 -91 -39q-56 -8 -155 -8v68q87 0 132 13q46 14 87 54q32 32 109 248zM424 1208l246 287h104l-274 -287h-76z" />
<glyph unicode="&#xfe;" d="M133 -377v1839h78v-651h4q30 101 129 183q100 83 254 83q230 0 351 -158q122 -160 122 -395q0 -249 -120 -399t-353 -150q-293 0 -383 244h-4v-596h-78zM213 524q0 -102 19 -182q19 -82 62 -152q42 -69 120 -108t184 -39q195 0 295 136t100 345q0 200 -99 343t-296 143 q-196 0 -291 -140q-94 -139 -94 -346z" />
<glyph unicode="&#xff;" horiz-adv-x="909" d="M-12 1053h92l391 -961l360 961h89l-451 -1166q-73 -182 -123 -217q-42 -32 -91 -39q-56 -8 -155 -8v68q87 0 132 13q46 14 87 54q32 32 109 248zM262 1235v211h90v-211h-90zM586 1235v211h90v-211h-90z" />
<glyph unicode="&#x152;" horiz-adv-x="2162" d="M63 725q0 211 78 384q78 172 238 281q158 107 375 107q117 0 231 -44q113 -43 189 -126v135h954v-78h-864v-585h774v-78h-774v-643h868v-78h-958v135h-5q-55 -71 -168 -121q-111 -49 -264 -49q-316 0 -494 214q-180 216 -180 546zM154 725q0 -295 151 -488 q152 -194 438 -194q157 0 258 55q60 30 115 75q58 47 58 87l-1 924q0 38 -37 79q-36 41 -79 66q-133 90 -295 90q-288 0 -448 -200t-160 -494z" />
<glyph unicode="&#x153;" horiz-adv-x="1820" d="M66 512q0 244 114 404q114 161 340 161q154 0 255 -82t134 -229h4q84 311 408 311q225 0 336 -164q110 -162 98 -397h-805q-15 -195 81 -335q95 -138 290 -138q141 0 227 81q87 82 121 222h78q-39 -174 -146 -272q-108 -99 -280 -99q-165 0 -273 81t-137 229h-4 q-84 -310 -393 -310q-232 0 -340 153t-108 384zM143 512q0 -201 95 -335t278 -134q102 0 176 42q73 42 111 115q36 69 53 148q16 74 16 164q0 138 -30 244q-29 105 -114 180q-83 74 -210 74q-101 0 -178 -44q-76 -44 -117 -120t-60 -159q-20 -85 -20 -175zM950 584h727 q0 177 -93 302q-93 124 -263 124q-180 0 -278 -125t-93 -301z" />
<glyph unicode="&#x178;" horiz-adv-x="1175" d="M-43 1462h102l529 -774l530 774h101l-588 -850v-612h-90v612zM381 1624v211h90v-211h-90zM705 1624v211h90v-211h-90z" />
<glyph unicode="&#x2c6;" horiz-adv-x="342" d="M-106 1208l235 287h82l238 -287h-78l-201 236l-199 -236h-77z" />
<glyph unicode="&#x2dc;" horiz-adv-x="342" d="M-125 1247q5 75 47 129q44 56 111 56q48 4 146 -56q97 -59 136 -61q39 0 63 35q24 34 30 82h59q-8 -78 -46 -132q-38 -53 -110 -53q-45 0 -141 60q-57 35 -88 47q-23 10 -51 10q-79 0 -97 -117h-59z" />
<glyph unicode="&#x2000;" horiz-adv-x="972" />
<glyph unicode="&#x2001;" horiz-adv-x="1944" />
<glyph unicode="&#x2002;" horiz-adv-x="972" />
<glyph unicode="&#x2003;" horiz-adv-x="1944" />
<glyph unicode="&#x2004;" horiz-adv-x="648" />
<glyph unicode="&#x2005;" horiz-adv-x="486" />
<glyph unicode="&#x2006;" horiz-adv-x="324" />
<glyph unicode="&#x2007;" horiz-adv-x="324" />
<glyph unicode="&#x2008;" horiz-adv-x="243" />
<glyph unicode="&#x2009;" horiz-adv-x="388" />
<glyph unicode="&#x200a;" horiz-adv-x="108" />
<glyph unicode="&#x2010;" horiz-adv-x="720" d="M141 514v80h439v-80h-439z" />
<glyph unicode="&#x2011;" horiz-adv-x="720" d="M141 514v80h439v-80h-439z" />
<glyph unicode="&#x2012;" horiz-adv-x="720" d="M141 514v80h439v-80h-439z" />
<glyph unicode="&#x2013;" horiz-adv-x="1024" d="M0 518v78h1024v-78h-1024z" />
<glyph unicode="&#x2014;" horiz-adv-x="2048" d="M0 518v78h2048v-78h-2048z" />
<glyph unicode="&#x2018;" horiz-adv-x="417" d="M158 1016v174q0 111 25 186q25 76 106 111v-70q-69 -44 -70 -192h41v-209h-102z" />
<glyph unicode="&#x2019;" horiz-adv-x="417" d="M129 987v70q69 44 70 192h-41v209h102v-174q0 -108 -26 -186q-26 -76 -105 -111z" />
<glyph unicode="&#x201a;" horiz-adv-x="417" d="M125 -193q69 44 70 193h-41v209h102v-174q0 -109 -26 -187q-25 -75 -105 -110v69z" />
<glyph unicode="&#x201c;" horiz-adv-x="645" d="M143 1016v174q0 108 26 186q25 76 105 111v-70q-68 -44 -69 -192h41v-209h-103zM399 1016v174q0 108 26 186q25 76 105 111v-70q-68 -44 -69 -192h41v-209h-103z" />
<glyph unicode="&#x201d;" horiz-adv-x="645" d="M111 987v70q68 44 69 192h-41v209h103v-174q0 -108 -26 -186q-26 -76 -105 -111zM367 987v70q68 44 69 192h-41v209h103v-174q0 -108 -26 -186q-26 -76 -105 -111z" />
<glyph unicode="&#x201e;" horiz-adv-x="645" d="M111 -193q68 44 69 193h-41v209h103v-174q0 -109 -26 -187q-25 -75 -105 -110v69zM367 -193q68 44 69 193h-41v209h103v-174q0 -109 -26 -187q-25 -75 -105 -110v69z" />
<glyph unicode="&#x2022;" horiz-adv-x="1024" d="M147 729q0 151 108 258q109 107 257 107q152 0 258 -108q107 -109 107 -257q0 -151 -108 -258q-107 -106 -257 -106q-152 0 -258 107q-107 109 -107 257z" />
<glyph unicode="&#x2026;" horiz-adv-x="2048" d="M289 0v209h102v-209h-102zM971 0v209h102v-209h-102zM1653 0v209h102v-209h-102z" />
<glyph unicode="&#x202f;" horiz-adv-x="388" />
<glyph unicode="&#x2039;" horiz-adv-x="530" d="M131 508v82l236 268v-102l-179 -209l179 -203v-100z" />
<glyph unicode="&#x203a;" horiz-adv-x="530" d="M166 244v100l180 211l-180 203v100l235 -264v-82z" />
<glyph unicode="&#x205f;" horiz-adv-x="486" />
<glyph unicode="&#x20ac;" d="M25 549l30 67h99q-11 105 0 197h-129l30 68h103q7 120 56 243q48 121 136 197q135 117 340 117q160 0 260 -62q96 -61 135 -157l-43 -78q-33 112 -131 174q-85 55 -221 55q-193 0 -305 -115q-64 -64 -101 -168q-39 -109 -46 -206h680l-31 -68h-656q-4 -61 -4 -102 q0 -40 4 -95h580l-31 -67h-540q18 -192 110 -328q121 -178 348 -178q106 0 197 35q100 40 174 125v-94q-68 -61 -141 -89q-105 -45 -240 -45q-263 0 -403 201q-109 154 -127 373h-133z" />
<glyph unicode="&#x2122;" horiz-adv-x="2027" d="M217 1401v57h590v-57h-264v-672h-62v672h-264zM952 729v729h95l251 -645l252 645h90v-729h-55v662l-260 -662h-55l-260 662v-662h-58z" />
<glyph unicode="&#x25fc;" horiz-adv-x="1044" d="M0 0v1044h1044v-1044h-1044z" />
<glyph unicode="&#xfb04;" horiz-adv-x="1220" d="M0 985v68h188v217q0 52 19 95q18 41 50 65q31 24 74 36q46 13 89 13q32 0 92 -11v-67q-54 10 -92 10q-66 0 -110 -30t-44 -117v-211h346v217q0 52 19 95q18 41 50 65q31 24 74 36q46 13 89 13q32 0 92 -11v-67q-54 10 -92 10q-66 0 -110 -30t-44 -117v-211h219v-68h-219 v-985h-78v985h-346v-985h-78v985h-188zM1010 0v1462h77v-1462h-77z" />
</font>
</defs>
</svg>
